font.ufo
<glyph name="exclam" format="1">
  <advance width="419"/>
  <unicode hex="0021"/>
  <outline>
    <contour>
      <point x="315" y="574" type="line"/>
      <point x="442" y="892" type="line"/>
      <point x="398" y="944"/>
      <point x="301" y="961"/>
      <point x="221" y="929" type="curve"/>
      <point x="176" y="554" type="line"/>
      <point x="127" y="282" type="line"/>
      <point x="185" y="236"/>
      <point x="223" y="243"/>
      <point x="248" y="280" type="curve"/>
    </contour>
    <contour>
      <point x="258" y="79" type="curve"/>
      <point x="252" y="134"/>
      <point x="204" y="196"/>
      <point x="164" y="196" type="curve"/>
      <point x="107" y="188"/>
      <point x="56" y="128"/>
      <point x="42" y="67" type="curve"/>
      <point x="46" y="25"/>
      <point x="76" y="-7"/>
      <point x="114" y="-7" type="curve"/>
      <point x="163" y="-7"/>
      <point x="218" y="28"/>
    </contour>
  </outline>
</glyph>
<glyph name="quotedbl" format="1">
  <advance width="411"/>
  <unicode hex="0022"/>
  <outline>
    <contour>
      <point x="115" y="676" type="line"/>
      <point x="144" y="660"/>
      <point x="179" y="658"/>
      <point x="210" y="661" type="curve"/>
      <point x="282" y="822" type="line"/>
      <point x="297" y="912" type="line"/>
      <point x="267" y="925"/>
      <point x="217" y="925"/>
      <point x="161" y="912" type="curve"/>
    </contour>
    <contour>
      <point x="304" y="676" type="line"/>
      <point x="330" y="660"/>
      <point x="362" y="658"/>
      <point x="390" y="661" type="curve"/>
      <point x="470" y="822" type="line"/>
      <point x="483" y="912" type="line"/>
      <point x="455" y="925"/>
      <point x="403" y="925"/>
      <point x="349" y="912" type="curve"/>
    </contour>
  </outline>
</glyph>
<glyph name="numbersign" format="1">
  <advance width="859"/>
  <unicode hex="0023"/>
  <outline>
    <contour>
      <point x="425" y="623" type="line"/>
      <point x="505" y="846" type="line"/>
      <point x="460" y="886"/>
      <point x="370" y="888"/>
      <point x="310" y="871" type="curve"/>
      <point x="225" y="436" type="line"/>
      <point x="127" y="0" type="line"/>
      <point x="172" y="-42"/>
      <point x="254" y="-46"/>
      <point x="306" y="-30" type="curve"/>
      <point x="337" y="265" type="line"/>
    </contour>
    <contour>
      <point x="738" y="623" type="line"/>
      <point x="817" y="846" type="line"/>
      <point x="773" y="886"/>
      <point x="683" y="888"/>
      <point x="624" y="871" type="curve"/>
      <point x="540" y="446" type="line"/>
      <point x="440" y="0" type="line"/>
      <point x="485" y="-42"/>
      <point x="567" y="-46"/>
      <point x="620" y="-30" type="curve"/>
      <point x="651" y="265" type="line"/>
    </contour>
    <contour>
      <point x="428" y="289" type="line"/>
      <point x="57" y="296" type="line"/>
      <point x="38" y="259"/>
      <point x="35" y="234"/>
      <point x="52" y="214" type="curve"/>
      <point x="788" y="226" type="line"/>
      <point x="813" y="265"/>
      <point x="816" y="297"/>
      <point x="796" y="311" type="curve"/>
    </contour>
    <contour>
      <point x="496" y="601" type="line"/>
      <point x="107" y="609" type="line"/>
      <point x="89" y="571"/>
      <point x="86" y="547"/>
      <point x="105" y="527" type="curve"/>
      <point x="858" y="538" type="line"/>
      <point x="883" y="579"/>
      <point x="884" y="610"/>
      <point x="866" y="623" type="curve"/>
    </contour>
  </outline>
</glyph>
<glyph name="dollar" format="1">
  <advance width="676"/>
  <unicode hex="0024"/>
  <outline>
    <contour>
      <point x="290" y="123" type="line"/>
      <point x="219" y="-93" type="line"/>
      <point x="234" y="-124"/>
      <point x="261" y="-139"/>
      <point x="294" y="-130" type="curve"/>
      <point x="424" y="639" type="line"/>
      <point x="500" y="842" type="line"/>
      <point x="485" y="872"/>
      <point x="461" y="883"/>
      <point x="428" y="872" type="curve"/>
    </contour>
    <component base="S"/>
  </outline>
</glyph>
<glyph name="percent" format="1">
  <advance width="882"/>
  <unicode hex="0025"/>
  <outline>
    <contour>
      <point x="249" y="756" type="curve" smooth="yes"/>
      <point x="157" y="756"/>
      <point x="97" y="667"/>
      <point x="78" y="542" type="curve" smooth="yes"/>
      <point x="56" y="404"/>
      <point x="131" y="322"/>
      <point x="210" y="322" type="curve" smooth="yes"/>
      <point x="319" y="322"/>
      <point x="391" y="407"/>
      <point x="411" y="543" type="curve" smooth="yes"/>
      <point x="426" y="648"/>
      <point x="360" y="756"/>
    </contour>
    <contour>
      <point x="250" y="683" type="curve"/>
      <point x="267" y="681"/>
      <point x="281" y="673"/>
      <point x="291" y="661" type="curve"/>
      <point x="294" y="635"/>
      <point x="293" y="592"/>
      <point x="283" y="539" type="curve" smooth="yes"/>
      <point x="269" y="467"/>
      <point x="251" y="415"/>
      <point x="235" y="387" type="curve"/>
      <point x="214" y="396"/>
      <point x="199" y="407"/>
      <point x="190" y="426" type="curve"/>
      <point x="189" y="454"/>
      <point x="192" y="487"/>
      <point x="203" y="540" type="curve" smooth="yes"/>
      <point x="216" y="605"/>
      <point x="227" y="642"/>
    </contour>
    <contour>
      <point x="684" y="423" type="curve" smooth="yes"/>
      <point x="592" y="422"/>
      <point x="532" y="334"/>
      <point x="513" y="208" type="curve" smooth="yes"/>
      <point x="490" y="71"/>
      <point x="566" y="-11"/>
      <point x="644" y="-11" type="curve" smooth="yes"/>
      <point x="754" y="-11"/>
      <point x="826" y="73"/>
      <point x="845" y="209" type="curve" smooth="yes"/>
      <point x="860" y="316"/>
      <point x="795" y="422"/>
    </contour>
    <contour>
      <point x="685" y="349" type="curve"/>
      <point x="702" y="347"/>
      <point x="716" y="339"/>
      <point x="726" y="327" type="curve"/>
      <point x="729" y="301"/>
      <point x="727" y="259"/>
      <point x="718" y="205" type="curve" smooth="yes"/>
      <point x="704" y="134"/>
      <point x="685" y="81"/>
      <point x="669" y="54" type="curve"/>
      <point x="649" y="62"/>
      <point x="634" y="74"/>
      <point x="624" y="91" type="curve"/>
      <point x="624" y="121"/>
      <point x="626" y="153"/>
      <point x="637" y="207" type="curve" smooth="yes"/>
      <point x="650" y="272"/>
      <point x="661" y="309"/>
    </contour>
    <component base="fraction" xOffset="143"/>
  </outline>
</glyph>
<glyph name="ampersand" format="1">
  <advance width="707"/>
  <unicode hex="0026"/>
  <outline>
    <contour>
      <point x="646" y="157" type="curve"/>
      <point x="666" y="231"/>
      <point x="629" y="289"/>
      <point x="556" y="276" type="curve"/>
      <point x="498" y="220"/>
      <point x="445" y="180"/>
      <point x="356" y="144" type="curve"/>
      <point x="310" y="165"/>
      <point x="270" y="193"/>
      <point x="258" y="233" type="curve"/>
      <point x="317" y="295"/>
      <point x="403" y="327"/>
      <point x="502" y="342" type="curve"/>
      <point x="524" y="398"/>
      <point x="517" y="440"/>
      <point x="471" y="454" type="curve"/>
      <point x="452" y="443"/>
      <point x="419" y="435"/>
      <point x="387" y="432" type="curve"/>
      <point x="345" y="445"/>
      <point x="307" y="466"/>
      <point x="289" y="508" type="curve"/>
      <point x="339" y="559"/>
      <point x="389" y="594"/>
      <point x="472" y="604" type="curve"/>
      <point x="536" y="512" type="line"/>
      <point x="635" y="538"/>
      <point x="662" y="567"/>
      <point x="639" y="636" type="curve"/>
      <point x="597" y="670"/>
      <point x="547" y="703"/>
      <point x="468" y="703" type="curve" smooth="yes"/>
      <point x="305" y="703"/>
      <point x="156" y="620"/>
      <point x="98" y="505" type="curve"/>
      <point x="112" y="442"/>
      <point x="187" y="394"/>
      <point x="281" y="387" type="curve"/>
      <point x="177" y="365"/>
      <point x="111" y="299"/>
      <point x="75" y="218" type="curve"/>
      <point x="109" y="125"/>
      <point x="195" y="76"/>
      <point x="333" y="46" type="curve"/>
      <point x="484" y="67"/>
      <point x="552" y="100"/>
    </contour>
    <contour>
      <point x="521" y="758" type="curve"/>
      <point x="577" y="954" type="line"/>
      <point x="531" y="994"/>
      <point x="476" y="991"/>
      <point x="393" y="944" type="curve"/>
      <point x="394" y="773" type="line"/>
      <point x="419" y="744"/>
      <point x="462" y="743"/>
    </contour>
    <contour>
      <point x="300" y="-9" type="curve"/>
      <point x="244" y="-205" type="line"/>
      <point x="290" y="-245"/>
      <point x="345" y="-241"/>
      <point x="427" y="-195" type="curve"/>
      <point x="426" y="-25" type="line"/>
      <point x="402" y="5"/>
      <point x="358" y="6"/>
    </contour>
  </outline>
</glyph>
<glyph name="quotesingle" format="1">
  <advance width="215"/>
  <unicode hex="0027"/>
  <outline>
    <contour>
      <point x="108" y="676" type="line"/>
      <point x="137" y="660"/>
      <point x="172" y="658"/>
      <point x="203" y="661" type="curve"/>
      <point x="275" y="822" type="line"/>
      <point x="290" y="912" type="line"/>
      <point x="260" y="925"/>
      <point x="210" y="925"/>
      <point x="154" y="912" type="curve"/>
    </contour>
  </outline>
</glyph>
<glyph name="parenleft" format="1">
  <advance width="598"/>
  <unicode hex="0028"/>
  <outline>
    <contour>
      <point x="495" y="753" type="curve"/>
      <point x="638" y="852" type="line"/>
      <point x="637" y="895"/>
      <point x="603" y="929"/>
      <point x="551" y="924" type="curve"/>
      <point x="348" y="815"/>
      <point x="197" y="640"/>
      <point x="175" y="398" type="curve" smooth="yes"/>
      <point x="156" y="185"/>
      <point x="269" y="2"/>
      <point x="379" y="-97" type="curve"/>
      <point x="428" y="-106"/>
      <point x="464" y="-85"/>
      <point x="480" y="-55" type="curve"/>
      <point x="386" y="61"/>
      <point x="341" y="193"/>
      <point x="360" y="380" type="curve" smooth="yes"/>
      <point x="375" y="511"/>
      <point x="417" y="646"/>
    </contour>
  </outline>
</glyph>
<glyph name="parenright" format="1">
  <advance width="598"/>
  <unicode hex="0029"/>
  <outline>
    <contour>
      <point x="97" y="-99" type="curve"/>
      <point x="299" y="11"/>
      <point x="451" y="187"/>
      <point x="473" y="428" type="curve" smooth="yes"/>
      <point x="493" y="642"/>
      <point x="379" y="825"/>
      <point x="269" y="924" type="curve"/>
      <point x="219" y="931"/>
      <point x="185" y="912"/>
      <point x="168" y="881" type="curve"/>
      <point x="263" y="767"/>
      <point x="308" y="635"/>
      <point x="287" y="446" type="curve" smooth="yes"/>
      <point x="273" y="317"/>
      <point x="231" y="182"/>
      <point x="152" y="73" type="curve"/>
      <point x="10" y="-27" type="line"/>
      <point x="12" y="-68"/>
      <point x="45" y="-103"/>
    </contour>
  </outline>
</glyph>
<glyph name="asterisk" format="1">
  <advance width="403"/>
  <unicode hex="002A"/>
  <outline>
    <contour>
      <point x="303" y="773" type="line"/>
      <point x="449" y="746" type="line"/>
      <point x="461" y="773"/>
      <point x="463" y="799"/>
      <point x="458" y="824" type="curve"/>
      <point x="305" y="798" type="line"/>
      <point x="348" y="946" type="line"/>
      <point x="324" y="953"/>
      <point x="297" y="953"/>
      <point x="270" y="946" type="curve"/>
      <point x="280" y="798" type="line"/>
      <point x="135" y="824" type="line"/>
      <point x="122" y="798"/>
      <point x="120" y="771"/>
      <point x="126" y="746" type="curve"/>
      <point x="278" y="773" type="line"/>
      <point x="236" y="624" type="line"/>
      <point x="263" y="616"/>
      <point x="290" y="616"/>
      <point x="313" y="624" type="curve"/>
    </contour>
    <contour>
      <point x="310" y="785" type="line"/>
      <point x="441" y="872" type="line"/>
      <point x="432" y="895"/>
      <point x="417" y="913"/>
      <point x="393" y="927" type="curve"/>
      <point x="294" y="804" type="line"/>
      <point x="220" y="926" type="line"/>
      <point x="194" y="914"/>
      <point x="175" y="896"/>
      <point x="160" y="872" type="curve"/>
      <point x="273" y="785" type="line"/>
      <point x="142" y="699" type="line"/>
      <point x="152" y="673"/>
      <point x="167" y="656"/>
      <point x="190" y="644" type="curve"/>
      <point x="290" y="766" type="line"/>
      <point x="363" y="644" type="line"/>
      <point x="391" y="654"/>
      <point x="410" y="671"/>
      <point x="424" y="698" type="curve"/>
    </contour>
  </outline>
</glyph>
<glyph name="plus" format="1">
  <advance width="743"/>
  <unicode hex="002B"/>
  <outline>
    <contour>
      <point x="423" y="382" type="line"/>
      <point x="464" y="599" type="line"/>
      <point x="433" y="636"/>
      <point x="392" y="649"/>
      <point x="377" y="633" type="curve"/>
      <point x="341" y="381" type="line"/>
      <point x="112" y="392" type="line"/>
      <point x="87" y="358"/>
      <point x="82" y="322"/>
      <point x="96" y="303" type="curve"/>
      <point x="326" y="302" type="line"/>
      <point x="277" y="81" type="line"/>
      <point x="305" y="51"/>
      <point x="341" y="40"/>
      <point x="361" y="52" type="curve"/>
      <point x="408" y="301" type="line"/>
      <point x="653" y="299" type="line"/>
      <point x="684" y="336"/>
      <point x="690" y="379"/>
      <point x="672" y="392" type="curve"/>
    </contour>
  </outline>
</glyph>
<glyph name="comma" format="1">
  <advance width="288"/>
  <unicode hex="002C"/>
  <outline>
    <contour>
      <point x="203" y="57" type="curve"/>
      <point x="192" y="111"/>
      <point x="120" y="175"/>
      <point x="26" y="122" type="curve"/>
      <point x="23" y="-48" type="line"/>
      <point x="-56" y="-136" type="line"/>
      <point x="-51" y="-161"/>
      <point x="-31" y="-176"/>
      <point x="3" y="-182" type="curve"/>
      <point x="116" y="-119"/>
      <point x="184" y="-33"/>
    </contour>
  </outline>
</glyph>
<glyph name="hyphen" format="1">
  <advance width="562"/>
  <unicode hex="002D"/>
  <outline>
    <contour>
      <point x="513" y="390" type="curve"/>
      <point x="277" y="372" type="line"/>
      <point x="84" y="376" type="line"/>
      <point x="61" y="343"/>
      <point x="56" y="306"/>
      <point x="71" y="288" type="curve"/>
      <point x="496" y="298" type="line"/>
      <point x="526" y="335"/>
      <point x="531" y="379"/>
    </contour>
  </outline>
</glyph>
<glyph name="period" format="1">
  <advance width="299"/>
  <unicode hex="002E"/>
  <outline>
    <contour>
      <point x="81" y="0" type="curve"/>
      <point x="128" y="0"/>
      <point x="180" y="31"/>
      <point x="216" y="82" type="curve"/>
      <point x="210" y="134"/>
      <point x="165" y="192"/>
      <point x="127" y="192" type="curve"/>
      <point x="72" y="185"/>
      <point x="23" y="128"/>
      <point x="12" y="69" type="curve"/>
      <point x="15" y="28"/>
      <point x="44" y="0"/>
    </contour>
  </outline>
</glyph>
<glyph name="zero" format="1">
  <advance width="646"/>
  <unicode hex="0030"/>
  <outline>
    <contour>
      <point x="354" y="742" type="curve" smooth="yes"/>
      <point x="197" y="743"/>
      <point x="95" y="590"/>
      <point x="60" y="375" type="curve" smooth="yes"/>
      <point x="23" y="141"/>
      <point x="152" y="-1"/>
      <point x="287" y="-1" type="curve" smooth="yes"/>
      <point x="474" y="-1"/>
      <point x="597" y="144"/>
      <point x="630" y="377" type="curve" smooth="yes"/>
      <point x="656" y="559"/>
      <point x="545" y="741"/>
    </contour>
    <contour>
      <point x="357" y="651" type="curve"/>
      <point x="393" y="645"/>
      <point x="422" y="631"/>
      <point x="442" y="605" type="curve"/>
      <point x="449" y="557"/>
      <point x="448" y="473"/>
      <point x="428" y="371" type="curve" smooth="yes"/>
      <point x="402" y="233"/>
      <point x="364" y="133"/>
      <point x="329" y="79" type="curve"/>
      <point x="289" y="94"/>
      <point x="255" y="118"/>
      <point x="235" y="152" type="curve"/>
      <point x="233" y="207"/>
      <point x="240" y="270"/>
      <point x="260" y="374" type="curve" smooth="yes"/>
      <point x="287" y="500"/>
      <point x="309" y="571"/>
    </contour>
  </outline>
</glyph>
<glyph name="one" format="1">
  <advance width="393"/>
  <unicode hex="0031"/>
  <outline>
    <contour>
      <point x="349" y="541" type="line"/>
      <point x="412" y="708" type="line"/>
      <point x="361" y="763"/>
      <point x="245" y="770"/>
      <point x="168" y="751" type="curve"/>
      <point x="51" y="558" type="line"/>
      <point x="70" y="530"/>
      <point x="101" y="516"/>
      <point x="133" y="522" type="curve"/>
      <point x="188" y="589" type="line"/>
      <point x="205" y="580" type="line"/>
      <point x="165" y="507" type="line"/>
      <point x="60" y="29" type="line"/>
      <point x="122" y="-8"/>
      <point x="173" y="-14"/>
      <point x="257" y="-1" type="curve"/>
      <point x="271" y="180" type="line"/>
    </contour>
  </outline>
</glyph>
<glyph name="two" format="1">
  <advance width="554"/>
  <unicode hex="0032"/>
  <outline>
    <contour>
      <point x="400" y="277" type="line"/>
      <point x="485" y="347"/>
      <point x="533" y="414"/>
      <point x="533" y="478" type="curve" smooth="yes"/>
      <point x="533" y="596"/>
      <point x="405" y="767"/>
      <point x="298" y="767" type="curve" smooth="yes"/>
      <point x="203" y="767"/>
      <point x="101" y="696"/>
      <point x="49" y="595" type="curve"/>
      <point x="72" y="548"/>
      <point x="118" y="495"/>
      <point x="156" y="463" type="curve"/>
      <point x="173" y="466"/>
      <point x="220" y="489"/>
      <point x="230" y="506" type="curve"/>
      <point x="205" y="567" type="line"/>
      <point x="231" y="603"/>
      <point x="269" y="628"/>
      <point x="304" y="628" type="curve" smooth="yes"/>
      <point x="348" y="628"/>
      <point x="382" y="586"/>
      <point x="401" y="529" type="curve"/>
      <point x="380" y="484"/>
      <point x="352" y="448"/>
      <point x="307" y="405" type="curve" smooth="yes"/>
      <point x="9" y="136" type="line"/>
      <point x="5" y="77"/>
      <point x="52" y="25"/>
      <point x="93" y="-2" type="curve"/>
      <point x="196" y="19" type="line"/>
      <point x="458" y="-19" type="line"/>
      <point x="512" y="55"/>
      <point x="533" y="117"/>
      <point x="504" y="153" type="curve"/>
      <point x="214" y="108" type="line"/>
      <point x="205" y="116" type="line"/>
    </contour>
  </outline>
</glyph>
<glyph name="three" format="1">
  <advance width="579"/>
  <unicode hex="0033"/>
  <outline>
    <contour>
      <point x="468" y="430" type="line"/>
      <point x="538" y="459"/>
      <point x="564" y="496"/>
      <point x="565" y="545" type="curve" smooth="yes"/>
      <point x="565" y="642"/>
      <point x="426" y="767"/>
      <point x="308" y="767" type="curve" smooth="yes"/>
      <point x="203" y="767"/>
      <point x="101" y="696"/>
      <point x="43" y="595" type="curve"/>
      <point x="65" y="548"/>
      <point x="112" y="495"/>
      <point x="149" y="463" type="curve"/>
      <point x="165" y="466"/>
      <point x="213" y="489"/>
      <point x="223" y="506" type="curve"/>
      <point x="198" y="569" type="line"/>
      <point x="221" y="594"/>
      <point x="252" y="615"/>
      <point x="292" y="615" type="curve" smooth="yes"/>
      <point x="338" y="615"/>
      <point x="387" y="580"/>
      <point x="404" y="520" type="curve"/>
      <point x="227" y="389" type="line"/>
      <point x="217" y="334" type="line"/>
      <point x="302" y="308"/>
      <point x="354" y="284"/>
      <point x="382" y="246" type="curve"/>
      <point x="315" y="190"/>
      <point x="216" y="152"/>
      <point x="29" y="115" type="curve"/>
      <point x="20" y="84"/>
      <point x="29" y="26"/>
      <point x="68" y="-2" type="curve"/>
      <point x="328" y="16"/>
      <point x="544" y="105"/>
      <point x="553" y="227" type="curve" smooth="yes"/>
      <point x="561" y="315"/>
      <point x="451" y="366"/>
      <point x="339" y="407" type="curve"/>
      <point x="321" y="366" type="line"/>
    </contour>
  </outline>
</glyph>
<glyph name="four" format="1">
  <advance width="660"/>
  <unicode hex="0034"/>
  <outline>
    <contour>
      <point x="645" y="672" type="line"/>
      <point x="608" y="724"/>
      <point x="543" y="755"/>
      <point x="448" y="755" type="curve" smooth="yes"/>
      <point x="424" y="755"/>
      <point x="397" y="752"/>
      <point x="367" y="748" type="curve"/>
      <point x="7" y="259" type="line"/>
      <point x="3" y="220"/>
      <point x="18" y="190"/>
      <point x="48" y="168" type="curve"/>
      <point x="309" y="183" type="line"/>
      <point x="620" y="170" type="line"/>
      <point x="645" y="194"/>
      <point x="650" y="241"/>
      <point x="636" y="273" type="curve"/>
      <point x="278" y="259" type="line"/>
      <point x="211" y="261" type="line"/>
      <point x="356" y="501" type="line"/>
      <point x="456" y="655" type="line"/>
      <point x="467" y="650" type="line"/>
      <point x="380" y="366" type="line"/>
      <point x="302" y="31" type="line"/>
      <point x="350" y="-11"/>
      <point x="444" y="-17"/>
      <point x="500" y="0" type="curve"/>
      <point x="516" y="198" type="line"/>
      <point x="585" y="527" type="line"/>
    </contour>
  </outline>
</glyph>
<glyph name="five" format="1">
  <advance width="557"/>
  <unicode hex="0035"/>
  <outline>
    <contour>
      <point x="289" y="716" type="line"/>
      <point x="185" y="743" type="line" smooth="yes"/>
      <point x="141" y="728"/>
      <point x="120" y="709"/>
      <point x="110" y="624" type="curve" smooth="yes"/>
      <point x="93" y="508" type="line" smooth="yes"/>
      <point x="84" y="429"/>
      <point x="108" y="391"/>
      <point x="179" y="369" type="curve" smooth="yes"/>
      <point x="265" y="344" type="line" smooth="yes"/>
      <point x="337" y="322"/>
      <point x="361" y="300"/>
      <point x="377" y="262" type="curve"/>
      <point x="363" y="204"/>
      <point x="339" y="160"/>
      <point x="294" y="122" type="curve"/>
      <point x="83" y="216" type="line"/>
      <point x="41" y="200"/>
      <point x="11" y="139"/>
      <point x="20" y="43" type="curve"/>
      <point x="89" y="11"/>
      <point x="159" y="-5"/>
      <point x="220" y="-5" type="curve" smooth="yes"/>
      <point x="363" y="-5"/>
      <point x="505" y="148"/>
      <point x="515" y="285" type="curve" smooth="yes"/>
      <point x="522" y="384"/>
      <point x="472" y="440"/>
      <point x="329" y="459" type="curve" smooth="yes"/>
      <point x="221" y="471" type="line"/>
      <point x="289" y="629" type="line"/>
      <point x="519" y="597" type="line"/>
      <point x="549" y="632"/>
      <point x="579" y="692"/>
      <point x="520" y="767" type="curve" smooth="yes"/>
    </contour>
  </outline>
</glyph>
<glyph name="six" format="1">
  <advance width="619"/>
  <unicode hex="0036"/>
  <outline>
    <contour>
      <point x="570" y="752" type="curve"/>
      <point x="255" y="752"/>
      <point x="69" y="603"/>
      <point x="33" y="356" type="curve" smooth="yes"/>
      <point x="-1" y="112"/>
      <point x="148" y="-5"/>
      <point x="282" y="-3" type="curve" smooth="yes"/>
      <point x="423" y="-1"/>
      <point x="572" y="160"/>
      <point x="591" y="307" type="curve" smooth="yes"/>
      <point x="608" y="427"/>
      <point x="551" y="496"/>
      <point x="454" y="496" type="curve" smooth="yes"/>
      <point x="337" y="496"/>
      <point x="224" y="366"/>
      <point x="173" y="112" type="curve"/>
      <point x="226" y="115" type="line"/>
      <point x="256" y="221"/>
      <point x="315" y="335"/>
      <point x="378" y="371" type="curve"/>
      <point x="415" y="363"/>
      <point x="418" y="319"/>
      <point x="408" y="263" type="curve" smooth="yes"/>
      <point x="395" y="195"/>
      <point x="335" y="113"/>
      <point x="290" y="111" type="curve" smooth="yes"/>
      <point x="232" y="110"/>
      <point x="183" y="154"/>
      <point x="199" y="284" type="curve"/>
      <point x="214" y="429"/>
      <point x="248" y="511"/>
      <point x="322" y="593" type="curve"/>
      <point x="386" y="614"/>
      <point x="486" y="620"/>
      <point x="564" y="613" type="curve"/>
      <point x="596" y="663"/>
      <point x="603" y="730"/>
    </contour>
  </outline>
</glyph>
<glyph name="seven" format="1">
  <advance width="557"/>
  <unicode hex="0037"/>
  <outline>
    <contour>
      <point x="506" y="745" type="curve"/>
      <point x="403" y="717" type="line"/>
      <point x="131" y="760" type="line"/>
      <point x="74" y="705"/>
      <point x="53" y="629"/>
      <point x="81" y="590" type="curve"/>
      <point x="392" y="608" type="line"/>
      <point x="400" y="597" type="line"/>
      <point x="297" y="469" type="line"/>
      <point x="67" y="35" type="line"/>
      <point x="95" y="-6"/>
      <point x="168" y="-19"/>
      <point x="225" y="2" type="curve"/>
      <point x="575" y="606" type="line" smooth="yes"/>
      <point x="618" y="680"/>
      <point x="557" y="725"/>
    </contour>
  </outline>
</glyph>
<glyph name="eight" format="1">
  <advance width="619"/>
  <unicode hex="0038"/>
  <outline>
    <contour>
      <point x="402" y="389" type="line"/>
      <point x="563" y="473"/>
      <point x="631" y="525"/>
      <point x="630" y="596" type="curve" smooth="yes"/>
      <point x="628" y="673"/>
      <point x="537" y="764"/>
      <point x="437" y="767" type="curve" smooth="yes"/>
      <point x="269" y="770"/>
      <point x="100" y="671"/>
      <point x="96" y="545" type="curve" smooth="yes"/>
      <point x="90" y="401"/>
      <point x="398" y="329"/>
      <point x="412" y="202" type="curve"/>
      <point x="403" y="168"/>
      <point x="382" y="128"/>
      <point x="351" y="103" type="curve"/>
      <point x="274" y="100"/>
      <point x="228" y="132"/>
      <point x="214" y="194" type="curve"/>
      <point x="245" y="248"/>
      <point x="287" y="300"/>
      <point x="345" y="347" type="curve"/>
      <point x="294" y="393" type="line"/>
      <point x="115" y="308"/>
      <point x="40" y="248"/>
      <point x="35" y="167" type="curve" smooth="yes"/>
      <point x="30" y="77"/>
      <point x="125" y="0"/>
      <point x="263" y="-4" type="curve" smooth="yes"/>
      <point x="401" y="-10"/>
      <point x="578" y="103"/>
      <point x="582" y="241" type="curve" smooth="yes"/>
      <point x="586" y="414"/>
      <point x="320" y="456"/>
      <point x="283" y="564" type="curve"/>
      <point x="306" y="606"/>
      <point x="351" y="641"/>
      <point x="391" y="657" type="curve"/>
      <point x="436" y="636"/>
      <point x="467" y="598"/>
      <point x="472" y="539" type="curve"/>
      <point x="430" y="495"/>
      <point x="391" y="463"/>
      <point x="345" y="432" type="curve"/>
    </contour>
  </outline>
</glyph>
<glyph name="nine" format="1">
  <advance width="623"/>
  <unicode hex="0039"/>
  <outline>
    <contour>
      <point x="164" y="-11" type="curve"/>
      <point x="437" y="36"/>
      <point x="578" y="182"/>
      <point x="606" y="405" type="curve" smooth="yes"/>
      <point x="636" y="632"/>
      <point x="504" y="766"/>
      <point x="367" y="766" type="curve" smooth="yes"/>
      <point x="219" y="766"/>
      <point x="69" y="611"/>
      <point x="49" y="456" type="curve" smooth="yes"/>
      <point x="33" y="339"/>
      <point x="95" y="265"/>
      <point x="186" y="265" type="curve" smooth="yes"/>
      <point x="303" y="265"/>
      <point x="418" y="396"/>
      <point x="466" y="650" type="curve"/>
      <point x="414" y="647" type="line"/>
      <point x="384" y="541"/>
      <point x="326" y="427"/>
      <point x="262" y="389" type="curve"/>
      <point x="226" y="398"/>
      <point x="224" y="442"/>
      <point x="231" y="491" type="curve" smooth="yes"/>
      <point x="244" y="567"/>
      <point x="309" y="645"/>
      <point x="355" y="650" type="curve"/>
      <point x="403" y="644"/>
      <point x="457" y="607"/>
      <point x="441" y="467" type="curve" smooth="yes"/>
      <point x="432" y="355"/>
      <point x="392" y="245"/>
      <point x="331" y="174" type="curve"/>
      <point x="267" y="144"/>
      <point x="190" y="129"/>
      <point x="111" y="123" type="curve"/>
      <point x="87" y="77"/>
      <point x="129" y="10"/>
    </contour>
  </outline>
</glyph>
<glyph name="colon" format="1">
  <advance width="303"/>
  <unicode hex="003A"/>
  <outline>
    <contour>
      <point x="85" y="0" type="curve"/>
      <point x="133" y="0"/>
      <point x="184" y="31"/>
      <point x="220" y="82" type="curve"/>
      <point x="215" y="134"/>
      <point x="169" y="192"/>
      <point x="131" y="192" type="curve"/>
      <point x="76" y="185"/>
      <point x="28" y="128"/>
      <point x="15" y="69" type="curve"/>
      <point x="20" y="28"/>
      <point x="48" y="0"/>
    </contour>
    <contour>
      <point x="144" y="347" type="curve"/>
      <point x="191" y="347"/>
      <point x="242" y="378"/>
      <point x="278" y="428" type="curve"/>
      <point x="273" y="480"/>
      <point x="227" y="539"/>
      <point x="189" y="539" type="curve"/>
      <point x="134" y="531"/>
      <point x="86" y="474"/>
      <point x="74" y="415" type="curve"/>
      <point x="78" y="375"/>
      <point x="107" y="347"/>
    </contour>
  </outline>
</glyph>
<glyph name="semicolon" format="1">
  <advance width="302"/>
  <unicode hex="003B"/>
  <outline>
    <contour>
      <point x="144" y="347" type="curve"/>
      <point x="191" y="347"/>
      <point x="242" y="378"/>
      <point x="278" y="428" type="curve"/>
      <point x="273" y="480"/>
      <point x="227" y="539"/>
      <point x="189" y="539" type="curve"/>
      <point x="134" y="531"/>
      <point x="86" y="474"/>
      <point x="74" y="415" type="curve"/>
      <point x="78" y="375"/>
      <point x="107" y="347"/>
    </contour>
    <contour>
      <point x="214" y="57" type="curve"/>
      <point x="203" y="111"/>
      <point x="131" y="175"/>
      <point x="37" y="122" type="curve"/>
      <point x="34" y="-48" type="line"/>
      <point x="-45" y="-136" type="line"/>
      <point x="-40" y="-161"/>
      <point x="-20" y="-176"/>
      <point x="14" y="-182" type="curve"/>
      <point x="126" y="-119"/>
      <point x="195" y="-33"/>
    </contour>
  </outline>
</glyph>
<glyph name="less" format="1">
  <advance width="604"/>
  <unicode hex="003C"/>
  <outline>
    <contour>
      <point x="393" y="433" type="line"/>
      <point x="563" y="496" type="line"/>
      <point x="585" y="544"/>
      <point x="572" y="589"/>
      <point x="547" y="602" type="curve"/>
      <point x="83" y="392" type="line"/>
      <point x="69" y="369"/>
      <point x="65" y="347"/>
      <point x="71" y="322" type="curve"/>
      <point x="274" y="216" type="line"/>
      <point x="469" y="99" type="line"/>
      <point x="502" y="117"/>
      <point x="523" y="140"/>
      <point x="518" y="184" type="curve"/>
      <point x="208" y="351" type="line"/>
    </contour>
  </outline>
</glyph>
<glyph name="equal" format="1">
  <advance width="674"/>
  <unicode hex="003D"/>
  <outline>
    <contour>
      <point x="641" y="490" type="curve"/>
      <point x="372" y="471" type="line"/>
      <point x="104" y="477" type="line"/>
      <point x="79" y="444"/>
      <point x="75" y="406"/>
      <point x="90" y="389" type="curve"/>
      <point x="625" y="398" type="line"/>
      <point x="655" y="436"/>
      <point x="659" y="479"/>
    </contour>
    <contour>
      <point x="608" y="305" type="curve"/>
      <point x="339" y="286" type="line"/>
      <point x="70" y="291" type="line"/>
      <point x="46" y="258"/>
      <point x="42" y="220"/>
      <point x="57" y="203" type="curve"/>
      <point x="591" y="213" type="line"/>
      <point x="622" y="250"/>
      <point x="626" y="294"/>
    </contour>
  </outline>
</glyph>
<glyph name="greater" format="1">
  <advance width="604"/>
  <unicode hex="003E"/>
  <outline>
    <contour>
      <point x="112" y="517" type="curve"/>
      <point x="264" y="444" type="line"/>
      <point x="422" y="350" type="line"/>
      <point x="67" y="205" type="line"/>
      <point x="44" y="158"/>
      <point x="59" y="112"/>
      <point x="83" y="99" type="curve"/>
      <point x="306" y="206" type="line"/>
      <point x="547" y="310" type="line"/>
      <point x="561" y="333"/>
      <point x="566" y="355"/>
      <point x="559" y="380" type="curve"/>
      <point x="161" y="602" type="line"/>
      <point x="129" y="584"/>
      <point x="108" y="561"/>
    </contour>
  </outline>
</glyph>
<glyph name="question" format="1">
  <advance width="758"/>
  <unicode hex="003F"/>
  <outline>
    <contour>
      <point x="348" y="378" type="line"/>
      <point x="559" y="430"/>
      <point x="699" y="516"/>
      <point x="737" y="651" type="curve" smooth="yes"/>
      <point x="774" y="780"/>
      <point x="687" y="910"/>
      <point x="560" y="910" type="curve" smooth="yes"/>
      <point x="455" y="910"/>
      <point x="326" y="869"/>
      <point x="188" y="793" type="curve"/>
      <point x="164" y="693"/>
      <point x="199" y="574"/>
      <point x="250" y="574" type="curve" smooth="yes"/>
      <point x="262" y="574"/>
      <point x="277" y="579"/>
      <point x="297" y="587" type="curve"/>
      <point x="295" y="663" type="line"/>
      <point x="383" y="717"/>
      <point x="501" y="759"/>
      <point x="608" y="764" type="curve"/>
      <point x="625" y="746"/>
      <point x="629" y="723"/>
      <point x="621" y="696" type="curve" smooth="yes"/>
      <point x="598" y="620"/>
      <point x="446" y="535"/>
      <point x="298" y="516" type="curve"/>
      <point x="261" y="496"/>
      <point x="227" y="455"/>
      <point x="206" y="414" type="curve"/>
      <point x="244" y="250" type="line" smooth="yes"/>
      <point x="249" y="228"/>
      <point x="288" y="227"/>
      <point x="323" y="240" type="curve"/>
    </contour>
    <contour>
      <point x="240" y="-7" type="curve" smooth="yes"/>
      <point x="290" y="-7"/>
      <point x="344" y="28"/>
      <point x="384" y="79" type="curve"/>
      <point x="378" y="134"/>
      <point x="330" y="196"/>
      <point x="290" y="196" type="curve"/>
      <point x="233" y="188"/>
      <point x="182" y="128"/>
      <point x="169" y="67" type="curve"/>
      <point x="172" y="25"/>
      <point x="202" y="-7"/>
    </contour>
  </outline>
</glyph>
<glyph name="at" format="1">
  <advance width="1170"/>
  <unicode hex="0040"/>
  <outline>
    <contour>
      <point x="732" y="274" type="line"/>
      <point x="678" y="230"/>
      <point x="613" y="178"/>
      <point x="554" y="132" type="curve"/>
      <point x="524" y="151"/>
      <point x="512" y="183"/>
      <point x="512" y="222" type="curve" smooth="yes"/>
      <point x="512" y="312"/>
      <point x="568" y="407"/>
      <point x="665" y="453" type="curve"/>
      <point x="700" y="431"/>
      <point x="727" y="398"/>
      <point x="748" y="357" type="curve"/>
      <point x="796" y="390" type="line"/>
      <point x="772" y="445"/>
      <point x="727" y="520"/>
      <point x="676" y="555" type="curve"/>
      <point x="460" y="550"/>
      <point x="317" y="368"/>
      <point x="317" y="217" type="curve" smooth="yes"/>
      <point x="318" y="109"/>
      <point x="386" y="21"/>
      <point x="553" y="14" type="curve"/>
      <point x="626" y="89"/>
      <point x="722" y="179"/>
      <point x="768" y="227" type="curve"/>
    </contour>
    <contour>
      <point x="518" y="-144" type="curve"/>
      <point x="293" y="-95"/>
      <point x="193" y="49"/>
      <point x="193" y="239" type="curve" smooth="yes"/>
      <point x="193" y="471"/>
      <point x="442" y="700"/>
      <point x="716" y="730" type="curve"/>
      <point x="917" y="690"/>
      <point x="1041" y="606"/>
      <point x="1062" y="389" type="curve"/>
      <point x="1027" y="258"/>
      <point x="944" y="172"/>
      <point x="811" y="85" type="curve"/>
      <point x="845" y="85" type="line"/>
      <point x="853" y="169"/>
      <point x="861" y="257"/>
      <point x="879" y="338" type="curve"/>
      <point x="971" y="504" type="line"/>
      <point x="948" y="559"/>
      <point x="896" y="569"/>
      <point x="783" y="550" type="curve"/>
      <point x="766" y="522"/>
      <point x="762" y="488"/>
      <point x="764" y="440" type="curve"/>
      <point x="741" y="357" type="line"/>
      <point x="725" y="274" type="line"/>
      <point x="704" y="176" type="line"/>
      <point x="723" y="166" type="line"/>
      <point x="704" y="107"/>
      <point x="718" y="49"/>
      <point x="818" y="15" type="curve"/>
      <point x="1003" y="86"/>
      <point x="1159" y="258"/>
      <point x="1159" y="406" type="curve" smooth="yes"/>
      <point x="1159" y="634"/>
      <point x="953" y="814"/>
      <point x="725" y="814" type="curve" smooth="yes"/>
      <point x="383" y="814"/>
      <point x="34" y="555"/>
      <point x="34" y="237" type="curve" smooth="yes"/>
      <point x="34" y="-12"/>
      <point x="247" y="-193"/>
      <point x="525" y="-228" type="curve"/>
      <point x="628" y="-208"/>
      <point x="727" y="-171"/>
      <point x="797" y="-122" type="curve"/>
      <point x="802" y="-65"/>
      <point x="780" y="-36"/>
      <point x="708" y="-30" type="curve"/>
      <point x="671" y="-69"/>
      <point x="600" y="-113"/>
    </contour>
  </outline>
</glyph>
<glyph name="A" format="1">
  <advance width="731"/>
  <unicode hex="0041"/>
  <outline>
    <contour>
      <point x="469" y="766" type="move" name="top"/>
    </contour>
    <contour>
      <point x="594" y="0" type="move" name="ogonek"/>
    </contour>
    <contour>
      <point x="449" y="340" type="line"/>
      <point x="50" y="336" type="line"/>
      <point x="19" y="296"/>
      <point x="19" y="269"/>
      <point x="46" y="241" type="curve"/>
      <point x="313" y="267" type="line"/>
      <point x="711" y="293" type="line"/>
      <point x="738" y="336"/>
      <point x="739" y="367"/>
      <point x="716" y="387" type="curve"/>
    </contour>
    <contour>
      <point x="636" y="20" type="curve"/>
      <point x="586" y="558" type="line"/>
      <point x="608" y="725" type="line"/>
      <point x="559" y="750"/>
      <point x="427" y="761"/>
      <point x="305" y="708" type="curve"/>
      <point x="238" y="489" type="line"/>
      <point x="7" y="43" type="line"/>
      <point x="30" y="3"/>
      <point x="144" y="-15"/>
      <point x="206" y="20" type="curve"/>
      <point x="426" y="616" type="line"/>
      <point x="440" y="619" type="line"/>
      <point x="449" y="333" type="line"/>
      <point x="410" y="39" type="line"/>
      <point x="470" y="-4"/>
      <point x="592" y="-14"/>
    </contour>
  </outline>
</glyph>
<glyph name="B" format="1">
  <advance width="703"/>
  <unicode hex="0042"/>
  <outline>
    <contour>
      <point x="495" y="537" type="curve" smooth="yes"/>
      <point x="491" y="488"/>
      <point x="473" y="461"/>
      <point x="438" y="427" type="curve"/>
      <point x="398" y="408"/>
      <point x="359" y="404"/>
      <point x="305" y="405" type="curve"/>
      <point x="340" y="651" type="line"/>
      <point x="456" y="668"/>
      <point x="504" y="607"/>
    </contour>
    <contour>
      <point x="241" y="92" type="curve"/>
      <point x="293" y="335" type="line"/>
      <point x="371" y="342"/>
      <point x="413" y="331"/>
      <point x="456" y="309" type="curve"/>
      <point x="471" y="281"/>
      <point x="475" y="261"/>
      <point x="475" y="241" type="curve" smooth="yes"/>
      <point x="476" y="197"/>
      <point x="462" y="157"/>
      <point x="428" y="113" type="curve"/>
      <point x="370" y="95"/>
      <point x="302" y="86"/>
    </contour>
    <contour>
      <point x="525" y="386" type="line"/>
      <point x="630" y="429"/>
      <point x="683" y="482"/>
      <point x="684" y="570" type="curve" smooth="yes"/>
      <point x="686" y="662"/>
      <point x="588" y="746"/>
      <point x="373" y="746" type="curve" smooth="yes"/>
      <point x="304" y="746"/>
      <point x="180" y="735"/>
      <point x="113" y="715" type="curve"/>
      <point x="95" y="696"/>
      <point x="98" y="664"/>
      <point x="124" y="645" type="curve"/>
      <point x="170" y="647" type="line"/>
      <point x="176" y="485" type="line"/>
      <point x="152" y="365"/>
      <point x="114" y="249"/>
      <point x="63" y="111" type="curve"/>
      <point x="67" y="48"/>
      <point x="143" y="11"/>
      <point x="207" y="0" type="curve"/>
      <point x="365" y="-6"/>
      <point x="443" y="6"/>
      <point x="559" y="43" type="curve"/>
      <point x="642" y="119"/>
      <point x="666" y="180"/>
      <point x="666" y="245" type="curve" smooth="yes"/>
      <point x="667" y="277"/>
      <point x="658" y="306"/>
      <point x="634" y="335" type="curve"/>
      <point x="608" y="354"/>
      <point x="572" y="371"/>
      <point x="524" y="378" type="curve"/>
    </contour>
  </outline>
</glyph>
<glyph name="C" format="1">
  <advance width="682"/>
  <unicode hex="0043"/>
  <outline>
    <contour>
      <point x="426" y="766" type="move" name="top"/>
    </contour>
    <contour>
      <point x="392" y="0" type="move" name="bottom"/>
    </contour>
    <contour>
      <point x="440" y="666" type="line"/>
      <point x="474" y="628"/>
      <point x="481" y="558"/>
      <point x="484" y="500" type="curve"/>
      <point x="560" y="463"/>
      <point x="649" y="498"/>
      <point x="673" y="543" type="curve"/>
      <point x="661" y="636"/>
      <point x="611" y="717"/>
      <point x="495" y="759" type="curve"/>
      <point x="345" y="738"/>
      <point x="239" y="679"/>
      <point x="139" y="584" type="curve"/>
      <point x="83" y="492"/>
      <point x="52" y="415"/>
      <point x="50" y="326" type="curve" smooth="yes"/>
      <point x="49" y="160"/>
      <point x="151" y="35"/>
      <point x="359" y="0" type="curve"/>
      <point x="470" y="36"/>
      <point x="577" y="96"/>
      <point x="637" y="161" type="curve"/>
      <point x="639" y="204"/>
      <point x="621" y="237"/>
      <point x="570" y="232" type="curve"/>
      <point x="519" y="190"/>
      <point x="458" y="154"/>
      <point x="372" y="123" type="curve"/>
      <point x="282" y="166"/>
      <point x="238" y="228"/>
      <point x="239" y="341" type="curve" smooth="yes"/>
      <point x="239" y="452"/>
      <point x="306" y="582"/>
      <point x="420" y="661" type="curve"/>
    </contour>
  </outline>
</glyph>
<glyph name="D" format="1">
  <advance width="741"/>
  <unicode hex="0044"/>
  <outline>
    <contour>
      <point x="387" y="766" type="move" name="top"/>
    </contour>
    <contour>
      <point x="174" y="0" type="curve"/>
      <point x="318" y="-3"/>
      <point x="426" y="22"/>
      <point x="516" y="52" type="curve"/>
      <point x="652" y="143"/>
      <point x="736" y="270"/>
      <point x="737" y="417" type="curve" smooth="yes"/>
      <point x="738" y="609"/>
      <point x="621" y="748"/>
      <point x="387" y="748" type="curve" smooth="yes"/>
      <point x="302" y="748"/>
      <point x="185" y="732"/>
      <point x="106" y="704" type="curve"/>
      <point x="84" y="680"/>
      <point x="84" y="640"/>
      <point x="123" y="608" type="curve"/>
      <point x="166" y="614" type="line"/>
      <point x="163" y="465" type="line"/>
      <point x="134" y="332"/>
      <point x="97" y="238"/>
      <point x="44" y="112" type="curve"/>
      <point x="57" y="51"/>
      <point x="113" y="17"/>
    </contour>
    <contour>
      <point x="185" y="91" type="curve"/>
      <point x="242" y="63" type="line"/>
      <point x="277" y="331" type="line"/>
      <point x="317" y="464"/>
      <point x="348" y="581"/>
      <point x="379" y="690" type="curve"/>
      <point x="303" y="633" type="line"/>
      <point x="490" y="655"/>
      <point x="550" y="555"/>
      <point x="549" y="402" type="curve" smooth="yes"/>
      <point x="548" y="293"/>
      <point x="494" y="193"/>
      <point x="398" y="119" type="curve"/>
      <point x="339" y="98"/>
      <point x="276" y="92"/>
    </contour>
  </outline>
</glyph>
<glyph name="E" format="1">
  <advance width="658"/>
  <unicode hex="0045"/>
  <outline>
    <contour>
      <point x="425" y="766" type="move" name="top"/>
    </contour>
    <contour>
      <point x="523" y="0" type="move" name="ogonek"/>
    </contour>
    <contour>
      <point x="510" y="642" type="curve"/>
      <point x="598" y="564" type="line"/>
      <point x="675" y="603"/>
      <point x="704" y="669"/>
      <point x="667" y="737" type="curve"/>
      <point x="448" y="750"/>
      <point x="322" y="746"/>
      <point x="117" y="729" type="curve"/>
      <point x="102" y="714"/>
      <point x="100" y="683"/>
      <point x="110" y="656" type="curve"/>
      <point x="136" y="650"/>
      <point x="157" y="644"/>
      <point x="175" y="636" type="curve"/>
      <point x="177" y="493" type="line"/>
      <point x="144" y="339"/>
      <point x="115" y="259"/>
      <point x="61" y="113" type="curve"/>
      <point x="66" y="56"/>
      <point x="112" y="21"/>
      <point x="199" y="0" type="curve"/>
      <point x="569" y="26" type="line"/>
      <point x="605" y="70"/>
      <point x="623" y="146"/>
      <point x="560" y="166" type="curve"/>
      <point x="465" y="142"/>
      <point x="349" y="121"/>
      <point x="249" y="106" type="curve"/>
      <point x="294" y="328" type="line"/>
      <point x="377" y="328"/>
      <point x="455" y="322"/>
      <point x="530" y="315" type="curve"/>
      <point x="554" y="355"/>
      <point x="566" y="409"/>
      <point x="533" y="437" type="curve"/>
      <point x="459" y="430"/>
      <point x="387" y="420"/>
      <point x="305" y="409" type="curve"/>
      <point x="332" y="553" type="line"/>
      <point x="363" y="638" type="line"/>
      <point x="427" y="648"/>
      <point x="466" y="644"/>
    </contour>
  </outline>
</glyph>
<glyph name="F" format="1">
  <advance width="638"/>
  <unicode hex="0046"/>
  <outline>
    <contour>
      <point x="363" y="638" type="line"/>
      <point x="427" y="648"/>
      <point x="466" y="644"/>
      <point x="510" y="642" type="curve"/>
      <point x="598" y="564" type="line"/>
      <point x="675" y="603"/>
      <point x="704" y="669"/>
      <point x="667" y="737" type="curve"/>
      <point x="448" y="750"/>
      <point x="322" y="747"/>
      <point x="117" y="729" type="curve"/>
      <point x="102" y="714"/>
      <point x="100" y="684"/>
      <point x="110" y="656" type="curve"/>
      <point x="136" y="651"/>
      <point x="157" y="644"/>
      <point x="175" y="637" type="curve"/>
      <point x="181" y="501" type="line"/>
      <point x="154" y="339"/>
      <point x="123" y="217"/>
      <point x="60" y="48" type="curve"/>
      <point x="95" y="1"/>
      <point x="226" y="-14"/>
      <point x="272" y="22" type="curve"/>
      <point x="276" y="145"/>
      <point x="280" y="215"/>
      <point x="291" y="306" type="curve"/>
      <point x="378" y="306"/>
      <point x="455" y="302"/>
      <point x="526" y="293" type="curve"/>
      <point x="557" y="338"/>
      <point x="558" y="395"/>
      <point x="531" y="416" type="curve"/>
      <point x="464" y="408"/>
      <point x="382" y="399"/>
      <point x="303" y="387" type="curve"/>
      <point x="332" y="554" type="line"/>
    </contour>
  </outline>
</glyph>
<glyph name="G" format="1">
  <advance width="723"/>
  <unicode hex="0047"/>
  <outline>
    <contour>
      <point x="471" y="766" type="move" name="top"/>
    </contour>
    <contour>
      <point x="378" y="0" type="move" name="bottom"/>
    </contour>
    <contour>
      <point x="570" y="222" type="line"/>
      <point x="558" y="174"/>
      <point x="528" y="100"/>
      <point x="497" y="36" type="curve"/>
      <point x="516" y="3"/>
      <point x="567" y="-9"/>
      <point x="611" y="10" type="curve"/>
      <point x="681" y="201"/>
      <point x="708" y="311"/>
      <point x="655" y="388" type="curve"/>
      <point x="568" y="379"/>
      <point x="465" y="384"/>
      <point x="385" y="395" type="curve"/>
      <point x="347" y="363"/>
      <point x="355" y="300"/>
      <point x="394" y="273" type="curve"/>
      <point x="525" y="298" type="line"/>
      <point x="529" y="293" type="line"/>
      <point x="483" y="220"/>
      <point x="423" y="163"/>
      <point x="359" y="112" type="curve"/>
      <point x="277" y="169"/>
      <point x="233" y="227"/>
      <point x="234" y="336" type="curve" smooth="yes"/>
      <point x="238" y="473"/>
      <point x="326" y="587"/>
      <point x="443" y="665" type="curve"/>
      <point x="458" y="665" type="line"/>
      <point x="504" y="618"/>
      <point x="509" y="567"/>
      <point x="518" y="503" type="curve"/>
      <point x="592" y="454"/>
      <point x="678" y="504"/>
      <point x="699" y="565" type="curve"/>
      <point x="672" y="649"/>
      <point x="634" y="717"/>
      <point x="478" y="755" type="curve"/>
      <point x="354" y="735"/>
      <point x="215" y="663"/>
      <point x="133" y="570" type="curve"/>
      <point x="91" y="514"/>
      <point x="48" y="417"/>
      <point x="47" y="323" type="curve" smooth="yes"/>
      <point x="46" y="165"/>
      <point x="135" y="36"/>
      <point x="366" y="0" type="curve"/>
      <point x="455" y="67"/>
      <point x="522" y="146"/>
      <point x="563" y="227" type="curve"/>
    </contour>
  </outline>
</glyph>
<glyph name="H" format="1">
  <advance width="803"/>
  <unicode hex="0048"/>
  <outline>
    <contour>
      <point x="371" y="408" type="line"/>
      <point x="68" y="412" type="line"/>
      <point x="36" y="370"/>
      <point x="36" y="341"/>
      <point x="62" y="309" type="curve"/>
      <point x="296" y="331" type="line"/>
      <point x="786" y="366" type="line"/>
      <point x="814" y="414"/>
      <point x="816" y="448"/>
      <point x="787" y="466" type="curve"/>
    </contour>
    <contour>
      <point x="390" y="732" type="line"/>
      <point x="368" y="743"/>
      <point x="343" y="748"/>
      <point x="314" y="748" type="curve" smooth="yes"/>
      <point x="272" y="748"/>
      <point x="224" y="736"/>
      <point x="173" y="711" type="curve"/>
      <point x="171" y="531" type="line"/>
      <point x="140" y="355"/>
      <point x="109" y="208"/>
      <point x="56" y="49" type="curve"/>
      <point x="78" y="3"/>
      <point x="211" y="-17"/>
      <point x="267" y="22" type="curve"/>
      <point x="280" y="182"/>
      <point x="290" y="330"/>
      <point x="301" y="442" type="curve"/>
    </contour>
    <contour>
      <point x="790" y="732" type="line"/>
      <point x="768" y="743"/>
      <point x="743" y="748"/>
      <point x="714" y="748" type="curve" smooth="yes"/>
      <point x="673" y="748"/>
      <point x="624" y="736"/>
      <point x="573" y="711" type="curve"/>
      <point x="571" y="531" type="line"/>
      <point x="541" y="355"/>
      <point x="508" y="208"/>
      <point x="456" y="49" type="curve"/>
      <point x="478" y="3"/>
      <point x="611" y="-17"/>
      <point x="667" y="22" type="curve"/>
      <point x="680" y="182"/>
      <point x="690" y="330"/>
      <point x="701" y="442" type="curve"/>
    </contour>
  </outline>
</glyph>
<glyph name="I" format="1">
  <advance width="317"/>
  <unicode hex="0049"/>
  <outline>
    <contour>
      <point x="249" y="766" type="move" name="top"/>
    </contour>
    <contour>
      <point x="188" y="0" type="move" name="ogonek"/>
    </contour>
    <contour>
      <point x="130" y="531" type="line"/>
      <point x="99" y="355"/>
      <point x="67" y="208"/>
      <point x="15" y="49" type="curve"/>
      <point x="37" y="3"/>
      <point x="170" y="-17"/>
      <point x="226" y="22" type="curve"/>
      <point x="239" y="182"/>
      <point x="249" y="330"/>
      <point x="259" y="442" type="curve"/>
      <point x="348" y="732" type="line"/>
      <point x="327" y="743"/>
      <point x="302" y="748"/>
      <point x="273" y="748" type="curve" smooth="yes"/>
      <point x="232" y="748"/>
      <point x="183" y="736"/>
      <point x="132" y="711" type="curve"/>
    </contour>
  </outline>
</glyph>
<glyph name="J" format="1">
  <advance width="680"/>
  <unicode hex="004A"/>
  <outline>
    <contour>
      <point x="136" y="729" type="curve"/>
      <point x="117" y="689"/>
      <point x="120" y="653"/>
      <point x="158" y="606" type="curve"/>
      <point x="491" y="647" type="line"/>
      <point x="713" y="610" type="line"/>
      <point x="758" y="672"/>
      <point x="754" y="711"/>
      <point x="733" y="735" type="curve"/>
      <point x="491" y="750"/>
      <point x="369" y="746"/>
    </contour>
    <contour>
      <point x="474" y="427" type="curve"/>
      <point x="533" y="671" type="line"/>
      <point x="486" y="726"/>
      <point x="413" y="724"/>
      <point x="359" y="684" type="curve"/>
      <point x="358" y="530" type="line"/>
      <point x="339" y="365"/>
      <point x="313" y="262"/>
      <point x="278" y="109" type="curve"/>
      <point x="258" y="101" type="line"/>
      <point x="225" y="146"/>
      <point x="210" y="177"/>
      <point x="198" y="249" type="curve"/>
      <point x="139" y="281"/>
      <point x="70" y="258"/>
      <point x="19" y="193" type="curve"/>
      <point x="52" y="109"/>
      <point x="113" y="46"/>
      <point x="194" y="6" type="curve"/>
      <point x="327" y="-13"/>
      <point x="405" y="20"/>
      <point x="457" y="89" type="curve"/>
      <point x="462" y="238"/>
      <point x="467" y="310"/>
    </contour>
  </outline>
</glyph>
<glyph name="K" format="1">
  <advance width="703"/>
  <unicode hex="004B"/>
  <outline>
    <contour>
      <point x="372" y="0" type="move" name="bottom"/>
    </contour>
    <contour>
      <point x="141" y="531" type="line"/>
      <point x="111" y="355"/>
      <point x="79" y="208"/>
      <point x="26" y="49" type="curve"/>
      <point x="48" y="3"/>
      <point x="181" y="-17"/>
      <point x="237" y="22" type="curve"/>
      <point x="250" y="182"/>
      <point x="260" y="330"/>
      <point x="271" y="442" type="curve"/>
      <point x="362" y="741" type="line"/>
      <point x="340" y="751"/>
      <point x="315" y="756"/>
      <point x="286" y="756" type="curve" smooth="yes"/>
      <point x="245" y="756"/>
      <point x="196" y="745"/>
      <point x="145" y="719" type="curve"/>
    </contour>
    <contour>
      <point x="241" y="324" type="line"/>
      <point x="292" y="352" type="line"/>
      <point x="310" y="204"/>
      <point x="388" y="72"/>
      <point x="527" y="0" type="curve"/>
      <point x="630" y="25"/>
      <point x="663" y="109"/>
      <point x="633" y="161" type="curve"/>
      <point x="476" y="190"/>
      <point x="394" y="271"/>
      <point x="346" y="400" type="curve"/>
      <point x="319" y="363" type="line"/>
      <point x="449" y="439"/>
      <point x="612" y="550"/>
      <point x="703" y="626" type="curve"/>
      <point x="708" y="698"/>
      <point x="662" y="744"/>
      <point x="563" y="756" type="curve"/>
      <point x="397" y="502" type="line"/>
      <point x="211" y="381" type="line"/>
    </contour>
  </outline>
</glyph>
<glyph name="L" format="1">
  <advance width="576"/>
  <unicode hex="004C"/>
  <outline>
    <contour>
      <point x="251" y="766" type="move" name="top"/>
    </contour>
    <contour>
      <point x="338" y="0" type="move" name="bottom"/>
    </contour>
    <contour>
      <point x="150" y="711" type="curve"/>
      <point x="147" y="528" type="line"/>
      <point x="117" y="382"/>
      <point x="82" y="255"/>
      <point x="28" y="111" type="curve"/>
      <point x="42" y="58"/>
      <point x="97" y="21"/>
      <point x="163" y="0" type="curve"/>
      <point x="509" y="40" type="line"/>
      <point x="535" y="72"/>
      <point x="551" y="147"/>
      <point x="494" y="171" type="curve"/>
      <point x="407" y="146"/>
      <point x="324" y="125"/>
      <point x="223" y="108" type="curve"/>
      <point x="269" y="416" type="line"/>
      <point x="366" y="732" type="line" smooth="yes"/>
      <point x="310" y="760"/>
      <point x="227" y="750"/>
    </contour>
  </outline>
</glyph>
<glyph name="M" format="1">
  <advance width="874"/>
  <unicode hex="004D"/>
  <outline>
    <contour>
      <point x="256" y="621" type="curve"/>
      <point x="309" y="622" type="line"/>
      <point x="257" y="442" type="line"/>
      <point x="249" y="333"/>
      <point x="235" y="186"/>
      <point x="222" y="22" type="curve"/>
      <point x="167" y="-17"/>
      <point x="34" y="3"/>
      <point x="12" y="49" type="curve"/>
      <point x="67" y="214"/>
      <point x="99" y="360"/>
      <point x="127" y="529" type="curve"/>
      <point x="136" y="712" type="line"/>
      <point x="175" y="736"/>
      <point x="214" y="747"/>
      <point x="254" y="747" type="curve" smooth="yes"/>
      <point x="288" y="747"/>
      <point x="323" y="738"/>
      <point x="356" y="716" type="curve"/>
      <point x="360" y="606"/>
      <point x="380" y="498"/>
      <point x="412" y="375" type="curve"/>
      <point x="472" y="269" type="line"/>
      <point x="423" y="245" type="line"/>
      <point x="605" y="498" type="line"/>
      <point x="713" y="722" type="line"/>
      <point x="744" y="734"/>
      <point x="783" y="748"/>
      <point x="820" y="748" type="curve" smooth="yes"/>
      <point x="855" y="748"/>
      <point x="887" y="740"/>
      <point x="904" y="718" type="curve"/>
      <point x="819" y="438" type="line"/>
      <point x="809" y="314"/>
      <point x="797" y="173"/>
      <point x="787" y="22" type="curve"/>
      <point x="731" y="-17"/>
      <point x="599" y="3"/>
      <point x="576" y="49" type="curve"/>
      <point x="626" y="207"/>
      <point x="653" y="318"/>
      <point x="675" y="454" type="curve"/>
      <point x="694" y="584" type="line"/>
      <point x="721" y="548" type="line"/>
      <point x="504" y="202" type="line"/>
      <point x="442" y="176"/>
      <point x="389" y="187"/>
      <point x="348" y="228" type="curve"/>
      <point x="288" y="382"/>
      <point x="270" y="499"/>
    </contour>
  </outline>
</glyph>
<glyph name="N" format="1">
  <advance width="762"/>
  <unicode hex="004E"/>
  <outline>
    <contour>
      <point x="457" y="766" type="move" name="top"/>
    </contour>
    <contour>
      <point x="371" y="0" type="move" name="bottom"/>
    </contour>
    <contour>
      <point x="280" y="748" type="curve" smooth="yes"/>
      <point x="238" y="748"/>
      <point x="190" y="740"/>
      <point x="131" y="711" type="curve"/>
      <point x="125" y="526" type="line"/>
      <point x="98" y="362"/>
      <point x="66" y="222"/>
      <point x="10" y="49" type="curve"/>
      <point x="31" y="3"/>
      <point x="163" y="-17"/>
      <point x="220" y="22" type="curve"/>
      <point x="232" y="170"/>
      <point x="246" y="312"/>
      <point x="256" y="442" type="curve"/>
      <point x="313" y="641" type="line"/>
      <point x="290" y="633" type="line"/>
      <point x="314" y="456"/>
      <point x="362" y="257"/>
      <point x="462" y="39" type="curve"/>
      <point x="512" y="1"/>
      <point x="606" y="-16"/>
      <point x="673" y="22" type="curve"/>
      <point x="686" y="181"/>
      <point x="700" y="330"/>
      <point x="710" y="443" type="curve"/>
      <point x="800" y="732" type="line"/>
      <point x="778" y="742"/>
      <point x="753" y="747"/>
      <point x="723" y="747" type="curve" smooth="yes"/>
      <point x="683" y="747"/>
      <point x="632" y="735"/>
      <point x="583" y="710" type="curve"/>
      <point x="580" y="524" type="line"/>
      <point x="555" y="383"/>
      <point x="521" y="246"/>
      <point x="495" y="130" type="curve"/>
      <point x="520" y="156" type="line"/>
      <point x="464" y="268" type="line"/>
      <point x="412" y="453"/>
      <point x="385" y="584"/>
      <point x="353" y="728" type="curve"/>
      <point x="328" y="741"/>
      <point x="311" y="748"/>
    </contour>
  </outline>
</glyph>
<glyph name="O" format="1">
  <advance width="701"/>
  <unicode hex="004F"/>
  <outline>
    <contour>
      <point x="436" y="767" type="move" name="top"/>
    </contour>
    <contour>
      <point x="245" y="0" type="move" name="bottom"/>
    </contour>
    <contour>
      <point x="43" y="317" type="curve" smooth="yes"/>
      <point x="44" y="172"/>
      <point x="193" y="0"/>
      <point x="321" y="0" type="curve" smooth="yes"/>
      <point x="492" y="0"/>
      <point x="701" y="221"/>
      <point x="698" y="406" type="curve" smooth="yes"/>
      <point x="695" y="584"/>
      <point x="541" y="758"/>
      <point x="432" y="758" type="curve" smooth="yes"/>
      <point x="228" y="758"/>
      <point x="43" y="535"/>
    </contour>
    <contour>
      <point x="527" y="372" type="curve"/>
      <point x="497" y="262"/>
      <point x="423" y="160"/>
      <point x="322" y="92" type="curve"/>
      <point x="263" y="151"/>
      <point x="226" y="237"/>
      <point x="225" y="332" type="curve" smooth="yes"/>
      <point x="225" y="448"/>
      <point x="309" y="592"/>
      <point x="423" y="667" type="curve"/>
      <point x="494" y="577"/>
      <point x="515" y="484"/>
    </contour>
  </outline>
</glyph>
<glyph name="P" format="1">
  <advance width="677"/>
  <unicode hex="0050"/>
  <outline>
    <contour>
      <point x="306" y="444" type="curve"/>
      <point x="363" y="689" type="line"/>
      <point x="304" y="656" type="line"/>
      <point x="436" y="667"/>
      <point x="517" y="597"/>
      <point x="518" y="518" type="curve" smooth="yes"/>
      <point x="518" y="463"/>
      <point x="494" y="409"/>
      <point x="457" y="374" type="curve"/>
      <point x="414" y="346"/>
      <point x="330" y="321"/>
      <point x="236" y="306" type="curve"/>
      <point x="259" y="236" type="line"/>
      <point x="370" y="246"/>
      <point x="449" y="268"/>
      <point x="513" y="288" type="curve"/>
      <point x="629" y="347"/>
      <point x="692" y="416"/>
      <point x="694" y="524" type="curve" smooth="yes"/>
      <point x="695" y="638"/>
      <point x="557" y="756"/>
      <point x="356" y="756" type="curve" smooth="yes"/>
      <point x="266" y="756"/>
      <point x="177" y="743"/>
      <point x="112" y="721" type="curve"/>
      <point x="95" y="703"/>
      <point x="99" y="667"/>
      <point x="125" y="647" type="curve"/>
      <point x="172" y="642" type="line"/>
      <point x="175" y="518" type="line"/>
      <point x="145" y="342"/>
      <point x="117" y="220"/>
      <point x="63" y="46" type="curve"/>
      <point x="94" y="-2"/>
      <point x="226" y="-14"/>
      <point x="274" y="23" type="curve"/>
      <point x="287" y="177"/>
      <point x="296" y="299"/>
    </contour>
  </outline>
</glyph>
<glyph name="Q" format="1">
  <advance width="708"/>
  <unicode hex="0051"/>
  <outline>
    <contour>
      <point x="313" y="35" type="line"/>
      <point x="423" y="-179" type="line"/>
      <point x="495" y="-207"/>
      <point x="593" y="-176"/>
      <point x="601" y="-77" type="curve"/>
      <point x="454" y="-21" type="line"/>
      <point x="418" y="44" type="line"/>
    </contour>
    <component base="O"/>
  </outline>
</glyph>
<glyph name="R" format="1">
  <advance width="702"/>
  <unicode hex="0052"/>
  <outline>
    <contour>
      <point x="366" y="766" type="move" name="top"/>
    </contour>
    <contour>
      <point x="386" y="0" type="move" name="bottom"/>
    </contour>
    <contour>
      <point x="309" y="335" type="line"/>
      <point x="317" y="188"/>
      <point x="392" y="64"/>
      <point x="532" y="0" type="curve"/>
      <point x="619" y="28"/>
      <point x="671" y="97"/>
      <point x="635" y="161" type="curve"/>
      <point x="478" y="187"/>
      <point x="421" y="230"/>
      <point x="369" y="345" type="curve"/>
    </contour>
    <contour>
      <point x="490" y="310" type="curve"/>
      <point x="623" y="378"/>
      <point x="681" y="433"/>
      <point x="683" y="545" type="curve" smooth="yes"/>
      <point x="685" y="653"/>
      <point x="556" y="757"/>
      <point x="356" y="757" type="curve" smooth="yes"/>
      <point x="265" y="757"/>
      <point x="177" y="744"/>
      <point x="111" y="722" type="curve"/>
      <point x="94" y="703"/>
      <point x="99" y="668"/>
      <point x="124" y="647" type="curve"/>
      <point x="172" y="642" type="line"/>
      <point x="174" y="519" type="line"/>
      <point x="144" y="343"/>
      <point x="116" y="220"/>
      <point x="61" y="46" type="curve"/>
      <point x="92" y="-2"/>
      <point x="224" y="-14"/>
      <point x="272" y="23" type="curve"/>
      <point x="288" y="189"/>
      <point x="295" y="307"/>
      <point x="306" y="446" type="curve"/>
      <point x="364" y="690" type="line"/>
      <point x="303" y="656" type="line"/>
      <point x="444" y="669"/>
      <point x="507" y="607"/>
      <point x="507" y="533" type="curve" smooth="yes"/>
      <point x="507" y="483"/>
      <point x="487" y="441"/>
      <point x="443" y="399" type="curve"/>
      <point x="388" y="380"/>
      <point x="331" y="366"/>
      <point x="244" y="366" type="curve"/>
      <point x="261" y="295" type="line"/>
      <point x="337" y="298"/>
      <point x="413" y="299"/>
    </contour>
  </outline>
</glyph>
<glyph name="S" format="1">
  <advance width="676"/>
  <unicode hex="0053"/>
  <outline>
    <contour>
      <point x="411" y="766" type="move" name="top"/>
    </contour>
    <contour>
      <point x="342" y="0" type="move" name="bottom"/>
    </contour>
    <contour>
      <point x="642" y="254" type="curve"/>
      <point x="592" y="407"/>
      <point x="267" y="493"/>
      <point x="266" y="562" type="curve" smooth="yes"/>
      <point x="265" y="598"/>
      <point x="350" y="651"/>
      <point x="414" y="670" type="curve"/>
      <point x="442" y="640"/>
      <point x="466" y="602"/>
      <point x="478" y="529" type="curve"/>
      <point x="585" y="508"/>
      <point x="639" y="537"/>
      <point x="656" y="612" type="curve"/>
      <point x="613" y="689"/>
      <point x="529" y="746"/>
      <point x="418" y="759" type="curve"/>
      <point x="269" y="743"/>
      <point x="137" y="664"/>
      <point x="79" y="541" type="curve"/>
      <point x="109" y="343"/>
      <point x="443" y="293"/>
      <point x="443" y="219" type="curve" smooth="yes"/>
      <point x="443" y="158"/>
      <point x="378" y="106"/>
      <point x="299" y="89" type="curve"/>
      <point x="246" y="146"/>
      <point x="218" y="194"/>
      <point x="203" y="267" type="curve"/>
      <point x="104" y="298"/>
      <point x="52" y="240"/>
      <point x="16" y="170" type="curve"/>
      <point x="54" y="93"/>
      <point x="169" y="22"/>
      <point x="291" y="0" type="curve"/>
      <point x="483" y="20"/>
      <point x="620" y="112"/>
    </contour>
  </outline>
</glyph>
<glyph name="T" format="1">
  <advance width="670"/>
  <unicode hex="0054"/>
  <outline>
    <contour>
      <point x="406" y="766" type="move" name="top"/>
    </contour>
    <contour>
      <point x="336" y="0" type="move" name="bottom"/>
    </contour>
    <contour>
      <point x="308" y="536" type="line"/>
      <point x="277" y="336"/>
      <point x="247" y="212"/>
      <point x="195" y="48" type="curve"/>
      <point x="217" y="3"/>
      <point x="351" y="-17"/>
      <point x="407" y="22" type="curve"/>
      <point x="415" y="151"/>
      <point x="421" y="258"/>
      <point x="433" y="444" type="curve"/>
      <point x="500" y="706" type="line"/>
      <point x="459" y="729"/>
      <point x="395" y="727"/>
      <point x="309" y="684" type="curve"/>
    </contour>
    <contour>
      <point x="104" y="728" type="curve"/>
      <point x="86" y="688"/>
      <point x="88" y="652"/>
      <point x="126" y="605" type="curve"/>
      <point x="421" y="640" type="line"/>
      <point x="701" y="611" type="line"/>
      <point x="740" y="672"/>
      <point x="735" y="711"/>
      <point x="715" y="736" type="curve"/>
      <point x="463" y="750"/>
      <point x="328" y="746"/>
    </contour>
  </outline>
</glyph>
<glyph name="U" format="1">
  <advance width="686"/>
  <unicode hex="0055"/>
  <outline>
    <contour>
      <point x="420" y="766" type="move" name="top"/>
    </contour>
    <contour>
      <point x="342" y="0" type="move" name="ogonek"/>
    </contour>
    <contour>
      <point x="654" y="343" type="curve" smooth="yes"/>
      <point x="678" y="474"/>
      <point x="699" y="613"/>
      <point x="717" y="741" type="curve"/>
      <point x="696" y="751"/>
      <point x="671" y="756"/>
      <point x="642" y="756" type="curve" smooth="yes"/>
      <point x="600" y="756"/>
      <point x="551" y="745"/>
      <point x="500" y="719" type="curve"/>
      <point x="531" y="489" type="line"/>
      <point x="508" y="328"/>
      <point x="480" y="216"/>
      <point x="412" y="114" type="curve"/>
      <point x="251" y="96"/>
      <point x="228" y="189"/>
      <point x="242" y="307" type="curve" smooth="yes"/>
      <point x="253" y="430"/>
      <point x="294" y="579"/>
      <point x="344" y="741" type="curve"/>
      <point x="323" y="751"/>
      <point x="298" y="756"/>
      <point x="269" y="756" type="curve" smooth="yes"/>
      <point x="228" y="756"/>
      <point x="178" y="745"/>
      <point x="127" y="719" type="curve"/>
      <point x="110" y="530"/>
      <point x="90" y="396"/>
      <point x="55" y="209" type="curve"/>
      <point x="71" y="102"/>
      <point x="168" y="0"/>
      <point x="328" y="0" type="curve" smooth="yes"/>
      <point x="521" y="0"/>
      <point x="614" y="136"/>
    </contour>
  </outline>
</glyph>
<glyph name="V" format="1">
  <advance width="698"/>
  <unicode hex="0056"/>
  <outline>
    <contour>
      <point x="322" y="333" type="line"/>
      <point x="320" y="733" type="line"/>
      <point x="278" y="766"/>
      <point x="158" y="755"/>
      <point x="95" y="683" type="curve"/>
      <point x="211" y="59" type="line"/>
      <point x="257" y="4"/>
      <point x="347" y="-13"/>
      <point x="423" y="9" type="curve"/>
      <point x="481" y="149" type="line"/>
      <point x="554" y="273"/>
      <point x="613" y="361"/>
      <point x="685" y="481" type="curve"/>
      <point x="724" y="544"/>
      <point x="751" y="631"/>
      <point x="744" y="712" type="curve"/>
      <point x="698" y="754"/>
      <point x="583" y="770"/>
      <point x="522" y="707" type="curve"/>
      <point x="565" y="489" type="line"/>
      <point x="332" y="52" type="line"/>
      <point x="367" y="63" type="line"/>
    </contour>
  </outline>
</glyph>
<glyph name="W" format="1">
  <advance width="1018"/>
  <unicode hex="0057"/>
  <outline>
    <contour>
      <point x="845" y="709" type="curve"/>
      <point x="891" y="490" type="line"/>
      <point x="701" y="63" type="line"/>
      <point x="727" y="61" type="line"/>
      <point x="672" y="364" type="line"/>
      <point x="679" y="685" type="line"/>
      <point x="602" y="722"/>
      <point x="522" y="693"/>
      <point x="475" y="641" type="curve"/>
      <point x="527" y="414" type="line"/>
      <point x="348" y="68" type="line"/>
      <point x="375" y="63" type="line"/>
      <point x="327" y="334" type="line"/>
      <point x="318" y="735" type="line"/>
      <point x="275" y="767"/>
      <point x="162" y="761"/>
      <point x="95" y="684" type="curve"/>
      <point x="220" y="58" type="line"/>
      <point x="269" y="5"/>
      <point x="356" y="-13"/>
      <point x="433" y="9" type="curve"/>
      <point x="476" y="141" type="line"/>
      <point x="554" y="294" type="line"/>
      <point x="580" y="54" type="line"/>
      <point x="621" y="4"/>
      <point x="707" y="-12"/>
      <point x="784" y="9" type="curve"/>
      <point x="829" y="151" type="line"/>
      <point x="1012" y="484" type="line" smooth="yes"/>
      <point x="1052" y="558"/>
      <point x="1072" y="638"/>
      <point x="1067" y="714" type="curve"/>
      <point x="1017" y="753"/>
      <point x="908" y="773"/>
    </contour>
  </outline>
</glyph>
<glyph name="X" format="1">
  <advance width="747"/>
  <unicode hex="0058"/>
  <outline>
    <contour>
      <point x="427" y="401" type="curve"/>
      <point x="408" y="526"/>
      <point x="341" y="681"/>
      <point x="244" y="753" type="curve"/>
      <point x="139" y="745"/>
      <point x="86" y="669"/>
      <point x="95" y="584" type="curve"/>
      <point x="201" y="546"/>
      <point x="313" y="457"/>
      <point x="372" y="348" type="curve"/>
      <point x="391" y="235"/>
      <point x="463" y="85"/>
      <point x="550" y="0" type="curve"/>
      <point x="671" y="23"/>
      <point x="713" y="103"/>
      <point x="689" y="172" type="curve"/>
      <point x="595" y="216"/>
      <point x="494" y="312"/>
    </contour>
    <contour>
      <point x="649" y="754" type="curve"/>
      <point x="381" y="394" type="line"/>
      <point x="277" y="296"/>
      <point x="164" y="208"/>
      <point x="32" y="126" type="curve"/>
      <point x="23" y="68"/>
      <point x="52" y="8"/>
      <point x="170" y="0" type="curve"/>
      <point x="422" y="357" type="line"/>
      <point x="565" y="483"/>
      <point x="677" y="573"/>
      <point x="771" y="638" type="curve"/>
      <point x="774" y="705"/>
      <point x="741" y="762"/>
    </contour>
  </outline>
</glyph>
<glyph name="Y" format="1">
  <advance width="671"/>
  <unicode hex="0059"/>
  <outline>
    <contour>
      <point x="412" y="766" type="move" name="top"/>
    </contour>
    <contour>
      <point x="94" y="663" type="curve"/>
      <point x="153" y="567"/>
      <point x="225" y="436"/>
      <point x="288" y="299" type="curve"/>
      <point x="272" y="223"/>
      <point x="246" y="121"/>
      <point x="218" y="44" type="curve"/>
      <point x="253" y="-1"/>
      <point x="380" y="-17"/>
      <point x="430" y="22" type="curve"/>
      <point x="437" y="143"/>
      <point x="444" y="244"/>
      <point x="460" y="338" type="curve"/>
      <point x="531" y="421"/>
      <point x="608" y="496"/>
      <point x="658" y="561" type="curve" smooth="yes"/>
      <point x="697" y="613"/>
      <point x="717" y="654"/>
      <point x="722" y="713" type="curve"/>
      <point x="680" y="760"/>
      <point x="599" y="775"/>
      <point x="495" y="725" type="curve"/>
      <point x="541" y="548" type="line"/>
      <point x="413" y="392" type="line"/>
      <point x="384" y="335" type="line"/>
      <point x="377" y="335" type="line"/>
      <point x="305" y="537" type="line"/>
      <point x="294" y="746" type="line"/>
      <point x="222" y="773"/>
      <point x="145" y="749"/>
    </contour>
  </outline>
</glyph>
<glyph name="Z" format="1">
  <advance width="715"/>
  <unicode hex="005A"/>
  <outline>
    <contour>
      <point x="435" y="766" type="move" name="top"/>
    </contour>
    <contour>
      <point x="197" y="68" type="line"/>
      <point x="307" y="50"/>
      <point x="436" y="31"/>
      <point x="549" y="0" type="curve"/>
      <point x="641" y="57"/>
      <point x="676" y="99"/>
      <point x="697" y="166" type="curve"/>
      <point x="680" y="223"/>
      <point x="625" y="250"/>
      <point x="520" y="228" type="curve"/>
      <point x="513" y="191"/>
      <point x="508" y="171"/>
      <point x="490" y="133" type="curve"/>
      <point x="422" y="136"/>
      <point x="308" y="140"/>
      <point x="236" y="144" type="curve"/>
      <point x="233" y="152" type="line"/>
      <point x="368" y="265"/>
      <point x="669" y="516"/>
      <point x="738" y="665" type="curve"/>
      <point x="726" y="747"/>
      <point x="660" y="757"/>
      <point x="571" y="757" type="curve"/>
      <point x="545" y="687" type="line"/>
      <point x="462" y="705"/>
      <point x="338" y="731"/>
      <point x="235" y="756" type="curve"/>
      <point x="151" y="726"/>
      <point x="104" y="664"/>
      <point x="75" y="587" type="curve"/>
      <point x="98" y="533"/>
      <point x="151" y="512"/>
      <point x="248" y="523" type="curve"/>
      <point x="258" y="565"/>
      <point x="274" y="601"/>
      <point x="305" y="637" type="curve"/>
      <point x="374" y="623"/>
      <point x="458" y="616"/>
      <point x="507" y="614" type="curve"/>
      <point x="514" y="605" type="line"/>
      <point x="401" y="412"/>
      <point x="18" y="200"/>
      <point x="18" y="79" type="curve" smooth="yes"/>
      <point x="18" y="51"/>
      <point x="24" y="25"/>
      <point x="50" y="3" type="curve"/>
      <point x="117" y="-5"/>
      <point x="160" y="2"/>
      <point x="200" y="31" type="curve"/>
      <point x="191" y="65" type="line"/>
    </contour>
  </outline>
</glyph>
<glyph name="bracketleft" format="1">
  <advance width="628"/>
  <unicode hex="005B"/>
  <outline>
    <contour>
      <point x="558" y="844" type="line"/>
      <point x="669" y="837" type="line"/>
      <point x="691" y="866"/>
      <point x="694" y="891"/>
      <point x="689" y="915" type="curve"/>
      <point x="277" y="909" type="line"/>
      <point x="215" y="422" type="line"/>
      <point x="94" y="-36" type="line"/>
      <point x="96" y="-64"/>
      <point x="113" y="-85"/>
      <point x="147" y="-105" type="curve"/>
      <point x="497" y="-62" type="line"/>
      <point x="522" y="-30"/>
      <point x="524" y="-7"/>
      <point x="512" y="11" type="curve"/>
      <point x="307" y="-16" type="line"/>
      <point x="359" y="297" type="line"/>
      <point x="424" y="647" type="line"/>
      <point x="474" y="840" type="line"/>
    </contour>
  </outline>
</glyph>
<glyph name="backslash" format="1">
  <advance width="519"/>
  <unicode hex="005C"/>
  <outline>
    <contour>
      <point x="66" y="850" type="curve"/>
      <point x="353" y="-111" type="line"/>
      <point x="415" y="-129"/>
      <point x="443" y="-120"/>
      <point x="461" y="-82" type="curve"/>
      <point x="269" y="370" type="line"/>
      <point x="180" y="869" type="line" smooth="yes"/>
      <point x="119" y="895"/>
      <point x="90" y="887"/>
    </contour>
  </outline>
</glyph>
<glyph name="bracketright" format="1">
  <advance width="641"/>
  <unicode hex="005D"/>
  <outline>
    <contour>
      <point x="449" y="234" type="line"/>
      <point x="594" y="819" type="line"/>
      <point x="591" y="854"/>
      <point x="581" y="878"/>
      <point x="556" y="903" type="curve"/>
      <point x="167" y="913" type="line"/>
      <point x="153" y="891"/>
      <point x="157" y="877"/>
      <point x="179" y="837" type="curve"/>
      <point x="371" y="843" type="line"/>
      <point x="302" y="422" type="line"/>
      <point x="225" y="-17" type="line"/>
      <point x="12" y="-21" type="line"/>
      <point x="-6" y="-62"/>
      <point x="-6" y="-83"/>
      <point x="10" y="-109" type="curve"/>
      <point x="431" y="-61" type="line"/>
    </contour>
  </outline>
</glyph>
<glyph name="asciicircum" format="1">
  <advance width="589"/>
  <unicode hex="005E"/>
  <outline>
    <contour>
      <point x="55" y="423" type="line"/>
      <point x="59" y="396"/>
      <point x="91" y="382"/>
      <point x="129" y="384" type="curve"/>
      <point x="345" y="746" type="line"/>
      <point x="425" y="401" type="line"/>
      <point x="457" y="386"/>
      <point x="535" y="367"/>
      <point x="592" y="417" type="curve"/>
      <point x="474" y="807" type="line"/>
      <point x="431" y="832"/>
      <point x="378" y="840"/>
      <point x="309" y="828" type="curve"/>
    </contour>
  </outline>
</glyph>
<glyph name="underscore" format="1">
  <advance width="674"/>
  <unicode hex="005F"/>
  <outline>
    <contour>
      <point x="546" y="-45" type="curve"/>
      <point x="277" y="-64" type="line"/>
      <point x="9" y="-59" type="line"/>
      <point x="-16" y="-93"/>
      <point x="-20" y="-129"/>
      <point x="-5" y="-147" type="curve"/>
      <point x="530" y="-137" type="line"/>
      <point x="560" y="-101"/>
      <point x="564" y="-57"/>
    </contour>
  </outline>
</glyph>
<glyph name="grave" format="1">
  <advance width="298"/>
  <unicode hex="0060"/>
  <outline>
    <contour>
      <point x="257" y="572" type="move" name="_top"/>
    </contour>
    <contour>
      <point x="274" y="835" type="line"/>
      <point x="233" y="856"/>
      <point x="144" y="847"/>
      <point x="112" y="781" type="curve"/>
      <point x="199" y="705" type="line"/>
      <point x="265" y="612" type="line"/>
      <point x="295" y="602"/>
      <point x="333" y="613"/>
      <point x="348" y="636" type="curve"/>
    </contour>
  </outline>
</glyph>
<glyph name="a" format="1">
  <advance width="698"/>
  <unicode hex="0061"/>
  <outline>
    <contour>
      <point x="438" y="572" type="move" name="top"/>
    </contour>
    <contour>
      <point x="504" y="0" type="move" name="ogonek"/>
    </contour>
    <contour>
      <point x="449" y="274" type="line"/>
      <point x="395" y="230"/>
      <point x="330" y="178"/>
      <point x="271" y="132" type="curve"/>
      <point x="241" y="151"/>
      <point x="229" y="183"/>
      <point x="229" y="222" type="curve" smooth="yes"/>
      <point x="229" y="312"/>
      <point x="285" y="407"/>
      <point x="382" y="453" type="curve"/>
      <point x="417" y="431"/>
      <point x="444" y="398"/>
      <point x="464" y="357" type="curve"/>
      <point x="513" y="390" type="line"/>
      <point x="489" y="445"/>
      <point x="444" y="520"/>
      <point x="393" y="555" type="curve"/>
      <point x="177" y="550"/>
      <point x="33" y="368"/>
      <point x="34" y="217" type="curve" smooth="yes"/>
      <point x="35" y="109"/>
      <point x="103" y="21"/>
      <point x="270" y="14" type="curve"/>
      <point x="343" y="89"/>
      <point x="439" y="179"/>
      <point x="485" y="227" type="curve"/>
    </contour>
    <contour>
      <point x="506" y="550" type="curve"/>
      <point x="490" y="522"/>
      <point x="486" y="488"/>
      <point x="488" y="440" type="curve"/>
      <point x="464" y="357" type="line"/>
      <point x="449" y="274" type="line"/>
      <point x="411" y="170" type="line"/>
      <point x="434" y="146" type="line"/>
      <point x="391" y="49" type="line"/>
      <point x="451" y="-4"/>
      <point x="563" y="-15"/>
      <point x="605" y="22" type="curve"/>
      <point x="599" y="138"/>
      <point x="598" y="243"/>
      <point x="603" y="338" type="curve"/>
      <point x="695" y="504" type="line"/>
      <point x="673" y="558"/>
      <point x="619" y="568"/>
    </contour>
  </outline>
</glyph>
<glyph name="b" format="1">
  <advance width="662"/>
  <unicode hex="0062"/>
  <outline>
    <contour>
      <point x="349" y="827" type="line"/>
      <point x="295" y="849"/>
      <point x="237" y="848"/>
      <point x="146" y="805" type="curve"/>
      <point x="151" y="539" type="line"/>
      <point x="125" y="407"/>
      <point x="84" y="244"/>
      <point x="45" y="124" type="curve"/>
      <point x="61" y="72"/>
      <point x="109" y="18"/>
      <point x="225" y="-1" type="curve"/>
      <point x="413" y="39"/>
      <point x="594" y="120"/>
      <point x="651" y="322" type="curve"/>
      <point x="629" y="465"/>
      <point x="571" y="536"/>
      <point x="384" y="555" type="curve"/>
      <point x="316" y="483"/>
      <point x="265" y="420"/>
      <point x="197" y="337" type="curve"/>
      <point x="236" y="291" type="line"/>
      <point x="294" y="352"/>
      <point x="341" y="398"/>
      <point x="392" y="436" type="curve"/>
      <point x="440" y="415"/>
      <point x="463" y="388"/>
      <point x="473" y="329" type="curve"/>
      <point x="454" y="217"/>
      <point x="353" y="122"/>
      <point x="204" y="88" type="curve"/>
      <point x="224" y="76" type="line"/>
      <point x="242" y="169"/>
      <point x="257" y="267"/>
      <point x="262" y="381" type="curve"/>
      <point x="233" y="410" type="line"/>
      <point x="276" y="483" type="line"/>
      <point x="287" y="568" type="line"/>
    </contour>
  </outline>
</glyph>
<glyph name="c" format="1">
  <advance width="590"/>
  <unicode hex="0063"/>
  <outline>
    <contour>
      <point x="359" y="572" type="move" name="top"/>
    </contour>
    <contour>
      <point x="344" y="0" type="move" name="bottom"/>
    </contour>
    <contour>
      <point x="385" y="564" type="curve"/>
      <point x="272" y="541"/>
      <point x="181" y="479"/>
      <point x="112" y="411" type="curve"/>
      <point x="69" y="361"/>
      <point x="37" y="309"/>
      <point x="37" y="233" type="curve" smooth="yes"/>
      <point x="35" y="127"/>
      <point x="95" y="26"/>
      <point x="274" y="0" type="curve"/>
      <point x="380" y="14"/>
      <point x="487" y="65"/>
      <point x="540" y="118" type="curve"/>
      <point x="553" y="170"/>
      <point x="531" y="194"/>
      <point x="489" y="194" type="curve"/>
      <point x="437" y="152"/>
      <point x="364" y="120"/>
      <point x="300" y="103" type="curve"/>
      <point x="242" y="147"/>
      <point x="225" y="200"/>
      <point x="227" y="265" type="curve" smooth="yes"/>
      <point x="229" y="327"/>
      <point x="257" y="402"/>
      <point x="320" y="463" type="curve"/>
      <point x="348" y="470" type="line"/>
      <point x="371" y="432"/>
      <point x="388" y="396"/>
      <point x="383" y="332" type="curve"/>
      <point x="476" y="318"/>
      <point x="544" y="341"/>
      <point x="564" y="399" type="curve"/>
      <point x="541" y="488"/>
      <point x="505" y="543"/>
    </contour>
  </outline>
</glyph>
<glyph name="d" format="1">
  <advance width="664"/>
  <unicode hex="0064"/>
  <outline>
    <contour>
      <point x="449" y="274" type="line"/>
      <point x="395" y="230"/>
      <point x="329" y="178"/>
      <point x="271" y="132" type="curve"/>
      <point x="241" y="151"/>
      <point x="228" y="183"/>
      <point x="229" y="222" type="curve" smooth="yes"/>
      <point x="231" y="311"/>
      <point x="286" y="408"/>
      <point x="383" y="454" type="curve"/>
      <point x="421" y="431"/>
      <point x="445" y="399"/>
      <point x="471" y="357" type="curve"/>
      <point x="513" y="390" type="line"/>
      <point x="492" y="449"/>
      <point x="450" y="527"/>
      <point x="400" y="555" type="curve" smooth="yes"/>
      <point x="183" y="553"/>
      <point x="37" y="375"/>
      <point x="34" y="217" type="curve" smooth="yes"/>
      <point x="30" y="107"/>
      <point x="111" y="16"/>
      <point x="268" y="14" type="curve"/>
      <point x="345" y="93"/>
      <point x="441" y="181"/>
      <point x="485" y="227" type="curve"/>
    </contour>
    <contour>
      <point x="715" y="827" type="line"/>
      <point x="664" y="851"/>
      <point x="604" y="848"/>
      <point x="511" y="805" type="curve"/>
      <point x="518" y="539" type="line"/>
      <point x="505" y="475"/>
      <point x="490" y="415"/>
      <point x="471" y="357" type="curve"/>
      <point x="449" y="274" type="line"/>
      <point x="399" y="172" type="line"/>
      <point x="425" y="144" type="line"/>
      <point x="368" y="48" type="line"/>
      <point x="413" y="-7"/>
      <point x="528" y="-12"/>
      <point x="579" y="22" type="curve"/>
      <point x="604" y="226"/>
      <point x="631" y="420"/>
      <point x="648" y="586" type="curve"/>
    </contour>
  </outline>
</glyph>
<glyph name="e" format="1">
  <advance width="596"/>
  <unicode hex="0065"/>
  <outline>
    <contour>
      <point x="368" y="572" type="move" name="top"/>
    </contour>
    <contour>
      <point x="346" y="0" type="move" name="ogonek"/>
    </contour>
    <contour>
      <point x="202" y="201" type="line"/>
      <point x="308" y="219"/>
      <point x="451" y="270"/>
      <point x="546" y="317" type="curve"/>
      <point x="587" y="439"/>
      <point x="547" y="548"/>
      <point x="398" y="566" type="curve"/>
      <point x="270" y="539"/>
      <point x="179" y="474"/>
      <point x="106" y="413" type="curve"/>
      <point x="63" y="362"/>
      <point x="37" y="302"/>
      <point x="33" y="237" type="curve" smooth="yes"/>
      <point x="29" y="126"/>
      <point x="98" y="27"/>
      <point x="261" y="0" type="curve"/>
      <point x="351" y="10"/>
      <point x="488" y="53"/>
      <point x="543" y="110" type="curve"/>
      <point x="553" y="167"/>
      <point x="530" y="186"/>
      <point x="488" y="184" type="curve"/>
      <point x="431" y="144"/>
      <point x="361" y="116"/>
      <point x="288" y="104" type="curve"/>
      <point x="235" y="143"/>
      <point x="217" y="192"/>
      <point x="220" y="269" type="curve" smooth="yes"/>
      <point x="222" y="332"/>
      <point x="259" y="408"/>
      <point x="324" y="461" type="curve"/>
      <point x="343" y="469" type="line"/>
      <point x="378" y="446"/>
      <point x="402" y="408"/>
      <point x="388" y="338" type="curve"/>
      <point x="333" y="311"/>
      <point x="266" y="283"/>
      <point x="190" y="261" type="curve"/>
    </contour>
  </outline>
</glyph>
<glyph name="f" format="1">
  <advance width="530"/>
  <unicode hex="0066"/>
  <outline>
    <contour>
      <point x="383" y="775" type="curve"/>
      <point x="421" y="740"/>
      <point x="432" y="709"/>
      <point x="436" y="643" type="curve"/>
      <point x="516" y="629"/>
      <point x="589" y="654"/>
      <point x="608" y="711" type="curve"/>
      <point x="582" y="795"/>
      <point x="544" y="849"/>
      <point x="428" y="873" type="curve"/>
      <point x="332" y="863"/>
      <point x="229" y="799"/>
      <point x="168" y="713" type="curve"/>
      <point x="198" y="477" type="line"/>
      <point x="168" y="344"/>
      <point x="117" y="186"/>
      <point x="63" y="47" type="curve"/>
      <point x="88" y="3"/>
      <point x="213" y="-17"/>
      <point x="274" y="22" type="curve"/>
      <point x="302" y="211"/>
      <point x="340" y="563"/>
      <point x="328" y="742" type="curve"/>
      <point x="339" y="759"/>
      <point x="358" y="769"/>
    </contour>
    <contour>
      <point x="208" y="468" type="line"/>
      <point x="49" y="471" type="line"/>
      <point x="20" y="429"/>
      <point x="21" y="400"/>
      <point x="49" y="368" type="curve"/>
      <point x="295" y="413" type="line"/>
      <point x="500" y="423" type="line"/>
      <point x="526" y="469"/>
      <point x="526" y="501"/>
      <point x="501" y="523" type="curve"/>
    </contour>
  </outline>
</glyph>
<glyph name="g" format="1">
  <advance width="674"/>
  <unicode hex="0067"/>
  <outline>
    <contour>
      <point x="432" y="572" type="move" name="top"/>
    </contour>
    <contour>
      <point x="398" y="76" type="line"/>
      <point x="387" y="-10"/>
      <point x="380" y="-71"/>
      <point x="357" y="-163" type="curve"/>
      <point x="346" y="-182"/>
      <point x="317" y="-194"/>
      <point x="289" y="-193" type="curve"/>
      <point x="243" y="-141"/>
      <point x="226" y="-103"/>
      <point x="217" y="-46" type="curve"/>
      <point x="157" y="-10"/>
      <point x="84" y="-36"/>
      <point x="37" y="-110" type="curve"/>
      <point x="60" y="-193"/>
      <point x="128" y="-255"/>
      <point x="239" y="-308" type="curve"/>
      <point x="370" y="-302"/>
      <point x="469" y="-270"/>
      <point x="528" y="-180" type="curve"/>
      <point x="543" y="-41"/>
      <point x="567" y="171"/>
      <point x="596" y="327" type="curve"/>
      <point x="692" y="504" type="line"/>
      <point x="665" y="557"/>
      <point x="615" y="569"/>
      <point x="502" y="548" type="curve"/>
      <point x="488" y="524"/>
      <point x="484" y="491"/>
      <point x="483" y="444" type="curve"/>
      <point x="464" y="358" type="line"/>
      <point x="449" y="274" type="line"/>
      <point x="415" y="177" type="line"/>
      <point x="439" y="154" type="line"/>
    </contour>
    <contour>
      <point x="449" y="274" type="line"/>
      <point x="395" y="230"/>
      <point x="330" y="178"/>
      <point x="271" y="132" type="curve"/>
      <point x="242" y="151"/>
      <point x="229" y="183"/>
      <point x="229" y="229" type="curve" smooth="yes"/>
      <point x="231" y="320"/>
      <point x="284" y="408"/>
      <point x="381" y="454" type="curve"/>
      <point x="414" y="434"/>
      <point x="441" y="401"/>
      <point x="463" y="357" type="curve"/>
      <point x="511" y="390" type="line"/>
      <point x="487" y="445"/>
      <point x="444" y="524"/>
      <point x="390" y="555" type="curve" smooth="yes"/>
      <point x="179" y="553"/>
      <point x="36" y="370"/>
      <point x="34" y="217" type="curve" smooth="yes"/>
      <point x="32" y="109"/>
      <point x="104" y="21"/>
      <point x="271" y="14" type="curve"/>
      <point x="343" y="89"/>
      <point x="439" y="179"/>
      <point x="485" y="227" type="curve"/>
    </contour>
  </outline>
</glyph>
<glyph name="h" format="1">
  <advance width="676"/>
  <unicode hex="0068"/>
  <outline>
    <contour>
      <point x="604" y="22" type="curve"/>
      <point x="592" y="121"/>
      <point x="590" y="222"/>
      <point x="596" y="295" type="curve"/>
      <point x="642" y="415" type="line"/>
      <point x="623" y="474"/>
      <point x="569" y="547"/>
      <point x="449" y="555" type="curve"/>
      <point x="342" y="489"/>
      <point x="277" y="419"/>
      <point x="199" y="337" type="curve"/>
      <point x="244" y="285" type="line"/>
      <point x="309" y="352"/>
      <point x="361" y="399"/>
      <point x="422" y="428" type="curve"/>
      <point x="445" y="416"/>
      <point x="455" y="401"/>
      <point x="460" y="375" type="curve"/>
      <point x="438" y="290"/>
      <point x="403" y="153"/>
      <point x="392" y="48" type="curve"/>
      <point x="453" y="-4"/>
      <point x="559" y="-15"/>
    </contour>
    <contour>
      <point x="23" y="47" type="curve"/>
      <point x="48" y="3"/>
      <point x="172" y="-17"/>
      <point x="234" y="22" type="curve"/>
      <point x="252" y="146"/>
      <point x="264" y="255"/>
      <point x="269" y="381" type="curve"/>
      <point x="248" y="412" type="line"/>
      <point x="288" y="460" type="line"/>
      <point x="289" y="587" type="line"/>
      <point x="354" y="827" type="line"/>
      <point x="296" y="849"/>
      <point x="238" y="847"/>
      <point x="145" y="795" type="curve"/>
      <point x="149" y="539" type="line"/>
      <point x="128" y="396"/>
      <point x="83" y="202"/>
    </contour>
  </outline>
</glyph>
<glyph name="i" format="1">
  <advance width="320"/>
  <unicode hex="0069"/>
  <outline>
    <contour>
      <point x="175" y="0" type="move" name="ogonek"/>
    </contour>
    <contour>
      <point x="226" y="610" type="curve" smooth="yes"/>
      <point x="277" y="610"/>
      <point x="319" y="653"/>
      <point x="319" y="704" type="curve" smooth="yes"/>
      <point x="318" y="756"/>
      <point x="277" y="798"/>
      <point x="225" y="798" type="curve" smooth="yes"/>
      <point x="171" y="798"/>
      <point x="126" y="756"/>
      <point x="127" y="704" type="curve" smooth="yes"/>
      <point x="127" y="653"/>
      <point x="171" y="610"/>
    </contour>
    <contour>
      <point x="114" y="337" type="line"/>
      <point x="92" y="236"/>
      <point x="64" y="151"/>
      <point x="22" y="49" type="curve"/>
      <point x="61" y="3"/>
      <point x="176" y="-17"/>
      <point x="233" y="22" type="curve"/>
      <point x="239" y="150"/>
      <point x="242" y="254"/>
      <point x="254" y="365" type="curve"/>
      <point x="303" y="532" type="line"/>
      <point x="255" y="566"/>
      <point x="194" y="563"/>
      <point x="107" y="523" type="curve"/>
    </contour>
  </outline>
</glyph>
<glyph name="j" format="1">
  <advance width="375"/>
  <unicode hex="006A"/>
  <outline>
    <contour>
      <point x="303" y="610" type="curve" smooth="yes"/>
      <point x="354" y="610"/>
      <point x="398" y="654"/>
      <point x="398" y="705" type="curve" smooth="yes"/>
      <point x="398" y="758"/>
      <point x="354" y="802"/>
      <point x="303" y="802" type="curve" smooth="yes"/>
      <point x="247" y="802"/>
      <point x="203" y="758"/>
      <point x="203" y="705" type="curve" smooth="yes"/>
      <point x="204" y="654"/>
      <point x="248" y="610"/>
    </contour>
    <contour>
      <point x="-11" y="-39" type="curve"/>
      <point x="-71" y="-9"/>
      <point x="-142" y="-33"/>
      <point x="-187" y="-115" type="curve"/>
      <point x="-163" y="-187"/>
      <point x="-105" y="-249"/>
      <point x="-25" y="-297" type="curve"/>
      <point x="107" y="-314"/>
      <point x="207" y="-282"/>
      <point x="239" y="-217" type="curve"/>
      <point x="251" y="-15"/>
      <point x="267" y="175"/>
      <point x="287" y="333" type="curve"/>
      <point x="381" y="510" type="line"/>
      <point x="342" y="561"/>
      <point x="287" y="571"/>
      <point x="177" y="548" type="curve"/>
      <point x="130" y="286"/>
      <point x="105" y="67"/>
      <point x="78" y="-182" type="curve"/>
      <point x="52" y="-193" type="line"/>
      <point x="19" y="-152"/>
      <point x="-3" y="-109"/>
    </contour>
  </outline>
</glyph>
<glyph name="k" format="1">
  <advance width="628"/>
  <unicode hex="006B"/>
  <outline>
    <contour>
      <point x="356" y="0" type="move" name="bottom"/>
    </contour>
    <contour>
      <point x="165" y="551" type="line"/>
      <point x="136" y="397"/>
      <point x="91" y="201"/>
      <point x="30" y="51" type="curve"/>
      <point x="55" y="1"/>
      <point x="180" y="-17"/>
      <point x="241" y="24" type="curve"/>
      <point x="256" y="145"/>
      <point x="260" y="250"/>
      <point x="268" y="322" type="curve"/>
      <point x="247" y="354" type="line"/>
      <point x="282" y="403" type="line"/>
      <point x="316" y="642"/>
      <point x="325" y="744"/>
      <point x="309" y="828" type="curve"/>
      <point x="266" y="841"/>
      <point x="194" y="848"/>
      <point x="123" y="779" type="curve"/>
    </contour>
    <contour>
      <point x="482" y="0" type="curve"/>
      <point x="567" y="35"/>
      <point x="606" y="118"/>
      <point x="564" y="164" type="curve"/>
      <point x="407" y="186"/>
      <point x="339" y="241"/>
      <point x="289" y="319" type="curve"/>
      <point x="259" y="271" type="line"/>
      <point x="360" y="337"/>
      <point x="462" y="375"/>
      <point x="586" y="399" type="curve"/>
      <point x="642" y="479"/>
      <point x="592" y="556"/>
      <point x="530" y="563" type="curve"/>
      <point x="405" y="494"/>
      <point x="327" y="419"/>
      <point x="230" y="312" type="curve"/>
      <point x="256" y="191"/>
      <point x="343" y="68"/>
    </contour>
  </outline>
</glyph>
<glyph name="l" format="1">
  <advance width="336"/>
  <unicode hex="006C"/>
  <outline>
    <contour>
      <point x="223" y="847" type="move" name="top"/>
    </contour>
    <contour>
      <point x="169" y="0" type="move" name="bottom"/>
    </contour>
    <contour>
      <point x="151" y="539" type="line"/>
      <point x="123" y="363"/>
      <point x="85" y="206"/>
      <point x="27" y="49" type="curve"/>
      <point x="50" y="3"/>
      <point x="190" y="-17"/>
      <point x="245" y="24" type="curve"/>
      <point x="262" y="208"/>
      <point x="274" y="407"/>
      <point x="288" y="589" type="curve"/>
      <point x="355" y="826" type="line"/>
      <point x="296" y="851"/>
      <point x="222" y="841"/>
      <point x="146" y="795" type="curve"/>
    </contour>
  </outline>
</glyph>
<glyph name="m" format="1">
  <advance width="988"/>
  <unicode hex="006D"/>
  <outline>
    <contour>
      <point x="573" y="22" type="curve"/>
      <point x="562" y="146"/>
      <point x="564" y="225"/>
      <point x="585" y="318" type="curve"/>
      <point x="634" y="365"/>
      <point x="675" y="400"/>
      <point x="730" y="428" type="curve"/>
      <point x="752" y="417"/>
      <point x="760" y="402"/>
      <point x="769" y="376" type="curve"/>
      <point x="747" y="298"/>
      <point x="717" y="161"/>
      <point x="705" y="49" type="curve"/>
      <point x="767" y="-3"/>
      <point x="872" y="-15"/>
      <point x="916" y="22" type="curve"/>
      <point x="905" y="114"/>
      <point x="901" y="214"/>
      <point x="905" y="278" type="curve"/>
      <point x="949" y="414" type="line"/>
      <point x="932" y="475"/>
      <point x="864" y="548"/>
      <point x="755" y="555" type="curve"/>
      <point x="689" y="517"/>
      <point x="617" y="452"/>
      <point x="566" y="400" type="curve"/>
      <point x="556" y="407" type="line"/>
      <point x="606" y="477" type="line"/>
      <point x="559" y="524"/>
      <point x="513" y="554"/>
      <point x="439" y="555" type="curve"/>
      <point x="350" y="501"/>
      <point x="298" y="449"/>
      <point x="255" y="399" type="curve"/>
      <point x="243" y="416" type="line"/>
      <point x="277" y="462" type="line"/>
      <point x="281" y="502"/>
      <point x="280" y="521"/>
      <point x="270" y="547" type="curve"/>
      <point x="218" y="563"/>
      <point x="148" y="559"/>
      <point x="88" y="504" type="curve"/>
      <point x="121" y="350" type="line"/>
      <point x="97" y="255"/>
      <point x="65" y="154"/>
      <point x="25" y="47" type="curve"/>
      <point x="51" y="3"/>
      <point x="175" y="-17"/>
      <point x="237" y="22" type="curve"/>
      <point x="250" y="124"/>
      <point x="260" y="215"/>
      <point x="264" y="307" type="curve"/>
      <point x="312" y="362"/>
      <point x="355" y="401"/>
      <point x="403" y="429" type="curve"/>
      <point x="432" y="420"/>
      <point x="444" y="406"/>
      <point x="459" y="382" type="curve"/>
      <point x="423" y="285"/>
      <point x="400" y="173"/>
      <point x="379" y="43" type="curve"/>
      <point x="396" y="10"/>
      <point x="485" y="-23"/>
    </contour>
  </outline>
</glyph>
<glyph name="n" format="1">
  <advance width="678"/>
  <unicode hex="006E"/>
  <outline>
    <contour>
      <point x="365" y="572" type="move" name="top"/>
    </contour>
    <contour>
      <point x="351" y="0" type="move" name="bottom"/>
    </contour>
    <contour>
      <point x="606" y="22" type="curve"/>
      <point x="593" y="114"/>
      <point x="591" y="215"/>
      <point x="594" y="278" type="curve"/>
      <point x="638" y="415" type="line"/>
      <point x="619" y="474"/>
      <point x="557" y="547"/>
      <point x="443" y="555" type="curve"/>
      <point x="334" y="489"/>
      <point x="266" y="420"/>
      <point x="196" y="337" type="curve"/>
      <point x="241" y="285" type="line"/>
      <point x="307" y="352"/>
      <point x="357" y="396"/>
      <point x="418" y="428" type="curve"/>
      <point x="441" y="416"/>
      <point x="451" y="400"/>
      <point x="457" y="375" type="curve"/>
      <point x="434" y="290"/>
      <point x="404" y="158"/>
      <point x="394" y="48" type="curve"/>
      <point x="455" y="-4"/>
      <point x="561" y="-15"/>
    </contour>
    <contour>
      <point x="121" y="350" type="line"/>
      <point x="97" y="255"/>
      <point x="65" y="154"/>
      <point x="25" y="47" type="curve"/>
      <point x="51" y="3"/>
      <point x="175" y="-17"/>
      <point x="237" y="22" type="curve"/>
      <point x="254" y="154"/>
      <point x="264" y="264"/>
      <point x="265" y="383" type="curve"/>
      <point x="243" y="416" type="line"/>
      <point x="277" y="462" type="line"/>
      <point x="281" y="502"/>
      <point x="280" y="521"/>
      <point x="270" y="554" type="curve"/>
      <point x="219" y="562"/>
      <point x="149" y="556"/>
      <point x="88" y="504" type="curve"/>
    </contour>
  </outline>
</glyph>
<glyph name="o" format="1">
  <advance width="604"/>
  <unicode hex="006F"/>
  <outline>
    <contour>
      <point x="351" y="572" type="move" name="top"/>
    </contour>
    <contour>
      <point x="27" y="244" type="curve" smooth="yes"/>
      <point x="27" y="361"/>
      <point x="171" y="566"/>
      <point x="364" y="566" type="curve" smooth="yes"/>
      <point x="466" y="566"/>
      <point x="583" y="408"/>
      <point x="585" y="306" type="curve" smooth="yes"/>
      <point x="586" y="165"/>
      <point x="414" y="0"/>
      <point x="252" y="0" type="curve"/>
      <point x="149" y="0"/>
      <point x="27" y="120"/>
    </contour>
    <contour>
      <point x="343" y="482" type="curve"/>
      <point x="264" y="420"/>
      <point x="208" y="327"/>
      <point x="200" y="238" type="curve"/>
      <point x="201" y="181"/>
      <point x="227" y="125"/>
      <point x="267" y="87" type="curve"/>
      <point x="352" y="138"/>
      <point x="400" y="199"/>
      <point x="421" y="281" type="curve"/>
      <point x="415" y="366"/>
      <point x="391" y="425"/>
    </contour>
  </outline>
</glyph>
<glyph name="p" format="1">
  <advance width="665"/>
  <unicode hex="0070"/>
  <outline>
    <contour>
      <point x="162" y="82" type="line"/>
      <point x="196" y="47"/>
      <point x="250" y="15"/>
      <point x="338" y="0" type="curve"/>
      <point x="487" y="61"/>
      <point x="609" y="149"/>
      <point x="655" y="303" type="curve"/>
      <point x="630" y="451"/>
      <point x="564" y="541"/>
      <point x="379" y="555" type="curve"/>
      <point x="310" y="491"/>
      <point x="268" y="422"/>
      <point x="195" y="337" type="curve"/>
      <point x="240" y="285" type="line"/>
      <point x="294" y="350"/>
      <point x="334" y="396"/>
      <point x="388" y="436" type="curve"/>
      <point x="436" y="416"/>
      <point x="474" y="370"/>
      <point x="478" y="312" type="curve"/>
      <point x="460" y="212"/>
      <point x="413" y="156"/>
      <point x="333" y="97" type="curve"/>
      <point x="277" y="107"/>
      <point x="237" y="129"/>
      <point x="208" y="150" type="curve"/>
    </contour>
    <contour>
      <point x="-19" y="-237" type="curve"/>
      <point x="16" y="-282"/>
      <point x="130" y="-300"/>
      <point x="194" y="-261" type="curve"/>
      <point x="219" y="-142"/>
      <point x="257" y="227"/>
      <point x="259" y="383" type="curve"/>
      <point x="236" y="416" type="line"/>
      <point x="270" y="462" type="line"/>
      <point x="275" y="502"/>
      <point x="274" y="521"/>
      <point x="261" y="553" type="curve"/>
      <point x="209" y="561"/>
      <point x="140" y="556"/>
      <point x="81" y="504" type="curve"/>
      <point x="119" y="330" type="line"/>
      <point x="103" y="178"/>
      <point x="45" y="-79"/>
    </contour>
  </outline>
</glyph>
<glyph name="q" format="1">
  <advance width="684"/>
  <unicode hex="0071"/>
  <outline>
    <contour>
      <point x="503" y="-126" type="line"/>
      <point x="541" y="27"/>
      <point x="572" y="185"/>
      <point x="602" y="338" type="curve"/>
      <point x="687" y="504" type="line"/>
      <point x="663" y="559"/>
      <point x="608" y="569"/>
      <point x="498" y="550" type="curve"/>
      <point x="482" y="522"/>
      <point x="479" y="488"/>
      <point x="482" y="440" type="curve"/>
      <point x="441" y="177" type="line"/>
      <point x="408" y="57"/>
      <point x="366" y="-72"/>
      <point x="325" y="-188" type="curve"/>
      <point x="325" y="-229"/>
      <point x="364" y="-273"/>
      <point x="467" y="-293" type="curve"/>
      <point x="546" y="-217"/>
      <point x="635" y="-126"/>
      <point x="672" y="-74" type="curve"/>
      <point x="672" y="-45"/>
      <point x="661" y="-30"/>
      <point x="635" y="-31" type="curve"/>
      <point x="610" y="-52"/>
      <point x="551" y="-106"/>
      <point x="513" y="-134" type="curve"/>
    </contour>
    <contour>
      <point x="474" y="286" type="line"/>
      <point x="421" y="242"/>
      <point x="346" y="178"/>
      <point x="288" y="132" type="curve"/>
      <point x="249" y="149"/>
      <point x="230" y="182"/>
      <point x="230" y="222" type="curve" smooth="yes"/>
      <point x="230" y="312"/>
      <point x="284" y="408"/>
      <point x="378" y="454" type="curve"/>
      <point x="416" y="431"/>
      <point x="441" y="399"/>
      <point x="473" y="342" type="curve"/>
      <point x="518" y="382" type="line"/>
      <point x="484" y="445"/>
      <point x="439" y="524"/>
      <point x="385" y="555" type="curve" smooth="yes"/>
      <point x="179" y="548"/>
      <point x="33" y="370"/>
      <point x="34" y="217" type="curve" smooth="yes"/>
      <point x="34" y="98"/>
      <point x="118" y="16"/>
      <point x="291" y="14" type="curve"/>
      <point x="360" y="89"/>
      <point x="466" y="192"/>
      <point x="510" y="238" type="curve"/>
    </contour>
  </outline>
</glyph>
<glyph name="r" format="1">
  <advance width="549"/>
  <unicode hex="0072"/>
  <outline>
    <contour>
      <point x="309" y="572" type="move" name="top"/>
    </contour>
    <contour>
      <point x="178" y="0" type="move" name="bottom"/>
    </contour>
    <contour>
      <point x="560" y="370" type="curve"/>
      <point x="556" y="475"/>
      <point x="495" y="538"/>
      <point x="413" y="555" type="curve"/>
      <point x="332" y="476"/>
      <point x="265" y="409"/>
      <point x="195" y="337" type="curve"/>
      <point x="239" y="294" type="line"/>
      <point x="292" y="346"/>
      <point x="335" y="384"/>
      <point x="369" y="416" type="curve"/>
      <point x="377" y="400"/>
      <point x="388" y="375"/>
      <point x="387" y="347" type="curve"/>
      <point x="442" y="318"/>
      <point x="511" y="324"/>
    </contour>
    <contour>
      <point x="123" y="350" type="line"/>
      <point x="98" y="255"/>
      <point x="67" y="154"/>
      <point x="26" y="47" type="curve"/>
      <point x="53" y="3"/>
      <point x="176" y="-17"/>
      <point x="238" y="22" type="curve"/>
      <point x="256" y="154"/>
      <point x="265" y="264"/>
      <point x="267" y="383" type="curve"/>
      <point x="244" y="416" type="line"/>
      <point x="278" y="462" type="line"/>
      <point x="282" y="504"/>
      <point x="282" y="523"/>
      <point x="271" y="554" type="curve"/>
      <point x="219" y="563"/>
      <point x="146" y="552"/>
      <point x="90" y="504" type="curve"/>
    </contour>
  </outline>
</glyph>
<glyph name="s" format="1">
  <advance width="558"/>
  <unicode hex="0073"/>
  <outline>
    <contour>
      <point x="319" y="572" type="move" name="top"/>
    </contour>
    <contour>
      <point x="278" y="0" type="move" name="bottom"/>
    </contour>
    <contour>
      <point x="511" y="190" type="curve"/>
      <point x="476" y="311"/>
      <point x="218" y="371"/>
      <point x="218" y="422" type="curve" smooth="yes"/>
      <point x="218" y="447"/>
      <point x="268" y="486"/>
      <point x="318" y="502" type="curve"/>
      <point x="349" y="471"/>
      <point x="362" y="437"/>
      <point x="371" y="391" type="curve"/>
      <point x="464" y="377"/>
      <point x="511" y="406"/>
      <point x="515" y="457" type="curve"/>
      <point x="483" y="522"/>
      <point x="434" y="561"/>
      <point x="342" y="577" type="curve"/>
      <point x="215" y="570"/>
      <point x="109" y="500"/>
      <point x="62" y="388" type="curve"/>
      <point x="102" y="264"/>
      <point x="342" y="206"/>
      <point x="343" y="159" type="curve" smooth="yes"/>
      <point x="343" y="124"/>
      <point x="293" y="84"/>
      <point x="231" y="69" type="curve"/>
      <point x="193" y="113"/>
      <point x="179" y="141"/>
      <point x="169" y="204" type="curve"/>
      <point x="88" y="231"/>
      <point x="45" y="181"/>
      <point x="20" y="121" type="curve"/>
      <point x="53" y="58"/>
      <point x="128" y="13"/>
      <point x="225" y="0" type="curve"/>
      <point x="367" y="5"/>
      <point x="480" y="73"/>
    </contour>
  </outline>
</glyph>
<glyph name="t" format="1">
  <advance width="538"/>
  <unicode hex="0074"/>
  <outline>
    <contour>
      <point x="273" y="0" type="move" name="bottom"/>
    </contour>
    <contour>
      <point x="223" y="545" type="line"/>
      <point x="71" y="549" type="line"/>
      <point x="43" y="507"/>
      <point x="43" y="478"/>
      <point x="72" y="446" type="curve"/>
      <point x="333" y="491" type="line"/>
      <point x="521" y="499" type="line"/>
      <point x="547" y="546"/>
      <point x="546" y="579"/>
      <point x="521" y="601" type="curve"/>
    </contour>
    <contour>
      <point x="292" y="70" type="line"/>
      <point x="305" y="227"/>
      <point x="325" y="358"/>
      <point x="335" y="521" type="curve"/>
      <point x="402" y="731" type="line"/>
      <point x="362" y="771"/>
      <point x="289" y="768"/>
      <point x="198" y="718" type="curve"/>
      <point x="214" y="514" type="line"/>
      <point x="184" y="377"/>
      <point x="156" y="267"/>
      <point x="98" y="101" type="curve"/>
      <point x="115" y="55"/>
      <point x="153" y="11"/>
      <point x="259" y="0" type="curve"/>
      <point x="361" y="21"/>
      <point x="447" y="77"/>
      <point x="502" y="125" type="curve"/>
      <point x="507" y="177"/>
      <point x="495" y="196"/>
      <point x="446" y="198" type="curve"/>
      <point x="390" y="154"/>
      <point x="326" y="116"/>
      <point x="247" y="91" type="curve"/>
    </contour>
  </outline>
</glyph>
<glyph name="u" format="1">
  <advance width="673"/>
  <unicode hex="0075"/>
  <outline>
    <contour>
      <point x="368" y="572" type="move" name="top"/>
    </contour>
    <contour>
      <point x="520" y="0" type="move" name="ogonek"/>
    </contour>
    <contour>
      <point x="464" y="548" type="curve"/>
      <point x="438" y="470"/>
      <point x="420" y="379"/>
      <point x="401" y="270" type="curve"/>
      <point x="385" y="174" type="line"/>
      <point x="411" y="151" type="line"/>
      <point x="366" y="48" type="line"/>
      <point x="428" y="-4"/>
      <point x="538" y="-15"/>
      <point x="581" y="22" type="curve"/>
      <point x="571" y="138"/>
      <point x="567" y="243"/>
      <point x="570" y="338" type="curve"/>
      <point x="657" y="504" type="line"/>
      <point x="633" y="554"/>
      <point x="578" y="564"/>
    </contour>
    <contour>
      <point x="82" y="546" type="curve"/>
      <point x="88" y="464"/>
      <point x="89" y="370"/>
      <point x="94" y="299" type="curve"/>
      <point x="24" y="142" type="line"/>
      <point x="39" y="82"/>
      <point x="88" y="20"/>
      <point x="259" y="0" type="curve"/>
      <point x="342" y="90"/>
      <point x="396" y="151"/>
      <point x="447" y="229" type="curve"/>
      <point x="402" y="273" type="line"/>
      <point x="366" y="220"/>
      <point x="322" y="177"/>
      <point x="271" y="128" type="curve"/>
      <point x="226" y="141"/>
      <point x="207" y="156"/>
      <point x="200" y="178" type="curve"/>
      <point x="247" y="300"/>
      <point x="285" y="428"/>
      <point x="288" y="503" type="curve"/>
      <point x="247" y="558"/>
      <point x="154" y="569"/>
    </contour>
  </outline>
</glyph>
<glyph name="v" format="1">
  <advance width="592"/>
  <unicode hex="0076"/>
  <outline>
    <contour>
      <point x="414" y="518" type="curve"/>
      <point x="460" y="396" type="line"/>
      <point x="438" y="287"/>
      <point x="383" y="198"/>
      <point x="309" y="115" type="curve"/>
      <point x="297" y="121" type="line"/>
      <point x="308" y="289"/>
      <point x="294" y="452"/>
      <point x="223" y="555" type="curve"/>
      <point x="139" y="561"/>
      <point x="74" y="533"/>
      <point x="37" y="456" type="curve"/>
      <point x="126" y="351" type="line"/>
      <point x="148" y="278"/>
      <point x="144" y="201"/>
      <point x="125" y="84" type="curve"/>
      <point x="168" y="16"/>
      <point x="268" y="-11"/>
      <point x="358" y="4" type="curve"/>
      <point x="508" y="169"/>
      <point x="586" y="351"/>
      <point x="607" y="540" type="curve"/>
      <point x="562" y="582"/>
      <point x="478" y="574"/>
    </contour>
  </outline>
</glyph>
<glyph name="w" format="1">
  <advance width="907"/>
  <unicode hex="0077"/>
  <outline>
    <contour>
      <point x="626" y="120" type="line"/>
      <point x="639" y="289"/>
      <point x="627" y="438"/>
      <point x="562" y="544" type="curve"/>
      <point x="474" y="553"/>
      <point x="425" y="528"/>
      <point x="386" y="466" type="curve"/>
      <point x="453" y="375" type="line"/>
      <point x="417" y="278"/>
      <point x="373" y="193"/>
      <point x="305" y="116" type="curve"/>
      <point x="293" y="120" type="line"/>
      <point x="307" y="288"/>
      <point x="291" y="447"/>
      <point x="224" y="555" type="curve"/>
      <point x="129" y="561"/>
      <point x="72" y="526"/>
      <point x="37" y="456" type="curve"/>
      <point x="127" y="351" type="line"/>
      <point x="146" y="263"/>
      <point x="139" y="192"/>
      <point x="121" y="84" type="curve"/>
      <point x="156" y="24"/>
      <point x="246" y="-14"/>
      <point x="342" y="4" type="curve"/>
      <point x="414" y="99"/>
      <point x="456" y="169"/>
      <point x="494" y="257" type="curve"/>
      <point x="504" y="252" type="line"/>
      <point x="498" y="196"/>
      <point x="491" y="155"/>
      <point x="472" y="90" type="curve"/>
      <point x="506" y="18"/>
      <point x="602" y="-13"/>
      <point x="688" y="3" type="curve"/>
      <point x="840" y="176"/>
      <point x="909" y="363"/>
      <point x="922" y="545" type="curve"/>
      <point x="878" y="584"/>
      <point x="796" y="576"/>
      <point x="730" y="518" type="curve"/>
      <point x="779" y="396" type="line"/>
      <point x="760" y="283"/>
      <point x="705" y="191"/>
      <point x="636" y="111" type="curve"/>
    </contour>
  </outline>
</glyph>
<glyph name="x" format="1">
  <advance width="612"/>
  <unicode hex="0078"/>
  <outline>
    <contour>
      <point x="333" y="296" type="curve"/>
      <point x="327" y="422"/>
      <point x="281" y="504"/>
      <point x="200" y="555" type="curve"/>
      <point x="120" y="543"/>
      <point x="59" y="480"/>
      <point x="77" y="387" type="curve"/>
      <point x="160" y="367"/>
      <point x="233" y="333"/>
      <point x="288" y="249" type="curve"/>
      <point x="292" y="143"/>
      <point x="344" y="60"/>
      <point x="427" y="0" type="curve"/>
      <point x="534" y="24"/>
      <point x="577" y="117"/>
      <point x="535" y="177" type="curve"/>
      <point x="450" y="196"/>
      <point x="377" y="236"/>
    </contour>
    <contour>
      <point x="483" y="555" type="curve"/>
      <point x="306" y="301" type="line"/>
      <point x="216" y="223"/>
      <point x="114" y="168"/>
      <point x="24" y="131" type="curve"/>
      <point x="3" y="71"/>
      <point x="36" y="8"/>
      <point x="141" y="0" type="curve"/>
      <point x="331" y="255" type="line"/>
      <point x="427" y="334"/>
      <point x="501" y="390"/>
      <point x="606" y="439" type="curve"/>
      <point x="609" y="506"/>
      <point x="574" y="562"/>
    </contour>
  </outline>
</glyph>
<glyph name="y" format="1">
  <advance width="628"/>
  <unicode hex="0079"/>
  <outline>
    <contour>
      <point x="363" y="572" type="move" name="top"/>
    </contour>
    <contour>
      <point x="80" y="546" type="curve"/>
      <point x="87" y="466"/>
      <point x="92" y="391"/>
      <point x="93" y="309" type="curve"/>
      <point x="42" y="175" type="line"/>
      <point x="58" y="102"/>
      <point x="141" y="48"/>
      <point x="275" y="32" type="curve"/>
      <point x="344" y="96"/>
      <point x="390" y="144"/>
      <point x="451" y="229" type="curve"/>
      <point x="405" y="273" type="line"/>
      <point x="368" y="225"/>
      <point x="334" y="193"/>
      <point x="282" y="153" type="curve"/>
      <point x="240" y="168"/>
      <point x="225" y="184"/>
      <point x="216" y="207" type="curve"/>
      <point x="254" y="314"/>
      <point x="280" y="400"/>
      <point x="292" y="502" type="curve"/>
      <point x="240" y="559"/>
      <point x="143" y="569"/>
    </contour>
    <contour>
      <point x="357" y="50" type="line"/>
      <point x="342" y="-26"/>
      <point x="332" y="-91"/>
      <point x="318" y="-173" type="curve"/>
      <point x="307" y="-188"/>
      <point x="283" y="-195"/>
      <point x="258" y="-193" type="curve"/>
      <point x="218" y="-150"/>
      <point x="200" y="-111"/>
      <point x="186" y="-45" type="curve"/>
      <point x="129" y="-12"/>
      <point x="58" y="-37"/>
      <point x="7" y="-109" type="curve"/>
      <point x="26" y="-185"/>
      <point x="94" y="-257"/>
      <point x="195" y="-302" type="curve"/>
      <point x="329" y="-305"/>
      <point x="424" y="-278"/>
      <point x="481" y="-203" type="curve"/>
      <point x="489" y="-67"/>
      <point x="526" y="195"/>
      <point x="548" y="326" type="curve"/>
      <point x="649" y="504" type="line"/>
      <point x="621" y="556"/>
      <point x="570" y="568"/>
      <point x="455" y="548" type="curve"/>
      <point x="440" y="492"/>
      <point x="424" y="395"/>
      <point x="405" y="273" type="curve"/>
      <point x="374" y="164" type="line"/>
      <point x="404" y="138" type="line"/>
    </contour>
  </outline>
</glyph>
<glyph name="z" format="1">
  <advance width="639"/>
  <unicode hex="007A"/>
  <outline>
    <contour>
      <point x="366" y="572" type="move" name="top"/>
    </contour>
    <contour>
      <point x="228" y="347" type="curve"/>
      <point x="236" y="381"/>
      <point x="251" y="419"/>
      <point x="274" y="445" type="curve"/>
      <point x="320" y="436"/>
      <point x="378" y="424"/>
      <point x="425" y="419" type="curve"/>
      <point x="427" y="409" type="line"/>
      <point x="314" y="283"/>
      <point x="36" y="207"/>
      <point x="32" y="82" type="curve" smooth="yes"/>
      <point x="30" y="52"/>
      <point x="38" y="23"/>
      <point x="58" y="0" type="curve"/>
      <point x="130" y="-5"/>
      <point x="169" y="2"/>
      <point x="194" y="28" type="curve"/>
      <point x="183" y="65" type="line"/>
      <point x="190" y="68" type="line"/>
      <point x="250" y="52"/>
      <point x="339" y="33"/>
      <point x="442" y="0" type="curve"/>
      <point x="526" y="27"/>
      <point x="572" y="72"/>
      <point x="597" y="129" type="curve"/>
      <point x="586" y="189"/>
      <point x="536" y="216"/>
      <point x="446" y="193" type="curve"/>
      <point x="437" y="166"/>
      <point x="429" y="139"/>
      <point x="415" y="110" type="curve"/>
      <point x="354" y="118"/>
      <point x="277" y="122"/>
      <point x="222" y="129" type="curve"/>
      <point x="222" y="140" type="line"/>
      <point x="371" y="211"/>
      <point x="608" y="347"/>
      <point x="640" y="485" type="curve"/>
      <point x="626" y="546"/>
      <point x="574" y="562"/>
      <point x="489" y="555" type="curve"/>
      <point x="464" y="491" type="line"/>
      <point x="375" y="509"/>
      <point x="307" y="532"/>
      <point x="221" y="556" type="curve"/>
      <point x="139" y="535"/>
      <point x="97" y="475"/>
      <point x="71" y="410" type="curve"/>
      <point x="89" y="356"/>
      <point x="134" y="336"/>
    </contour>
  </outline>
</glyph>
<glyph name="braceleft" format="1">
  <advance width="656"/>
  <unicode hex="007B"/>
  <outline>
    <contour>
      <point x="583" y="769" type="line"/>
      <point x="629" y="785"/>
      <point x="655" y="812"/>
      <point x="655" y="852" type="curve"/>
      <point x="595" y="898"/>
      <point x="529" y="927"/>
      <point x="456" y="927" type="curve" smooth="yes"/>
      <point x="395" y="927"/>
      <point x="328" y="902"/>
      <point x="284" y="854" type="curve"/>
      <point x="349" y="675"/>
      <point x="263" y="504"/>
      <point x="136" y="504" type="curve"/>
      <point x="106" y="407" type="line"/>
      <point x="166" y="381"/>
      <point x="206" y="299"/>
      <point x="203" y="222" type="curve" smooth="yes"/>
      <point x="200" y="142"/>
      <point x="160" y="67"/>
      <point x="87" y="14" type="curve"/>
      <point x="112" y="-60"/>
      <point x="190" y="-116"/>
      <point x="265" y="-133" type="curve"/>
      <point x="344" y="-129"/>
      <point x="421" y="-106"/>
      <point x="469" y="-84" type="curve"/>
      <point x="468" y="-57"/>
      <point x="452" y="-26"/>
      <point x="432" y="-14" type="curve"/>
      <point x="300" y="-39" type="line"/>
      <point x="280" y="-11" type="line"/>
      <point x="358" y="55"/>
      <point x="405" y="128"/>
      <point x="408" y="209" type="curve" smooth="yes"/>
      <point x="410" y="290"/>
      <point x="368" y="356"/>
      <point x="281" y="409" type="curve"/>
      <point x="286" y="430" type="line"/>
      <point x="387" y="428"/>
      <point x="463" y="496"/>
      <point x="486" y="602" type="curve" smooth="yes"/>
      <point x="500" y="663"/>
      <point x="493" y="740"/>
      <point x="462" y="820" type="curve"/>
      <point x="491" y="837" type="line"/>
    </contour>
  </outline>
</glyph>
<glyph name="bar" format="1">
  <advance width="339"/>
  <unicode hex="007C"/>
  <outline>
    <contour>
      <point x="142" y="586" type="line"/>
      <point x="118" y="397"/>
      <point x="41" y="9"/>
      <point x="-15" y="-156" type="curve"/>
      <point x="7" y="-202"/>
      <point x="130" y="-221"/>
      <point x="186" y="-184" type="curve"/>
      <point x="205" y="-9"/>
      <point x="270" y="381"/>
      <point x="283" y="475" type="curve"/>
      <point x="405" y="988" type="line"/>
      <point x="383" y="998"/>
      <point x="358" y="1003"/>
      <point x="329" y="1003" type="curve" smooth="yes"/>
      <point x="288" y="1003"/>
      <point x="247" y="991"/>
      <point x="197" y="965" type="curve"/>
    </contour>
  </outline>
</glyph>
<glyph name="braceright" format="1">
  <advance width="657"/>
  <unicode hex="007D"/>
  <outline>
    <contour>
      <point x="498" y="578" type="curve" smooth="yes"/>
      <point x="501" y="658"/>
      <point x="540" y="733"/>
      <point x="614" y="787" type="curve"/>
      <point x="588" y="860"/>
      <point x="509" y="924"/>
      <point x="431" y="934" type="curve" smooth="yes"/>
      <point x="357" y="931"/>
      <point x="280" y="908"/>
      <point x="232" y="885" type="curve"/>
      <point x="234" y="858"/>
      <point x="249" y="826"/>
      <point x="269" y="814" type="curve"/>
      <point x="402" y="840" type="line"/>
      <point x="422" y="811" type="line"/>
      <point x="343" y="746"/>
      <point x="296" y="673"/>
      <point x="294" y="592" type="curve" smooth="yes"/>
      <point x="291" y="511"/>
      <point x="332" y="445"/>
      <point x="421" y="393" type="curve"/>
      <point x="414" y="372" type="line"/>
      <point x="315" y="374"/>
      <point x="238" y="305"/>
      <point x="216" y="199" type="curve" smooth="yes"/>
      <point x="201" y="138"/>
      <point x="207" y="61"/>
      <point x="239" y="-19" type="curve"/>
      <point x="210" y="-37" type="line"/>
      <point x="117" y="32" type="line"/>
      <point x="71" y="16"/>
      <point x="45" y="-10"/>
      <point x="45" y="-52" type="curve"/>
      <point x="108" y="-96"/>
      <point x="170" y="-121"/>
      <point x="244" y="-128" type="curve"/>
      <point x="310" y="-125"/>
      <point x="374" y="-102"/>
      <point x="417" y="-54" type="curve"/>
      <point x="353" y="126"/>
      <point x="437" y="297"/>
      <point x="565" y="297" type="curve"/>
      <point x="595" y="394" type="line"/>
      <point x="535" y="420"/>
      <point x="495" y="503"/>
    </contour>
  </outline>
</glyph>
<glyph name="asciitilde" format="1">
  <advance width="651"/>
  <unicode hex="007E"/>
  <outline>
    <contour>
      <point x="191" y="449" type="curve"/>
      <point x="117" y="410"/>
      <point x="73" y="373"/>
      <point x="27" y="319" type="curve"/>
      <point x="23" y="282"/>
      <point x="82" y="260"/>
      <point x="126" y="267" type="curve"/>
      <point x="192" y="346" type="line"/>
      <point x="200" y="348" type="line"/>
      <point x="264" y="300"/>
      <point x="337" y="266"/>
      <point x="457" y="258" type="curve"/>
      <point x="555" y="290"/>
      <point x="596" y="329"/>
      <point x="646" y="393" type="curve"/>
      <point x="649" y="425"/>
      <point x="605" y="443"/>
      <point x="556" y="436" type="curve"/>
      <point x="487" y="356" type="line"/>
      <point x="480" y="356" type="line"/>
      <point x="404" y="406"/>
      <point x="331" y="443"/>
    </contour>
  </outline>
</glyph>
<glyph name="cent" format="1">
  <advance width="596"/>
  <unicode hex="00A2"/>
  <outline>
    <contour>
      <point x="444" y="642" type="curve"/>
      <point x="371" y="451" type="line"/>
      <point x="276" y="-130" type="line"/>
      <point x="243" y="-139"/>
      <point x="215" y="-124"/>
      <point x="200" y="-93" type="curve"/>
      <point x="270" y="114" type="line"/>
      <point x="372" y="673" type="line"/>
      <point x="406" y="684"/>
      <point x="430" y="673"/>
    </contour>
    <contour>
      <point x="409" y="332" type="curve"/>
      <point x="401" y="404"/>
      <point x="375" y="443"/>
      <point x="351" y="472" type="curve"/>
      <point x="319" y="463" type="line"/>
      <point x="257" y="402"/>
      <point x="228" y="327"/>
      <point x="227" y="265" type="curve" smooth="yes"/>
      <point x="224" y="200"/>
      <point x="241" y="147"/>
      <point x="300" y="103" type="curve"/>
      <point x="373" y="120"/>
      <point x="442" y="152"/>
      <point x="495" y="194" type="curve"/>
      <point x="537" y="194"/>
      <point x="559" y="170"/>
      <point x="546" y="118" type="curve"/>
      <point x="493" y="65"/>
      <point x="389" y="14"/>
      <point x="274" y="0" type="curve"/>
      <point x="95" y="26"/>
      <point x="34" y="127"/>
      <point x="36" y="233" type="curve" smooth="yes"/>
      <point x="37" y="309"/>
      <point x="68" y="361"/>
      <point x="111" y="411" type="curve"/>
      <point x="180" y="479"/>
      <point x="271" y="541"/>
      <point x="384" y="564" type="curve"/>
      <point x="498" y="545"/>
      <point x="546" y="493"/>
      <point x="579" y="409" type="curve"/>
      <point x="557" y="345"/>
      <point x="491" y="321"/>
    </contour>
  </outline>
</glyph>
<glyph name="sterling" format="1">
  <advance width="690"/>
  <unicode hex="00A3"/>
  <outline>
    <contour>
      <point x="557" y="186" type="curve"/>
      <point x="468" y="113" type="line"/>
      <point x="405" y="111"/>
      <point x="321" y="118"/>
      <point x="232" y="144" type="curve"/>
      <point x="269" y="102" type="line"/>
      <point x="342" y="255"/>
      <point x="392" y="471"/>
      <point x="370" y="640" type="curve"/>
      <point x="387" y="656"/>
      <point x="409" y="668"/>
      <point x="433" y="672" type="curve"/>
      <point x="462" y="632"/>
      <point x="472" y="600"/>
      <point x="466" y="537" type="curve"/>
      <point x="562" y="522"/>
      <point x="634" y="546"/>
      <point x="653" y="603" type="curve"/>
      <point x="632" y="678"/>
      <point x="600" y="732"/>
      <point x="457" y="766" type="curve"/>
      <point x="344" y="752"/>
      <point x="246" y="692"/>
      <point x="208" y="645" type="curve"/>
      <point x="250" y="489" type="line"/>
      <point x="230" y="362"/>
      <point x="192" y="249"/>
      <point x="137" y="137" type="curve"/>
      <point x="189" y="155" type="line"/>
      <point x="93" y="198" type="line"/>
      <point x="18" y="142"/>
      <point x="12" y="50"/>
      <point x="128" y="0" type="curve"/>
      <point x="193" y="8"/>
      <point x="229" y="31"/>
      <point x="249" y="81" type="curve"/>
      <point x="200" y="66" type="line"/>
      <point x="322" y="13"/>
      <point x="437" y="5"/>
      <point x="580" y="0" type="curve"/>
      <point x="649" y="97"/>
      <point x="634" y="160"/>
    </contour>
    <contour>
      <point x="558" y="412" type="curve"/>
      <point x="256" y="382" type="line"/>
      <point x="81" y="396" type="line"/>
      <point x="62" y="363"/>
      <point x="58" y="339"/>
      <point x="71" y="322" type="curve"/>
      <point x="544" y="334" type="line"/>
      <point x="568" y="371"/>
      <point x="573" y="401"/>
    </contour>
  </outline>
</glyph>
<glyph name="currency" format="1">
  <advance width="811"/>
  <unicode hex="00A4"/>
  <outline>
    <contour>
      <point x="319" y="228" type="line"/>
      <point x="163" y="44" type="line"/>
      <point x="62" y="50"/>
      <point x="33" y="113"/>
      <point x="67" y="163" type="curve"/>
      <point x="277" y="271" type="line"/>
    </contour>
    <contour>
      <point x="757" y="174" type="line"/>
      <point x="791" y="124"/>
      <point x="763" y="61"/>
      <point x="661" y="55" type="curve"/>
      <point x="505" y="239" type="line"/>
      <point x="548" y="282" type="line"/>
    </contour>
    <contour>
      <point x="542" y="527" type="line"/>
      <point x="698" y="709" type="line"/>
      <point x="800" y="703"/>
      <point x="829" y="640"/>
      <point x="795" y="590" type="curve"/>
      <point x="584" y="483" type="line"/>
    </contour>
    <contour>
      <point x="95" y="580" type="line"/>
      <point x="62" y="630"/>
      <point x="92" y="693"/>
      <point x="193" y="698" type="curve"/>
      <point x="346" y="512" type="line"/>
      <point x="304" y="470" type="line"/>
    </contour>
    <contour>
      <point x="159" y="343" type="curve" smooth="yes"/>
      <point x="159" y="456"/>
      <point x="302" y="657"/>
      <point x="495" y="657" type="curve" smooth="yes"/>
      <point x="597" y="657"/>
      <point x="715" y="503"/>
      <point x="717" y="403" type="curve" smooth="yes"/>
      <point x="717" y="265"/>
      <point x="545" y="104"/>
      <point x="383" y="104" type="curve"/>
      <point x="280" y="104"/>
      <point x="159" y="222"/>
    </contour>
    <contour>
      <point x="474" y="574" type="curve"/>
      <point x="396" y="514"/>
      <point x="339" y="422"/>
      <point x="331" y="336" type="curve"/>
      <point x="332" y="282"/>
      <point x="358" y="226"/>
      <point x="398" y="190" type="curve"/>
      <point x="484" y="240"/>
      <point x="531" y="299"/>
      <point x="552" y="378" type="curve"/>
      <point x="546" y="462"/>
      <point x="522" y="518"/>
    </contour>
  </outline>
</glyph>
<glyph name="yen" format="1">
  <advance width="707"/>
  <unicode hex="00A5"/>
  <outline>
    <contour>
      <point x="299" y="218" type="line"/>
      <point x="79" y="219" type="line"/>
      <point x="52" y="188"/>
      <point x="49" y="136"/>
      <point x="75" y="115" type="curve"/>
      <point x="312" y="153" type="line"/>
    </contour>
    <contour>
      <point x="296" y="378" type="line"/>
      <point x="88" y="391" type="line"/>
      <point x="61" y="360"/>
      <point x="58" y="308"/>
      <point x="84" y="286" type="curve"/>
      <point x="317" y="311" type="line"/>
    </contour>
    <contour>
      <point x="439" y="322" type="line"/>
      <point x="674" y="326" type="line"/>
      <point x="708" y="370"/>
      <point x="706" y="410"/>
      <point x="673" y="425" type="curve"/>
      <point x="454" y="380" type="line"/>
    </contour>
    <contour>
      <point x="416" y="156" type="line"/>
      <point x="660" y="165" type="line"/>
      <point x="694" y="205"/>
      <point x="685" y="256"/>
      <point x="659" y="268" type="curve"/>
      <point x="425" y="232" type="line"/>
    </contour>
    <contour>
      <point x="97" y="663" type="curve"/>
      <point x="157" y="567"/>
      <point x="228" y="436"/>
      <point x="296" y="294" type="curve"/>
      <point x="275" y="223"/>
      <point x="250" y="121"/>
      <point x="222" y="44" type="curve"/>
      <point x="256" y="-1"/>
      <point x="384" y="-17"/>
      <point x="433" y="22" type="curve"/>
      <point x="441" y="143"/>
      <point x="448" y="244"/>
      <point x="464" y="338" type="curve"/>
      <point x="535" y="421"/>
      <point x="612" y="496"/>
      <point x="661" y="561" type="curve" smooth="yes"/>
      <point x="701" y="613"/>
      <point x="721" y="654"/>
      <point x="725" y="713" type="curve"/>
      <point x="684" y="760"/>
      <point x="603" y="775"/>
      <point x="498" y="725" type="curve"/>
      <point x="544" y="548" type="line"/>
      <point x="414" y="389" type="line"/>
      <point x="386" y="333" type="line"/>
      <point x="379" y="333" type="line"/>
      <point x="309" y="537" type="line"/>
      <point x="298" y="746" type="line"/>
      <point x="226" y="773"/>
      <point x="148" y="749"/>
    </contour>
  </outline>
</glyph>
<glyph name="brokenbar" format="1">
  <advance width="341"/>
  <unicode hex="00A6"/>
  <outline>
    <contour>
      <point x="179" y="771" type="line"/>
      <point x="160" y="674"/>
      <point x="140" y="613"/>
      <point x="106" y="499" type="curve"/>
      <point x="141" y="460"/>
      <point x="254" y="451"/>
      <point x="306" y="487" type="curve"/>
      <point x="316" y="593"/>
      <point x="328" y="681"/>
      <point x="332" y="723" type="curve"/>
      <point x="409" y="977" type="line"/>
      <point x="392" y="997"/>
      <point x="357" y="1011"/>
      <point x="313" y="1011" type="curve" smooth="yes"/>
      <point x="280" y="1011"/>
      <point x="243" y="1004"/>
      <point x="203" y="986" type="curve"/>
    </contour>
    <contour>
      <point x="56" y="112" type="line"/>
      <point x="37" y="15"/>
      <point x="17" y="-48"/>
      <point x="-17" y="-161" type="curve"/>
      <point x="9" y="-201"/>
      <point x="131" y="-221"/>
      <point x="184" y="-184" type="curve"/>
      <point x="193" y="-77"/>
      <point x="205" y="22"/>
      <point x="208" y="64" type="curve"/>
      <point x="276" y="307" type="line"/>
      <point x="252" y="325"/>
      <point x="222" y="334"/>
      <point x="185" y="334" type="curve" smooth="yes"/>
      <point x="155" y="334"/>
      <point x="121" y="330"/>
      <point x="80" y="317" type="curve"/>
    </contour>
  </outline>
</glyph>
<glyph name="section" format="1">
  <advance width="670"/>
  <unicode hex="00A7"/>
  <outline>
    <contour>
      <point x="420" y="759" type="curve"/>
      <point x="267" y="745"/>
      <point x="163" y="682"/>
      <point x="98" y="555" type="curve"/>
      <point x="108" y="501"/>
      <point x="149" y="463"/>
      <point x="212" y="423" type="curve"/>
      <point x="137" y="394"/>
      <point x="83" y="342"/>
      <point x="45" y="266" type="curve"/>
      <point x="71" y="98"/>
      <point x="395" y="57"/>
      <point x="395" y="-15" type="curve" smooth="yes"/>
      <point x="395" y="-73"/>
      <point x="339" y="-119"/>
      <point x="268" y="-136" type="curve"/>
      <point x="209" y="-77"/>
      <point x="191" y="-36"/>
      <point x="175" y="30" type="curve"/>
      <point x="86" y="60"/>
      <point x="29" y="-1"/>
      <point x="-16" y="-101" type="curve"/>
      <point x="33" y="-148"/>
      <point x="133" y="-208"/>
      <point x="258" y="-226" type="curve"/>
      <point x="437" y="-207"/>
      <point x="568" y="-124"/>
      <point x="595" y="22" type="curve"/>
      <point x="578" y="58"/>
      <point x="542" y="85"/>
      <point x="506" y="109" type="curve"/>
      <point x="587" y="153"/>
      <point x="636" y="220"/>
      <point x="649" y="305" type="curve"/>
      <point x="582" y="449"/>
      <point x="285" y="501"/>
      <point x="285" y="577" type="curve" smooth="yes"/>
      <point x="285" y="609"/>
      <point x="351" y="653"/>
      <point x="407" y="669" type="curve"/>
      <point x="439" y="640"/>
      <point x="461" y="605"/>
      <point x="474" y="532" type="curve"/>
      <point x="579" y="516"/>
      <point x="631" y="542"/>
      <point x="649" y="605" type="curve"/>
      <point x="602" y="693"/>
      <point x="521" y="746"/>
    </contour>
    <contour>
      <point x="483" y="250" type="curve" smooth="yes"/>
      <point x="485" y="215"/>
      <point x="465" y="184"/>
      <point x="426" y="154" type="curve"/>
      <point x="335" y="198"/>
      <point x="230" y="249"/>
      <point x="212" y="301" type="curve" smooth="yes"/>
      <point x="212" y="326"/>
      <point x="254" y="361"/>
      <point x="290" y="381" type="curve"/>
      <point x="360" y="345"/>
      <point x="442" y="310"/>
    </contour>
  </outline>
</glyph>
<glyph name="dieresis" format="1">
  <advance width="437"/>
  <unicode hex="00A8"/>
  <outline>
    <contour>
      <point x="280" y="572" type="move" name="_top"/>
    </contour>
    <contour>
      <point x="175" y="628" type="curve" smooth="yes"/>
      <point x="221" y="628"/>
      <point x="257" y="665"/>
      <point x="257" y="710" type="curve" smooth="yes"/>
      <point x="257" y="754"/>
      <point x="221" y="791"/>
      <point x="175" y="791" type="curve" smooth="yes"/>
      <point x="129" y="791"/>
      <point x="91" y="754"/>
      <point x="91" y="710" type="curve" smooth="yes"/>
      <point x="91" y="665"/>
      <point x="129" y="628"/>
    </contour>
    <contour>
      <point x="422" y="656" type="curve" smooth="yes"/>
      <point x="451" y="656"/>
      <point x="475" y="681"/>
      <point x="475" y="710" type="curve" smooth="yes"/>
      <point x="475" y="739"/>
      <point x="451" y="762"/>
      <point x="422" y="762" type="curve" smooth="yes"/>
      <point x="391" y="762"/>
      <point x="365" y="739"/>
      <point x="365" y="710" type="curve" smooth="yes"/>
      <point x="365" y="681"/>
      <point x="391" y="656"/>
    </contour>
  </outline>
</glyph>
<glyph name="copyright" format="1">
  <advance width="873"/>
  <unicode hex="00A9"/>
  <outline>
    <contour>
      <point x="43" y="365" type="curve"/>
      <point x="49" y="165"/>
      <point x="167" y="21"/>
      <point x="405" y="-6" type="curve"/>
      <point x="705" y="20"/>
      <point x="835" y="196"/>
      <point x="874" y="400" type="curve"/>
      <point x="840" y="602"/>
      <point x="785" y="740"/>
      <point x="502" y="769" type="curve"/>
      <point x="236" y="735"/>
      <point x="83" y="573"/>
    </contour>
    <contour>
      <point x="811" y="398" type="curve"/>
      <point x="776" y="225"/>
      <point x="676" y="67"/>
      <point x="410" y="42" type="curve"/>
      <point x="231" y="71"/>
      <point x="121" y="177"/>
      <point x="106" y="364" type="curve"/>
      <point x="135" y="542"/>
      <point x="282" y="688"/>
      <point x="497" y="721" type="curve"/>
      <point x="738" y="678"/>
      <point x="776" y="572"/>
    </contour>
    <contour>
      <point x="671" y="478" type="curve"/>
      <point x="651" y="553"/>
      <point x="621" y="599"/>
      <point x="522" y="616" type="curve"/>
      <point x="426" y="597"/>
      <point x="350" y="545"/>
      <point x="293" y="487" type="curve"/>
      <point x="257" y="446"/>
      <point x="231" y="402"/>
      <point x="230" y="339" type="curve" smooth="yes"/>
      <point x="229" y="250"/>
      <point x="279" y="165"/>
      <point x="429" y="144" type="curve"/>
      <point x="517" y="155"/>
      <point x="607" y="198"/>
      <point x="651" y="242" type="curve"/>
      <point x="662" y="286"/>
      <point x="644" y="306"/>
      <point x="609" y="306" type="curve"/>
      <point x="564" y="270"/>
      <point x="504" y="243"/>
      <point x="451" y="229" type="curve"/>
      <point x="401" y="266"/>
      <point x="387" y="311"/>
      <point x="389" y="366" type="curve" smooth="yes"/>
      <point x="390" y="418"/>
      <point x="414" y="481"/>
      <point x="467" y="532" type="curve"/>
      <point x="491" y="538" type="line"/>
      <point x="510" y="507"/>
      <point x="524" y="476"/>
      <point x="520" y="422" type="curve"/>
      <point x="598" y="411"/>
      <point x="654" y="430"/>
    </contour>
  </outline>
</glyph>
<glyph name="ordfeminine" format="1">
  <advance width="513"/>
  <unicode hex="00AA"/>
  <outline>
    <contour>
      <point x="360" y="536" type="line"/>
      <point x="320" y="496"/>
      <point x="284" y="462"/>
      <point x="246" y="423" type="curve"/>
      <point x="228" y="437"/>
      <point x="216" y="460"/>
      <point x="216" y="493" type="curve" smooth="yes"/>
      <point x="216" y="556"/>
      <point x="252" y="629"/>
      <point x="319" y="668" type="curve"/>
      <point x="339" y="651"/>
      <point x="356" y="627"/>
      <point x="369" y="600" type="curve"/>
      <point x="402" y="628" type="line"/>
      <point x="385" y="672"/>
      <point x="351" y="734"/>
      <point x="315" y="761" type="curve"/>
      <point x="167" y="759"/>
      <point x="69" y="612"/>
      <point x="69" y="489" type="curve" smooth="yes"/>
      <point x="70" y="404"/>
      <point x="123" y="332"/>
      <point x="239" y="328" type="curve"/>
      <point x="288" y="387"/>
      <point x="354" y="460"/>
      <point x="385" y="497" type="curve"/>
    </contour>
    <contour>
      <point x="397" y="757" type="curve"/>
      <point x="384" y="735"/>
      <point x="381" y="707"/>
      <point x="382" y="668" type="curve"/>
      <point x="366" y="602" type="line"/>
      <point x="356" y="535" type="line"/>
      <point x="324" y="438" type="line"/>
      <point x="342" y="423" type="line"/>
      <point x="312" y="355" type="line"/>
      <point x="362" y="311"/>
      <point x="456" y="303"/>
      <point x="488" y="332" type="curve"/>
      <point x="480" y="426"/>
      <point x="478" y="510"/>
      <point x="480" y="586" type="curve"/>
      <point x="550" y="720" type="line"/>
      <point x="534" y="759"/>
      <point x="488" y="767"/>
    </contour>
  </outline>
</glyph>
<glyph name="guillemotleft" format="1">
  <advance width="620"/>
  <unicode hex="00AB"/>
  <outline>
    <contour>
      <point x="285" y="256" type="curve"/>
      <point x="222" y="306" type="line"/>
      <point x="160" y="351" type="line"/>
      <point x="315" y="461" type="line"/>
      <point x="358" y="526"/>
      <point x="346" y="579"/>
      <point x="301" y="597" type="curve"/>
      <point x="177" y="487" type="line"/>
      <point x="73" y="409" type="line"/>
      <point x="64" y="388"/>
      <point x="58" y="366"/>
      <point x="59" y="344" type="curve"/>
      <point x="221" y="124" type="line"/>
      <point x="270" y="123"/>
      <point x="303" y="192"/>
    </contour>
    <contour>
      <point x="547" y="256" type="curve"/>
      <point x="465" y="306" type="line"/>
      <point x="403" y="351" type="line"/>
      <point x="579" y="461" type="line"/>
      <point x="622" y="526"/>
      <point x="612" y="579"/>
      <point x="565" y="597" type="curve"/>
      <point x="451" y="510" type="line"/>
      <point x="316" y="409" type="line"/>
      <point x="307" y="388"/>
      <point x="302" y="366"/>
      <point x="302" y="344" type="curve"/>
      <point x="483" y="124" type="line"/>
      <point x="532" y="123"/>
      <point x="564" y="192"/>
    </contour>
  </outline>
</glyph>
<glyph name="logicalnot" format="1">
  <advance width="1001"/>
  <unicode hex="00AC"/>
  <outline>
    <contour>
      <point x="560" y="416" type="line"/>
      <point x="89" y="421" type="line"/>
      <point x="65" y="387"/>
      <point x="61" y="350"/>
      <point x="76" y="332" type="curve"/>
      <point x="863" y="342" type="line"/>
      <point x="824" y="182" type="line"/>
      <point x="852" y="159"/>
      <point x="889" y="154"/>
      <point x="910" y="170" type="curve"/>
      <point x="951" y="361" type="line" smooth="yes"/>
      <point x="959" y="397"/>
      <point x="958" y="425"/>
      <point x="942" y="435" type="curve"/>
    </contour>
  </outline>
</glyph>
<glyph name="registered" format="1">
  <advance width="584"/>
  <unicode hex="00AE"/>
  <outline>
    <contour>
      <point x="323" y="516" type="line"/>
      <point x="325" y="461"/>
      <point x="354" y="414"/>
      <point x="407" y="390" type="curve"/>
      <point x="441" y="400"/>
      <point x="461" y="427"/>
      <point x="446" y="451" type="curve"/>
      <point x="388" y="460"/>
      <point x="367" y="477"/>
      <point x="347" y="520" type="curve"/>
    </contour>
    <contour>
      <point x="390" y="506" type="curve"/>
      <point x="441" y="532"/>
      <point x="463" y="553"/>
      <point x="464" y="595" type="curve"/>
      <point x="464" y="636"/>
      <point x="415" y="674"/>
      <point x="340" y="674" type="curve"/>
      <point x="305" y="674"/>
      <point x="272" y="670"/>
      <point x="246" y="662" type="curve"/>
      <point x="240" y="654"/>
      <point x="242" y="641"/>
      <point x="251" y="633" type="curve"/>
      <point x="270" y="630" type="line"/>
      <point x="271" y="585" type="line"/>
      <point x="260" y="520"/>
      <point x="249" y="473"/>
      <point x="228" y="408" type="curve"/>
      <point x="240" y="390"/>
      <point x="290" y="385"/>
      <point x="308" y="399" type="curve"/>
      <point x="314" y="461"/>
      <point x="317" y="505"/>
      <point x="321" y="558" type="curve"/>
      <point x="343" y="650" type="line"/>
      <point x="321" y="636" type="line"/>
      <point x="373" y="641"/>
      <point x="396" y="618"/>
      <point x="396" y="590" type="curve"/>
      <point x="396" y="572"/>
      <point x="389" y="556"/>
      <point x="373" y="541" type="curve"/>
      <point x="351" y="533"/>
      <point x="330" y="528"/>
      <point x="297" y="528" type="curve"/>
      <point x="304" y="501" type="line"/>
      <point x="333" y="502"/>
      <point x="361" y="502"/>
    </contour>
    <contour>
      <point x="93" y="520" type="curve"/>
      <point x="97" y="400"/>
      <point x="168" y="314"/>
      <point x="310" y="299" type="curve"/>
      <point x="489" y="315"/>
      <point x="567" y="420"/>
      <point x="590" y="541" type="curve"/>
      <point x="569" y="662"/>
      <point x="537" y="744"/>
      <point x="368" y="761" type="curve"/>
      <point x="209" y="740"/>
      <point x="117" y="644"/>
    </contour>
    <contour>
      <point x="553" y="540" type="curve"/>
      <point x="531" y="437"/>
      <point x="472" y="343"/>
      <point x="313" y="328" type="curve"/>
      <point x="206" y="345"/>
      <point x="140" y="408"/>
      <point x="131" y="519" type="curve"/>
      <point x="148" y="625"/>
      <point x="237" y="713"/>
      <point x="365" y="733" type="curve"/>
      <point x="508" y="707"/>
      <point x="531" y="643"/>
    </contour>
  </outline>
</glyph>
<glyph name="macron" format="1">
  <advance width="407"/>
  <unicode hex="00AF"/>
  <outline>
    <contour>
      <point x="257" y="572" type="move" name="_top"/>
    </contour>
    <contour>
      <point x="456" y="707" type="curve"/>
      <point x="278" y="689" type="line"/>
      <point x="99" y="694" type="line"/>
      <point x="75" y="661"/>
      <point x="71" y="637"/>
      <point x="86" y="619" type="curve"/>
      <point x="440" y="630" type="line"/>
      <point x="471" y="666"/>
      <point x="475" y="696"/>
    </contour>
  </outline>
</glyph>
<glyph name="degree" format="1">
  <advance width="523"/>
  <unicode hex="00B0"/>
  <outline>
    <contour>
      <point x="356" y="775" type="curve" smooth="yes"/>
      <point x="208" y="775"/>
      <point x="93" y="660"/>
      <point x="94" y="564" type="curve" smooth="yes"/>
      <point x="95" y="499"/>
      <point x="192" y="424"/>
      <point x="275" y="424" type="curve"/>
      <point x="405" y="424"/>
      <point x="543" y="527"/>
      <point x="540" y="614" type="curve" smooth="yes"/>
      <point x="539" y="681"/>
      <point x="437" y="775"/>
    </contour>
    <contour>
      <point x="339" y="718" type="curve"/>
      <point x="363" y="683"/>
      <point x="381" y="648"/>
      <point x="386" y="600" type="curve"/>
      <point x="374" y="550"/>
      <point x="346" y="515"/>
      <point x="291" y="484" type="curve"/>
      <point x="273" y="508"/>
      <point x="255" y="540"/>
      <point x="254" y="573" type="curve"/>
      <point x="256" y="625"/>
      <point x="291" y="681"/>
    </contour>
  </outline>
</glyph>
<glyph name="plusminus" format="1">
  <advance width="743"/>
  <unicode hex="00B1"/>
  <outline>
    <contour>
      <point x="636" y="206" type="curve"/>
      <point x="359" y="196" type="line"/>
      <point x="78" y="201" type="line"/>
      <point x="54" y="168"/>
      <point x="49" y="130"/>
      <point x="64" y="113" type="curve"/>
      <point x="617" y="113" type="line"/>
      <point x="648" y="150"/>
      <point x="654" y="192"/>
    </contour>
    <contour>
      <point x="441" y="488" type="line"/>
      <point x="468" y="617" type="line"/>
      <point x="438" y="654"/>
      <point x="396" y="668"/>
      <point x="381" y="652" type="curve"/>
      <point x="358" y="489" type="line"/>
      <point x="129" y="498" type="line"/>
      <point x="105" y="464"/>
      <point x="99" y="428"/>
      <point x="113" y="410" type="curve"/>
      <point x="344" y="408" type="line"/>
      <point x="311" y="273" type="line"/>
      <point x="340" y="243"/>
      <point x="375" y="231"/>
      <point x="395" y="243" type="curve"/>
      <point x="425" y="407" type="line"/>
      <point x="671" y="406" type="line"/>
      <point x="702" y="443"/>
      <point x="707" y="486"/>
      <point x="690" y="498" type="curve"/>
    </contour>
  </outline>
</glyph>
<glyph name="twosuperior" format="1">
  <advance width="359"/>
  <unicode hex="00B2"/>
  <outline>
    <contour>
      <point x="289" y="480" type="line"/>
      <point x="339" y="520"/>
      <point x="364" y="555"/>
      <point x="364" y="598" type="curve" smooth="yes"/>
      <point x="364" y="667"/>
      <point x="290" y="767"/>
      <point x="227" y="767" type="curve" smooth="yes"/>
      <point x="171" y="767"/>
      <point x="112" y="725"/>
      <point x="82" y="666" type="curve"/>
      <point x="94" y="636"/>
      <point x="130" y="595"/>
      <point x="158" y="572" type="curve"/>
      <point x="167" y="573"/>
      <point x="195" y="587"/>
      <point x="200" y="597" type="curve"/>
      <point x="188" y="631" type="line"/>
      <point x="204" y="652"/>
      <point x="224" y="666"/>
      <point x="245" y="666" type="curve" smooth="yes"/>
      <point x="262" y="666"/>
      <point x="273" y="658"/>
      <point x="279" y="641" type="curve"/>
      <point x="269" y="616"/>
      <point x="256" y="598"/>
      <point x="224" y="570" type="curve" smooth="yes"/>
      <point x="50" y="411" type="line"/>
      <point x="55" y="369"/>
      <point x="78" y="338"/>
      <point x="108" y="319" type="curve"/>
      <point x="168" y="330" type="line"/>
      <point x="321" y="308" type="line"/>
      <point x="359" y="349"/>
      <point x="367" y="409"/>
      <point x="351" y="430" type="curve"/>
      <point x="192" y="394" type="line"/>
      <point x="186" y="398" type="line"/>
    </contour>
  </outline>
</glyph>
<glyph name="threesuperior" format="1">
  <advance width="347"/>
  <unicode hex="00B3"/>
  <outline>
    <contour>
      <point x="316" y="570" type="line"/>
      <point x="358" y="588"/>
      <point x="373" y="608"/>
      <point x="372" y="637" type="curve" smooth="yes"/>
      <point x="372" y="694"/>
      <point x="292" y="767"/>
      <point x="222" y="767" type="curve" smooth="yes"/>
      <point x="161" y="767"/>
      <point x="102" y="725"/>
      <point x="68" y="666" type="curve"/>
      <point x="81" y="638"/>
      <point x="114" y="598"/>
      <point x="138" y="581" type="curve"/>
      <point x="152" y="585"/>
      <point x="173" y="596"/>
      <point x="182" y="607" type="curve"/>
      <point x="167" y="642" type="line"/>
      <point x="178" y="653"/>
      <point x="193" y="662"/>
      <point x="213" y="662" type="curve" smooth="yes"/>
      <point x="233" y="662"/>
      <point x="254" y="646"/>
      <point x="262" y="607" type="curve"/>
      <point x="169" y="543" type="line"/>
      <point x="170" y="514" type="line"/>
      <point x="203" y="506"/>
      <point x="228" y="493"/>
      <point x="246" y="474" type="curve"/>
      <point x="208" y="440"/>
      <point x="158" y="421"/>
      <point x="53" y="399" type="curve"/>
      <point x="46" y="370"/>
      <point x="60" y="334"/>
      <point x="83" y="318" type="curve"/>
      <point x="234" y="330"/>
      <point x="362" y="383"/>
      <point x="366" y="452" type="curve" smooth="yes"/>
      <point x="371" y="505"/>
      <point x="308" y="534"/>
      <point x="241" y="559" type="curve"/>
      <point x="230" y="533" type="line"/>
    </contour>
  </outline>
</glyph>
<glyph name="acute" format="1">
  <advance width="266"/>
  <unicode hex="00B4"/>
  <outline>
    <contour>
      <point x="124" y="572" type="move" name="_top"/>
    </contour>
    <contour>
      <point x="197" y="839" type="curve"/>
      <point x="167" y="741" type="line"/>
      <point x="96" y="647" type="line"/>
      <point x="94" y="621"/>
      <point x="130" y="606"/>
      <point x="165" y="607" type="curve"/>
      <point x="361" y="779" type="line"/>
      <point x="338" y="834"/>
      <point x="283" y="851"/>
    </contour>
  </outline>
</glyph>
<glyph name="paragraph" format="1">
  <advance width="670"/>
  <unicode hex="00B6"/>
  <outline>
    <contour>
      <point x="533" y="728" type="line"/>
      <point x="241" y="729"/>
      <point x="74" y="669"/>
      <point x="70" y="482" type="curve" smooth="yes"/>
      <point x="67" y="379"/>
      <point x="163" y="332"/>
      <point x="277" y="327" type="curve"/>
      <point x="269" y="388" type="line"/>
      <point x="251" y="259"/>
      <point x="222" y="146"/>
      <point x="184" y="30" type="curve"/>
      <point x="203" y="-2"/>
      <point x="298" y="-16"/>
      <point x="337" y="13" type="curve"/>
      <point x="373" y="302" type="line"/>
      <point x="454" y="625" type="line"/>
      <point x="475" y="630"/>
      <point x="501" y="634"/>
      <point x="521" y="631" type="curve"/>
      <point x="475" y="353" type="line"/>
      <point x="401" y="30" type="line"/>
      <point x="419" y="-2"/>
      <point x="515" y="-16"/>
      <point x="554" y="13" type="curve"/>
      <point x="567" y="131"/>
      <point x="576" y="234"/>
      <point x="586" y="302" type="curve"/>
      <point x="655" y="607" type="line"/>
      <point x="720" y="796" type="line"/>
      <point x="682" y="832"/>
      <point x="596" y="833"/>
      <point x="548" y="818" type="curve"/>
    </contour>
  </outline>
</glyph>
<glyph name="cedilla" format="1">
  <advance width="387"/>
  <unicode hex="00B8"/>
  <outline>
    <contour>
      <point x="175" y="0" type="move" name="_bottom"/>
    </contour>
    <contour>
      <point x="108" y="30" type="line"/>
      <point x="45" y="-98" type="line"/>
      <point x="50" y="-122"/>
      <point x="80" y="-138"/>
      <point x="109" y="-138" type="curve"/>
      <point x="126" y="-125"/>
      <point x="142" y="-117"/>
      <point x="164" y="-113" type="curve"/>
      <point x="173" y="-124"/>
      <point x="179" y="-141"/>
      <point x="176" y="-157" type="curve" smooth="yes"/>
      <point x="171" y="-183"/>
      <point x="149" y="-203"/>
      <point x="101" y="-203" type="curve" smooth="yes"/>
      <point x="44" y="-203"/>
      <point x="4" y="-184"/>
      <point x="-39" y="-139" type="curve"/>
      <point x="-56" y="-140"/>
      <point x="-70" y="-161"/>
      <point x="-68" y="-188" type="curve"/>
      <point x="-35" y="-242"/>
      <point x="40" y="-281"/>
      <point x="121" y="-283" type="curve" smooth="yes"/>
      <point x="210" y="-284"/>
      <point x="284" y="-237"/>
      <point x="299" y="-150" type="curve" smooth="yes"/>
      <point x="310" y="-87"/>
      <point x="271" y="-43"/>
      <point x="219" y="-43" type="curve" smooth="yes"/>
      <point x="192" y="-43"/>
      <point x="165" y="-54"/>
      <point x="142" y="-72" type="curve"/>
      <point x="195" y="30" type="line"/>
    </contour>
  </outline>
</glyph>
<glyph name="onesuperior" format="1">
  <advance width="273"/>
  <unicode hex="00B9"/>
  <outline>
    <contour>
      <point x="283" y="632" type="line"/>
      <point x="320" y="730" type="line"/>
      <point x="289" y="761"/>
      <point x="184" y="766"/>
      <point x="138" y="754" type="curve"/>
      <point x="64" y="632" type="line"/>
      <point x="76" y="617"/>
      <point x="105" y="608"/>
      <point x="124" y="612" type="curve"/>
      <point x="164" y="660" type="line"/>
      <point x="182" y="653" type="line"/>
      <point x="147" y="592" type="line"/>
      <point x="88" y="334" type="line"/>
      <point x="125" y="311"/>
      <point x="180" y="308"/>
      <point x="229" y="315" type="curve"/>
      <point x="237" y="421" type="line"/>
    </contour>
  </outline>
</glyph>
<glyph name="ordmasculine" format="1">
  <advance width="537"/>
  <unicode hex="00BA"/>
  <outline>
    <contour>
      <point x="78" y="489" type="curve" smooth="yes"/>
      <point x="77" y="612"/>
      <point x="196" y="759"/>
      <point x="352" y="759" type="curve" smooth="yes"/>
      <point x="439" y="759"/>
      <point x="546" y="639"/>
      <point x="548" y="554" type="curve" smooth="yes"/>
      <point x="549" y="441"/>
      <point x="405" y="312"/>
      <point x="270" y="312" type="curve"/>
      <point x="182" y="312"/>
      <point x="81" y="407"/>
    </contour>
    <contour>
      <point x="343" y="693" type="curve"/>
      <point x="280" y="644"/>
      <point x="233" y="570"/>
      <point x="230" y="499" type="curve"/>
      <point x="231" y="456"/>
      <point x="254" y="411"/>
      <point x="279" y="381" type="curve"/>
      <point x="351" y="421"/>
      <point x="389" y="469"/>
      <point x="406" y="534" type="curve"/>
      <point x="398" y="599"/>
      <point x="374" y="645"/>
    </contour>
  </outline>
</glyph>
<glyph name="guillemotright" format="1">
  <advance width="621"/>
  <unicode hex="00BB"/>
  <outline>
    <contour>
      <point x="367" y="465" type="curve"/>
      <point x="430" y="414" type="line"/>
      <point x="491" y="370" type="line"/>
      <point x="338" y="260" type="line"/>
      <point x="294" y="194"/>
      <point x="305" y="142"/>
      <point x="352" y="124" type="curve"/>
      <point x="475" y="235" type="line"/>
      <point x="579" y="312" type="line"/>
      <point x="588" y="333"/>
      <point x="593" y="354"/>
      <point x="592" y="377" type="curve"/>
      <point x="431" y="597" type="line"/>
      <point x="382" y="598"/>
      <point x="350" y="529"/>
    </contour>
    <contour>
      <point x="105" y="465" type="curve"/>
      <point x="186" y="414" type="line"/>
      <point x="248" y="370" type="line"/>
      <point x="73" y="260" type="line"/>
      <point x="30" y="194"/>
      <point x="41" y="142"/>
      <point x="87" y="124" type="curve"/>
      <point x="201" y="212" type="line"/>
      <point x="336" y="312" type="line"/>
      <point x="345" y="333"/>
      <point x="350" y="354"/>
      <point x="349" y="377" type="curve"/>
      <point x="169" y="597" type="line"/>
      <point x="121" y="598"/>
      <point x="88" y="529"/>
    </contour>
  </outline>
</glyph>
<glyph name="onequarter" format="1">
  <advance width="866"/>
  <unicode hex="00BC"/>
  <outline>
    <contour>
      <point x="804" y="379" type="line"/>
      <point x="781" y="410"/>
      <point x="747" y="428"/>
      <point x="653" y="428" type="curve" smooth="yes"/>
      <point x="638" y="428"/>
      <point x="623" y="427"/>
      <point x="606" y="424" type="curve"/>
      <point x="405" y="139" type="line"/>
      <point x="403" y="115"/>
      <point x="415" y="98"/>
      <point x="433" y="85" type="curve"/>
      <point x="596" y="93" type="line"/>
      <point x="790" y="86" type="line"/>
      <point x="803" y="99"/>
      <point x="810" y="145"/>
      <point x="803" y="164" type="curve"/>
      <point x="583" y="155" type="line"/>
      <point x="547" y="158" type="line"/>
      <point x="624" y="278" type="line"/>
      <point x="676" y="352" type="line"/>
      <point x="683" y="350" type="line"/>
      <point x="639" y="201" type="line"/>
      <point x="593" y="6" type="line"/>
      <point x="619" y="-19"/>
      <point x="686" y="-23"/>
      <point x="719" y="-13" type="curve"/>
      <point x="728" y="103" type="line"/>
      <point x="768" y="295" type="line"/>
    </contour>
    <component base="onesuperior" xOffset="33"/>
    <component base="fraction" xOffset="91"/>
  </outline>
</glyph>
<glyph name="onehalf" format="1">
  <advance width="849"/>
  <unicode hex="00BD"/>
  <outline>
    <contour>
      <point x="715" y="139" type="line"/>
      <point x="765" y="179"/>
      <point x="790" y="215"/>
      <point x="790" y="257" type="curve" smooth="yes"/>
      <point x="790" y="326"/>
      <point x="716" y="427"/>
      <point x="654" y="427" type="curve" smooth="yes"/>
      <point x="597" y="427"/>
      <point x="538" y="385"/>
      <point x="508" y="326" type="curve"/>
      <point x="520" y="295"/>
      <point x="556" y="255"/>
      <point x="584" y="232" type="curve"/>
      <point x="593" y="233"/>
      <point x="621" y="246"/>
      <point x="626" y="257" type="curve"/>
      <point x="614" y="291" type="line"/>
      <point x="630" y="311"/>
      <point x="650" y="326"/>
      <point x="671" y="326" type="curve" smooth="yes"/>
      <point x="688" y="326"/>
      <point x="699" y="318"/>
      <point x="705" y="301" type="curve"/>
      <point x="695" y="275"/>
      <point x="682" y="257"/>
      <point x="651" y="229" type="curve" smooth="yes"/>
      <point x="476" y="71" type="line"/>
      <point x="481" y="28"/>
      <point x="504" y="-3"/>
      <point x="534" y="-22" type="curve"/>
      <point x="595" y="-11" type="line"/>
      <point x="747" y="-33" type="line"/>
      <point x="785" y="8"/>
      <point x="793" y="69"/>
      <point x="777" y="89" type="curve"/>
      <point x="618" y="53" type="line"/>
      <point x="612" y="58" type="line"/>
    </contour>
    <component base="onesuperior" xOffset="34"/>
    <component base="fraction" xOffset="91"/>
  </outline>
</glyph>
<glyph name="threequarters" format="1">
  <advance width="920"/>
  <unicode hex="00BE"/>
  <outline>
    <contour>
      <point x="870" y="379" type="line"/>
      <point x="847" y="410"/>
      <point x="814" y="428"/>
      <point x="718" y="428" type="curve" smooth="yes"/>
      <point x="704" y="428"/>
      <point x="689" y="427"/>
      <point x="671" y="424" type="curve"/>
      <point x="471" y="139" type="line"/>
      <point x="469" y="115"/>
      <point x="482" y="98"/>
      <point x="499" y="85" type="curve"/>
      <point x="662" y="93" type="line"/>
      <point x="855" y="86" type="line"/>
      <point x="869" y="99"/>
      <point x="876" y="145"/>
      <point x="869" y="164" type="curve"/>
      <point x="649" y="155" type="line"/>
      <point x="613" y="158" type="line"/>
      <point x="690" y="278" type="line"/>
      <point x="742" y="352" type="line"/>
      <point x="749" y="350" type="line"/>
      <point x="704" y="201" type="line"/>
      <point x="658" y="6" type="line"/>
      <point x="686" y="-19"/>
      <point x="752" y="-23"/>
      <point x="785" y="-13" type="curve"/>
      <point x="794" y="103" type="line"/>
      <point x="833" y="295" type="line"/>
    </contour>
    <component base="threesuperior" xOffset="31"/>
    <component base="fraction" xOffset="156"/>
  </outline>
</glyph>
<glyph name="AE" format="1">
  <advance width="910"/>
  <unicode hex="00C6"/>
  <outline>
    <contour>
      <point x="700" y="747" type="curve" smooth="yes"/>
      <point x="547" y="747"/>
      <point x="400" y="736"/>
      <point x="307" y="706" type="curve"/>
      <point x="240" y="499" type="line"/>
      <point x="178" y="376" type="line"/>
      <point x="59" y="376" type="line"/>
      <point x="27" y="336"/>
      <point x="26" y="310"/>
      <point x="52" y="281" type="curve"/>
      <point x="131" y="288" type="line"/>
      <point x="-6" y="43" type="line"/>
      <point x="15" y="3"/>
      <point x="129" y="-15"/>
      <point x="193" y="20" type="curve"/>
      <point x="302" y="297" type="line"/>
      <point x="444" y="308" type="line"/>
      <point x="386" y="58" type="line"/>
      <point x="414" y="22"/>
      <point x="455" y="0"/>
      <point x="528" y="0" type="curve" smooth="yes"/>
      <point x="601" y="0"/>
      <point x="754" y="12"/>
      <point x="835" y="28" type="curve"/>
      <point x="851" y="59"/>
      <point x="873" y="135"/>
      <point x="819" y="160" type="curve"/>
      <point x="728" y="137"/>
      <point x="623" y="115"/>
      <point x="545" y="109" type="curve"/>
      <point x="545" y="183" type="line"/>
      <point x="577" y="316" type="line"/>
      <point x="668" y="327"/>
      <point x="725" y="327"/>
      <point x="814" y="321" type="curve"/>
      <point x="846" y="353"/>
      <point x="852" y="412"/>
      <point x="818" y="428" type="curve"/>
      <point x="730" y="420"/>
      <point x="648" y="409"/>
      <point x="584" y="400" type="curve"/>
      <point x="583" y="567" type="line"/>
      <point x="612" y="636" type="line"/>
      <point x="673" y="645"/>
      <point x="722" y="649"/>
      <point x="768" y="640" type="curve"/>
      <point x="843" y="579" type="line"/>
      <point x="913" y="627"/>
      <point x="943" y="690"/>
      <point x="902" y="741" type="curve"/>
      <point x="848" y="744"/>
      <point x="773" y="747"/>
    </contour>
    <contour>
      <point x="431" y="625" type="line"/>
      <point x="445" y="628" type="line"/>
      <point x="451" y="380" type="line"/>
      <point x="331" y="370" type="line"/>
    </contour>
  </outline>
</glyph>
<glyph name="Eth" format="1">
  <advance width="764"/>
  <unicode hex="00D0"/>
  <outline>
    <contour>
      <point x="443" y="451" type="curve"/>
      <point x="193" y="404" type="line"/>
      <point x="53" y="420" type="line"/>
      <point x="23" y="391"/>
      <point x="20" y="348"/>
      <point x="67" y="309" type="curve"/>
      <point x="299" y="351" type="line"/>
      <point x="461" y="346" type="line"/>
      <point x="494" y="389"/>
      <point x="483" y="434"/>
    </contour>
    <component base="D" xOffset="22"/>
  </outline>
</glyph>
<glyph name="multiply" format="1">
  <advance width="633"/>
  <unicode hex="00D7"/>
  <outline>
    <contour>
      <point x="470" y="96" type="line"/>
      <point x="509" y="86"/>
      <point x="537" y="105"/>
      <point x="549" y="148" type="curve"/>
      <point x="338" y="362" type="line"/>
      <point x="183" y="621" type="line"/>
      <point x="144" y="623"/>
      <point x="113" y="605"/>
      <point x="107" y="564" type="curve"/>
    </contour>
    <contour>
      <point x="329" y="366" type="line"/>
      <point x="50" y="162" type="line"/>
      <point x="45" y="130"/>
      <point x="56" y="106"/>
      <point x="109" y="91" type="curve"/>
      <point x="618" y="562" type="line"/>
      <point x="619" y="610"/>
      <point x="602" y="620"/>
      <point x="549" y="623" type="curve"/>
    </contour>
  </outline>
</glyph>
<glyph name="Oslash" format="1">
  <advance width="760"/>
  <unicode hex="00D8"/>
  <outline>
    <contour>
      <point x="688" y="746" type="curve"/>
      <point x="565" y="535" type="line"/>
      <point x="-1" y="100" type="line"/>
      <point x="2" y="44"/>
      <point x="36" y="20"/>
      <point x="106" y="0" type="curve"/>
      <point x="212" y="178" type="line"/>
      <point x="806" y="657" type="line"/>
      <point x="801" y="711"/>
      <point x="762" y="740"/>
    </contour>
    <contour>
      <point x="63" y="317" type="curve" smooth="yes"/>
      <point x="64" y="172"/>
      <point x="213" y="0"/>
      <point x="341" y="0" type="curve" smooth="yes"/>
      <point x="512" y="0"/>
      <point x="721" y="221"/>
      <point x="718" y="406" type="curve" smooth="yes"/>
      <point x="716" y="584"/>
      <point x="561" y="758"/>
      <point x="452" y="758" type="curve" smooth="yes"/>
      <point x="249" y="758"/>
      <point x="63" y="535"/>
    </contour>
    <contour>
      <point x="443" y="667" type="curve"/>
      <point x="514" y="577"/>
      <point x="535" y="484"/>
      <point x="547" y="372" type="curve"/>
      <point x="517" y="262"/>
      <point x="444" y="160"/>
      <point x="342" y="92" type="curve"/>
      <point x="283" y="151"/>
      <point x="246" y="237"/>
      <point x="245" y="332" type="curve" smooth="yes"/>
      <point x="245" y="448"/>
      <point x="330" y="592"/>
    </contour>
  </outline>
</glyph>
<glyph name="Thorn" format="1">
  <advance width="661"/>
  <unicode hex="00DE"/>
  <outline>
    <contour>
      <point x="160" y="539" type="line"/>
      <point x="126" y="353"/>
      <point x="89" y="193"/>
      <point x="34" y="47" type="curve"/>
      <point x="58" y="3"/>
      <point x="201" y="-17"/>
      <point x="252" y="25" type="curve"/>
      <point x="267" y="186"/>
      <point x="281" y="413"/>
      <point x="297" y="587" type="curve"/>
      <point x="364" y="826" type="line"/>
      <point x="305" y="851"/>
      <point x="231" y="841"/>
      <point x="155" y="795" type="curve"/>
    </contour>
    <contour>
      <point x="261" y="503" type="line"/>
      <point x="291" y="522"/>
      <point x="341" y="543"/>
      <point x="406" y="542" type="curve"/>
      <point x="458" y="526"/>
      <point x="492" y="486"/>
      <point x="493" y="416" type="curve" smooth="yes"/>
      <point x="495" y="373"/>
      <point x="475" y="332"/>
      <point x="439" y="296" type="curve"/>
      <point x="386" y="260"/>
      <point x="307" y="259"/>
      <point x="221" y="287" type="curve"/>
      <point x="200" y="223" type="line"/>
      <point x="284" y="197"/>
      <point x="373" y="185"/>
      <point x="497" y="209" type="curve"/>
      <point x="616" y="277"/>
      <point x="670" y="337"/>
      <point x="669" y="424" type="curve" smooth="yes"/>
      <point x="670" y="548"/>
      <point x="553" y="618"/>
      <point x="414" y="637" type="curve"/>
      <point x="354" y="626"/>
      <point x="269" y="587"/>
      <point x="227" y="564" type="curve"/>
    </contour>
  </outline>
</glyph>
<glyph name="germandbls" format="1">
  <advance width="711"/>
  <unicode hex="00DF"/>
  <outline>
    <contour>
      <point x="130" y="631" type="curve"/>
      <point x="120" y="441"/>
      <point x="80" y="258"/>
      <point x="12" y="47" type="curve"/>
      <point x="33" y="3"/>
      <point x="146" y="-17"/>
      <point x="209" y="18" type="curve"/>
      <point x="237" y="245"/>
      <point x="251" y="419"/>
      <point x="269" y="608" type="curve"/>
      <point x="344" y="758" type="line"/>
      <point x="301" y="724" type="line"/>
      <point x="450" y="745"/>
      <point x="505" y="682"/>
      <point x="504" y="617" type="curve" smooth="yes"/>
      <point x="504" y="571"/>
      <point x="480" y="526"/>
      <point x="438" y="503" type="curve"/>
      <point x="369" y="524" type="line"/>
      <point x="313" y="489"/>
      <point x="290" y="401"/>
      <point x="359" y="340" type="curve"/>
      <point x="450" y="377" type="line"/>
      <point x="505" y="360"/>
      <point x="533" y="308"/>
      <point x="532" y="256" type="curve" smooth="yes"/>
      <point x="531" y="190"/>
      <point x="486" y="135"/>
      <point x="424" y="113" type="curve"/>
      <point x="367" y="191" type="line"/>
      <point x="289" y="174"/>
      <point x="250" y="123"/>
      <point x="252" y="54" type="curve"/>
      <point x="295" y="17"/>
      <point x="334" y="4"/>
      <point x="415" y="0" type="curve"/>
      <point x="572" y="31"/>
      <point x="684" y="126"/>
      <point x="687" y="253" type="curve" smooth="yes"/>
      <point x="689" y="333"/>
      <point x="636" y="417"/>
      <point x="512" y="451" type="curve"/>
      <point x="513" y="457" type="line"/>
      <point x="601" y="493"/>
      <point x="647" y="564"/>
      <point x="648" y="637" type="curve" smooth="yes"/>
      <point x="649" y="744"/>
      <point x="529" y="849"/>
      <point x="304" y="827" type="curve"/>
      <point x="207" y="784"/>
      <point x="167" y="734"/>
    </contour>
  </outline>
</glyph>
<glyph name="ae" format="1">
  <advance width="1016"/>
  <unicode hex="00E6"/>
  <outline>
    <contour>
      <point x="700" y="104" type="curve"/>
      <point x="655" y="130"/>
      <point x="636" y="162"/>
      <point x="629" y="206" type="curve"/>
      <point x="732" y="226"/>
      <point x="864" y="273"/>
      <point x="952" y="317" type="curve"/>
      <point x="993" y="439"/>
      <point x="953" y="548"/>
      <point x="808" y="566" type="curve"/>
      <point x="698" y="547"/>
      <point x="639" y="498"/>
      <point x="586" y="430" type="curve"/>
      <point x="625" y="538" type="line"/>
      <point x="612" y="564"/>
      <point x="552" y="565"/>
      <point x="504" y="550" type="curve"/>
      <point x="489" y="523"/>
      <point x="484" y="490"/>
      <point x="485" y="443" type="curve"/>
      <point x="461" y="487"/>
      <point x="436" y="531"/>
      <point x="400" y="555" type="curve"/>
      <point x="184" y="550"/>
      <point x="40" y="368"/>
      <point x="41" y="217" type="curve" smooth="yes"/>
      <point x="42" y="109"/>
      <point x="110" y="21"/>
      <point x="277" y="14" type="curve"/>
      <point x="323" y="63"/>
      <point x="366" y="113"/>
      <point x="413" y="158" type="curve"/>
      <point x="423" y="148" type="line"/>
      <point x="385" y="45" type="line"/>
      <point x="398" y="7"/>
      <point x="470" y="-13"/>
      <point x="521" y="8" type="curve"/>
      <point x="536" y="127" type="line"/>
      <point x="559" y="75"/>
      <point x="602" y="32"/>
      <point x="682" y="0" type="curve"/>
      <point x="764" y="10"/>
      <point x="899" y="59"/>
      <point x="951" y="112" type="curve"/>
      <point x="961" y="168"/>
      <point x="937" y="187"/>
      <point x="896" y="186" type="curve"/>
      <point x="844" y="147"/>
      <point x="776" y="120"/>
    </contour>
    <contour>
      <point x="750" y="469" type="line"/>
      <point x="784" y="445"/>
      <point x="807" y="406"/>
      <point x="794" y="338" type="curve"/>
      <point x="747" y="314"/>
      <point x="689" y="291"/>
      <point x="625" y="271" type="curve"/>
      <point x="628" y="338"/>
      <point x="667" y="409"/>
      <point x="731" y="461" type="curve"/>
    </contour>
    <contour>
      <point x="389" y="453" type="curve"/>
      <point x="423" y="432"/>
      <point x="450" y="400"/>
      <point x="470" y="360" type="curve"/>
      <point x="459" y="334"/>
      <point x="447" y="298"/>
      <point x="443" y="265" type="curve"/>
      <point x="391" y="223"/>
      <point x="333" y="175"/>
      <point x="278" y="132" type="curve"/>
      <point x="248" y="151"/>
      <point x="236" y="183"/>
      <point x="236" y="222" type="curve" smooth="yes"/>
      <point x="236" y="312"/>
      <point x="292" y="407"/>
    </contour>
  </outline>
</glyph>
<glyph name="eth" format="1">
  <advance width="611"/>
  <unicode hex="00F0"/>
  <outline>
    <contour>
      <point x="298" y="790" type="curve"/>
      <point x="389" y="698" type="line"/>
      <point x="467" y="540"/>
      <point x="480" y="272"/>
      <point x="286" y="91" type="curve"/>
      <point x="237" y="129"/>
      <point x="214" y="180"/>
      <point x="214" y="250" type="curve" smooth="yes"/>
      <point x="214" y="326"/>
      <point x="257" y="401"/>
      <point x="342" y="448" type="curve"/>
      <point x="383" y="421"/>
      <point x="411" y="385"/>
      <point x="442" y="330" type="curve"/>
      <point x="483" y="367" type="line"/>
      <point x="451" y="433"/>
      <point x="411" y="507"/>
      <point x="355" y="546" type="curve"/>
      <point x="179" y="530"/>
      <point x="40" y="386"/>
      <point x="38" y="252" type="curve" smooth="yes"/>
      <point x="36" y="129"/>
      <point x="131" y="15"/>
      <point x="291" y="0" type="curve"/>
      <point x="504" y="76"/>
      <point x="586" y="247"/>
      <point x="588" y="440" type="curve" smooth="yes"/>
      <point x="590" y="602"/>
      <point x="504" y="756"/>
      <point x="388" y="854" type="curve"/>
      <point x="336" y="850"/>
      <point x="303" y="837"/>
    </contour>
    <contour>
      <point x="606" y="804" type="curve"/>
      <point x="404" y="712" type="line"/>
      <point x="247" y="691" type="line"/>
      <point x="230" y="649"/>
      <point x="233" y="627"/>
      <point x="287" y="595" type="curve"/>
      <point x="510" y="687" type="line"/>
      <point x="650" y="717" type="line"/>
      <point x="666" y="763"/>
      <point x="654" y="789"/>
    </contour>
  </outline>
</glyph>
<glyph name="divide" format="1">
  <advance width="794"/>
  <unicode hex="00F7"/>
  <outline>
    <contour>
      <point x="755" y="415" type="curve"/>
      <point x="421" y="395" type="line"/>
      <point x="81" y="401" type="line"/>
      <point x="58" y="367"/>
      <point x="54" y="330"/>
      <point x="69" y="312" type="curve"/>
      <point x="739" y="322" type="line"/>
      <point x="769" y="359"/>
      <point x="773" y="403"/>
    </contour>
    <contour>
      <point x="349" y="92" type="curve"/>
      <point x="386" y="92"/>
      <point x="425" y="118"/>
      <point x="453" y="155" type="curve"/>
      <point x="449" y="196"/>
      <point x="414" y="241"/>
      <point x="384" y="241" type="curve"/>
      <point x="342" y="235"/>
      <point x="304" y="190"/>
      <point x="296" y="146" type="curve"/>
      <point x="299" y="114"/>
      <point x="321" y="92"/>
    </contour>
    <contour>
      <point x="416" y="475" type="curve"/>
      <point x="453" y="475"/>
      <point x="493" y="500"/>
      <point x="520" y="539" type="curve"/>
      <point x="517" y="579"/>
      <point x="481" y="624"/>
      <point x="451" y="624" type="curve"/>
      <point x="408" y="619"/>
      <point x="371" y="575"/>
      <point x="363" y="529" type="curve"/>
      <point x="365" y="497"/>
      <point x="388" y="475"/>
    </contour>
  </outline>
</glyph>
<glyph name="oslash" format="1">
  <advance width="679"/>
  <unicode hex="00F8"/>
  <outline>
    <contour>
      <point x="218" y="152" type="line"/>
      <point x="75" y="0" type="line"/>
      <point x="20" y="7"/>
      <point x="1" y="33"/>
      <point x="-4" y="79" type="curve"/>
      <point x="487" y="397" type="line"/>
      <point x="638" y="585" type="line"/>
      <point x="678" y="576"/>
      <point x="708" y="545"/>
      <point x="703" y="508" type="curve"/>
    </contour>
    <contour>
      <point x="73" y="244" type="curve" smooth="yes"/>
      <point x="73" y="361"/>
      <point x="216" y="566"/>
      <point x="409" y="566" type="curve" smooth="yes"/>
      <point x="511" y="566"/>
      <point x="629" y="408"/>
      <point x="631" y="306" type="curve" smooth="yes"/>
      <point x="632" y="165"/>
      <point x="459" y="0"/>
      <point x="297" y="0" type="curve"/>
      <point x="194" y="0"/>
      <point x="73" y="120"/>
    </contour>
    <contour>
      <point x="388" y="482" type="curve"/>
      <point x="310" y="420"/>
      <point x="253" y="327"/>
      <point x="246" y="238" type="curve"/>
      <point x="246" y="181"/>
      <point x="272" y="125"/>
      <point x="312" y="87" type="curve"/>
      <point x="398" y="138"/>
      <point x="445" y="199"/>
      <point x="466" y="281" type="curve"/>
      <point x="460" y="366"/>
      <point x="436" y="425"/>
    </contour>
  </outline>
</glyph>
<glyph name="thorn" format="1">
  <advance width="670"/>
  <unicode hex="00FE"/>
  <outline>
    <contour>
      <point x="244" y="413" type="line"/>
      <point x="283" y="484" type="line"/>
      <point x="288" y="586" type="line"/>
      <point x="354" y="827" type="line"/>
      <point x="293" y="849"/>
      <point x="235" y="848"/>
      <point x="144" y="794" type="curve"/>
      <point x="146" y="539" type="line"/>
      <point x="116" y="250"/>
      <point x="62" y="-8"/>
      <point x="-24" y="-237" type="curve"/>
      <point x="26" y="-285"/>
      <point x="119" y="-298"/>
      <point x="192" y="-261" type="curve"/>
      <point x="207" y="-164"/>
      <point x="258" y="251"/>
      <point x="271" y="387" type="curve" smooth="yes"/>
    </contour>
    <contour>
      <point x="218" y="0" type="line"/>
      <point x="393" y="23"/>
      <point x="603" y="111"/>
      <point x="662" y="322" type="curve"/>
      <point x="639" y="471"/>
      <point x="579" y="541"/>
      <point x="392" y="555" type="curve"/>
      <point x="324" y="491"/>
      <point x="281" y="422"/>
      <point x="208" y="337" type="curve"/>
      <point x="253" y="285" type="line"/>
      <point x="306" y="350"/>
      <point x="346" y="396"/>
      <point x="401" y="436" type="curve"/>
      <point x="451" y="415"/>
      <point x="474" y="388"/>
      <point x="484" y="332" type="curve"/>
      <point x="468" y="210"/>
      <point x="371" y="114"/>
      <point x="195" y="81" type="curve"/>
    </contour>
  </outline>
</glyph>
<glyph name="Aogonek" format="1">
  <advance width="731"/>
  <unicode hex="0104"/>
  <outline>
    <contour>
      <point x="620" y="10" type="curve"/>
      <point x="620" y="45"/>
      <point x="611" y="59"/>
      <point x="576" y="66" type="curve"/>
      <point x="484" y="45"/>
      <point x="339" y="-39"/>
      <point x="339" y="-139" type="curve" smooth="yes"/>
      <point x="339" y="-196"/>
      <point x="425" y="-247"/>
      <point x="509" y="-247" type="curve" smooth="yes"/>
      <point x="607" y="-247"/>
      <point x="668" y="-216"/>
      <point x="717" y="-164" type="curve"/>
      <point x="717" y="-130"/>
      <point x="702" y="-112"/>
      <point x="678" y="-113" type="curve"/>
      <point x="644" y="-137"/>
      <point x="601" y="-153"/>
      <point x="562" y="-153" type="curve" smooth="yes"/>
      <point x="529" y="-153"/>
      <point x="502" y="-141"/>
      <point x="486" y="-118" type="curve"/>
      <point x="507" y="-52"/>
      <point x="565" y="-8"/>
    </contour>
    <component base="A"/>
  </outline>
</glyph>
<glyph name="aogonek" format="1">
  <advance width="696"/>
  <unicode hex="0105"/>
  <outline>
    <contour>
      <point x="564" y="2" type="curve"/>
      <point x="568" y="40"/>
      <point x="558" y="59"/>
      <point x="505" y="62" type="curve"/>
      <point x="381" y="26"/>
      <point x="307" y="-58"/>
      <point x="307" y="-130" type="curve" smooth="yes"/>
      <point x="307" y="-194"/>
      <point x="365" y="-247"/>
      <point x="470" y="-247" type="curve" smooth="yes"/>
      <point x="542" y="-247"/>
      <point x="607" y="-215"/>
      <point x="650" y="-164" type="curve"/>
      <point x="648" y="-130"/>
      <point x="638" y="-112"/>
      <point x="600" y="-114" type="curve"/>
      <point x="547" y="-153"/>
      <point x="483" y="-167"/>
      <point x="419" y="-141" type="curve"/>
      <point x="427" y="-77"/>
      <point x="487" y="-20"/>
    </contour>
    <component base="a"/>
  </outline>
</glyph>
<glyph name="dcaron" format="1">
  <advance width="748"/>
  <unicode hex="010F"/>
  <outline>
    <contour>
      <point x="791" y="639" type="curve"/>
      <point x="885" y="711"/>
      <point x="935" y="797"/>
      <point x="941" y="880" type="curve"/>
      <point x="924" y="927"/>
      <point x="851" y="975"/>
      <point x="773" y="915" type="curve"/>
      <point x="792" y="763" type="line"/>
      <point x="731" y="673" type="line"/>
      <point x="740" y="651"/>
      <point x="759" y="640"/>
    </contour>
    <component base="d"/>
  </outline>
</glyph>
<glyph name="Eogonek" format="1">
  <advance width="656"/>
  <unicode hex="0118"/>
  <outline>
    <contour>
      <point x="569" y="26" type="curve"/>
      <point x="575" y="55"/>
      <point x="556" y="72"/>
      <point x="536" y="74" type="curve"/>
      <point x="406" y="50"/>
      <point x="290" y="-43"/>
      <point x="290" y="-126" type="curve" smooth="yes"/>
      <point x="290" y="-193"/>
      <point x="363" y="-247"/>
      <point x="462" y="-247" type="curve" smooth="yes"/>
      <point x="541" y="-247"/>
      <point x="603" y="-216"/>
      <point x="650" y="-164" type="curve"/>
      <point x="651" y="-136"/>
      <point x="639" y="-116"/>
      <point x="609" y="-117" type="curve"/>
      <point x="573" y="-146"/>
      <point x="529" y="-162"/>
      <point x="489" y="-162" type="curve" smooth="yes"/>
      <point x="455" y="-162"/>
      <point x="428" y="-152"/>
      <point x="409" y="-134" type="curve"/>
      <point x="425" y="-59"/>
      <point x="500" y="-1"/>
    </contour>
    <component base="E"/>
  </outline>
</glyph>
<glyph name="eogonek" format="1">
  <advance width="606"/>
  <unicode hex="0119"/>
  <outline>
    <contour>
      <point x="420" y="37" type="curve"/>
      <point x="425" y="71"/>
      <point x="404" y="88"/>
      <point x="370" y="86" type="curve"/>
      <point x="222" y="54"/>
      <point x="132" y="-42"/>
      <point x="132" y="-122" type="curve" smooth="yes"/>
      <point x="132" y="-189"/>
      <point x="196" y="-247"/>
      <point x="308" y="-247" type="curve" smooth="yes"/>
      <point x="401" y="-247"/>
      <point x="478" y="-203"/>
      <point x="510" y="-150" type="curve"/>
      <point x="510" y="-121"/>
      <point x="497" y="-101"/>
      <point x="459" y="-104" type="curve"/>
      <point x="420" y="-137"/>
      <point x="369" y="-155"/>
      <point x="322" y="-155" type="curve" smooth="yes"/>
      <point x="291" y="-155"/>
      <point x="258" y="-147"/>
      <point x="241" y="-129" type="curve"/>
      <point x="263" y="-53"/>
      <point x="352" y="19"/>
    </contour>
    <component base="e"/>
  </outline>
</glyph>
<glyph name="Gcommaaccent" format="1">
  <advance width="723"/>
  <unicode hex="0122"/>
  <outline>
    <contour>
      <point x="288" y="-322" type="curve"/>
      <point x="382" y="-250"/>
      <point x="432" y="-165"/>
      <point x="439" y="-81" type="curve"/>
      <point x="422" y="-34"/>
      <point x="349" y="13"/>
      <point x="271" y="-47" type="curve"/>
      <point x="289" y="-198" type="line"/>
      <point x="229" y="-288" type="line"/>
      <point x="237" y="-311"/>
      <point x="257" y="-322"/>
    </contour>
    <component base="G"/>
  </outline>
</glyph>
<glyph name="gcommaaccent" format="1">
  <advance width="674"/>
  <unicode hex="0123"/>
  <outline>
    <contour>
      <point x="441" y="935" type="curve"/>
      <point x="359" y="834"/>
      <point x="329" y="730"/>
      <point x="345" y="637" type="curve"/>
      <point x="376" y="594"/>
      <point x="466" y="567"/>
      <point x="530" y="651" type="curve"/>
      <point x="473" y="805" type="line"/>
      <point x="514" y="915" type="line"/>
      <point x="499" y="937"/>
      <point x="475" y="943"/>
    </contour>
    <component base="g"/>
  </outline>
</glyph>
<glyph name="Iogonek" format="1">
  <advance width="317"/>
  <unicode hex="012E"/>
  <outline>
    <contour>
      <point x="208" y="11" type="curve"/>
      <point x="210" y="36"/>
      <point x="200" y="53"/>
      <point x="166" y="52" type="curve"/>
      <point x="67" y="33"/>
      <point x="-41" y="-40"/>
      <point x="-41" y="-130" type="curve" smooth="yes"/>
      <point x="-41" y="-192"/>
      <point x="32" y="-248"/>
      <point x="129" y="-248" type="curve" smooth="yes"/>
      <point x="204" y="-248"/>
      <point x="278" y="-218"/>
      <point x="317" y="-164" type="curve"/>
      <point x="324" y="-134"/>
      <point x="310" y="-115"/>
      <point x="273" y="-117" type="curve"/>
      <point x="239" y="-145"/>
      <point x="198" y="-159"/>
      <point x="160" y="-159" type="curve" smooth="yes"/>
      <point x="128" y="-159"/>
      <point x="98" y="-149"/>
      <point x="78" y="-128" type="curve"/>
      <point x="83" y="-64"/>
      <point x="167" y="-6"/>
    </contour>
    <component base="I"/>
  </outline>
</glyph>
<glyph name="iogonek" format="1">
  <advance width="320"/>
  <unicode hex="012F"/>
  <outline>
    <contour>
      <point x="216" y="12" type="curve"/>
      <point x="218" y="38"/>
      <point x="213" y="53"/>
      <point x="181" y="61" type="curve"/>
      <point x="52" y="46"/>
      <point x="-30" y="-43"/>
      <point x="-30" y="-123" type="curve" smooth="yes"/>
      <point x="-30" y="-188"/>
      <point x="25" y="-247"/>
      <point x="147" y="-247" type="curve" smooth="yes"/>
      <point x="234" y="-247"/>
      <point x="295" y="-210"/>
      <point x="332" y="-164" type="curve"/>
      <point x="332" y="-137"/>
      <point x="319" y="-118"/>
      <point x="289" y="-117" type="curve"/>
      <point x="255" y="-146"/>
      <point x="210" y="-160"/>
      <point x="169" y="-160" type="curve" smooth="yes"/>
      <point x="137" y="-160"/>
      <point x="108" y="-153"/>
      <point x="84" y="-137" type="curve"/>
      <point x="93" y="-74"/>
      <point x="150" y="-19"/>
    </contour>
    <component base="i"/>
  </outline>
</glyph>
<glyph name="dotlessi" format="1">
  <advance width="317"/>
  <unicode hex="0131"/>
  <outline>
    <contour>
      <point x="218" y="572" type="move" name="top"/>
    </contour>
    <contour>
      <point x="194" y="0" type="move" name="ogonek"/>
    </contour>
    <contour>
      <point x="110" y="337" type="line"/>
      <point x="88" y="236"/>
      <point x="60" y="151"/>
      <point x="19" y="49" type="curve"/>
      <point x="58" y="3"/>
      <point x="173" y="-17"/>
      <point x="229" y="22" type="curve"/>
      <point x="235" y="150"/>
      <point x="239" y="254"/>
      <point x="250" y="365" type="curve"/>
      <point x="299" y="532" type="line"/>
      <point x="251" y="566"/>
      <point x="191" y="563"/>
      <point x="103" y="523" type="curve"/>
    </contour>
  </outline>
</glyph>
<glyph name="Kcommaaccent" format="1">
  <advance width="703"/>
  <unicode hex="0136"/>
  <outline>
    <contour>
      <point x="265" y="-322" type="curve"/>
      <point x="359" y="-250"/>
      <point x="409" y="-165"/>
      <point x="416" y="-81" type="curve"/>
      <point x="399" y="-34"/>
      <point x="326" y="13"/>
      <point x="248" y="-47" type="curve"/>
      <point x="266" y="-198" type="line"/>
      <point x="206" y="-288" type="line"/>
      <point x="215" y="-311"/>
      <point x="234" y="-322"/>
    </contour>
    <component base="K"/>
  </outline>
</glyph>
<glyph name="kcommaaccent" format="1">
  <advance width="628"/>
  <unicode hex="0137"/>
  <outline>
    <contour>
      <point x="263" y="-322" type="curve"/>
      <point x="357" y="-250"/>
      <point x="407" y="-165"/>
      <point x="413" y="-81" type="curve"/>
      <point x="397" y="-34"/>
      <point x="324" y="13"/>
      <point x="245" y="-47" type="curve"/>
      <point x="264" y="-198" type="line"/>
      <point x="204" y="-288" type="line"/>
      <point x="212" y="-311"/>
      <point x="232" y="-322"/>
    </contour>
    <component base="k"/>
  </outline>
</glyph>
<glyph name="Lcommaaccent" format="1">
  <advance width="576"/>
  <unicode hex="013B"/>
  <outline>
    <contour>
      <point x="208" y="-322" type="curve"/>
      <point x="302" y="-250"/>
      <point x="352" y="-165"/>
      <point x="359" y="-81" type="curve"/>
      <point x="342" y="-34"/>
      <point x="269" y="13"/>
      <point x="191" y="-47" type="curve"/>
      <point x="209" y="-198" type="line"/>
      <point x="149" y="-288" type="line"/>
      <point x="158" y="-311"/>
      <point x="177" y="-322"/>
    </contour>
    <component base="L"/>
  </outline>
</glyph>
<glyph name="lcommaaccent" format="1">
  <advance width="336"/>
  <unicode hex="013C"/>
  <outline>
    <contour>
      <point x="63" y="-322" type="curve"/>
      <point x="157" y="-250"/>
      <point x="207" y="-165"/>
      <point x="213" y="-81" type="curve"/>
      <point x="197" y="-34"/>
      <point x="124" y="13"/>
      <point x="45" y="-47" type="curve"/>
      <point x="64" y="-198" type="line"/>
      <point x="4" y="-288" type="line"/>
      <point x="12" y="-311"/>
      <point x="32" y="-322"/>
    </contour>
    <component base="l"/>
  </outline>
</glyph>
<glyph name="Lcaron" format="1">
  <advance width="576"/>
  <unicode hex="013D"/>
  <outline>
    <contour>
      <point x="467" y="545" type="curve"/>
      <point x="560" y="617"/>
      <point x="610" y="703"/>
      <point x="617" y="786" type="curve"/>
      <point x="600" y="833"/>
      <point x="527" y="881"/>
      <point x="449" y="821" type="curve"/>
      <point x="468" y="669" type="line"/>
      <point x="407" y="579" type="line"/>
      <point x="416" y="557"/>
      <point x="435" y="546"/>
    </contour>
    <component base="L"/>
  </outline>
</glyph>
<glyph name="lcaron" format="1">
  <advance width="386"/>
  <unicode hex="013E"/>
  <outline>
    <contour>
      <point x="429" y="639" type="curve"/>
      <point x="522" y="711"/>
      <point x="573" y="797"/>
      <point x="579" y="880" type="curve"/>
      <point x="562" y="927"/>
      <point x="489" y="975"/>
      <point x="411" y="915" type="curve"/>
      <point x="430" y="763" type="line"/>
      <point x="369" y="673" type="line"/>
      <point x="378" y="651"/>
      <point x="397" y="640"/>
    </contour>
    <component base="l"/>
  </outline>
</glyph>
